<svg id="Calque_1" data-name="Calque 1" xmlns="http://www.w3.org/2000/svg" viewBox="0 0 1382.63 962.77"><defs><style>.cls-1{fill:#dcfdfa;}.cls-1,.cls-2{fill-rule:evenodd;}.cls-2{fill:#86f1e6;opacity:0.53;isolation:isolate;}.cls-3{fill:#03e0ca;}</style></defs><title>banner_contact</title><path id="Tracé_712" data-name="Tracé 712" class="cls-1" d="M1292.21,983.88H-109.24s132-122.23,240.56-124.11c129.6-2.31,187.82,88.13,312.22,88.13S651.3,726.7,881.6,726.7c245.91,0,410.61,257.18,410.61,257.18"/><path id="Tracé_711" data-name="Tracé 711" class="cls-2" d="M712.66,983.38s70.51-189,336.64-197.65,391.11-203.86,616.5-212.53,310.2,243.88,607.54,231,419.57,179.16,419.57,179.16Z"/><path class="cls-3" d="M691.31,400.74Q673,382.16,659.78,367.11H644.93c10.58,12.44,23.82,26.66,40,43l6.17,6.68,6.07-6.11c16.4-16.57,29.93-31,40.57-43.57H723Q709.61,382.22,691.31,400.74Z"/><path class="cls-3" d="M634.75,268a32.78,32.78,0,0,1,18.61-5.73,33.48,33.48,0,0,1,31.36,21.58l1.43,3.44h10.32l1.44-3.44a33.83,33.83,0,0,1,21.9-20.24,32.92,32.92,0,0,1,42.25,34.09h11.13a44.21,44.21,0,0,0-81.88-25.31,44.14,44.14,0,0,0-81.78,25.31h11.12A33.28,33.28,0,0,1,634.75,268Z"/><path class="cls-3" d="M760.57,308.71a68.7,68.7,0,0,1-2.86,8.89,57.18,57.18,0,0,1-2.87,6.39H627.67a64.15,64.15,0,0,1-2.86-6.39,69,69,0,0,1-2.7-8.89H610.65a79.68,79.68,0,0,0,3.72,12.85c3.53,9.23,10.55,20.55,21.45,34.4h14.33a243.78,243.78,0,0,1-15.8-20.84H748.3A255.43,255.43,0,0,1,732.48,356h14.33c10.9-13.85,17.92-25.17,21.45-34.4A76.64,76.64,0,0,0,772,308.71Z"/><path class="cls-3" d="M609.7,472.12a19.81,19.81,0,0,1,4.93,14.62v25.51H604.2V488.14a13.11,13.11,0,0,0-2.58-8.8,9.27,9.27,0,0,0-7.4-2.87,10.94,10.94,0,0,0-8.43,3.44,14.14,14.14,0,0,0-3.15,9.89v22.45H572.26V488.14a13.05,13.05,0,0,0-2.58-8.8,9.27,9.27,0,0,0-7.4-2.87,10.92,10.92,0,0,0-8.45,3.41,14.36,14.36,0,0,0-3.13,9.92v22.45H540.21V467.82h9.92v5.73a16.24,16.24,0,0,1,6.25-4.59,21.46,21.46,0,0,1,8.34-1.57,20.21,20.21,0,0,1,8.86,1.86,14.27,14.27,0,0,1,6.13,5.56,18.5,18.5,0,0,1,7.08-5.56,23.24,23.24,0,0,1,9.58-1.95A18.13,18.13,0,0,1,609.7,472.12Z"/><path class="cls-3" d="M628.45,458.67a6.13,6.13,0,0,1,0-8.91,6.74,6.74,0,0,1,4.76-1.78,6.9,6.9,0,0,1,4.73,1.69,5.52,5.52,0,0,1,1.92,4.3,6.31,6.31,0,0,1-1.87,4.62,6.46,6.46,0,0,1-4.78,1.89A6.75,6.75,0,0,1,628.45,458.67Zm-.49,9.15h10.41v44.43H628Z"/><path class="cls-3" d="M690.77,472.12a19.32,19.32,0,0,1,5.07,14.56v25.57h-10.4V488.14a12.52,12.52,0,0,0-2.87-8.8,10.16,10.16,0,0,0-7.82-2.87,12.09,12.09,0,0,0-9.09,3.44,13.94,13.94,0,0,0-3.33,10v22.36H652V450.47h10.41V473a16.93,16.93,0,0,1,6.36-4.22,23.47,23.47,0,0,1,8.46-1.46A18.5,18.5,0,0,1,690.77,472.12Z"/><path class="cls-3" d="M709.6,458.67a6.13,6.13,0,0,1,0-8.91,6.7,6.7,0,0,1,4.73-1.78,7,7,0,0,1,4.76,1.69A5.49,5.49,0,0,1,721,454a6.3,6.3,0,0,1-1.86,4.62,7.09,7.09,0,0,1-9.55.08Zm-.51,9.15h10.43v44.43H709.09Z"/><path class="cls-3" d="M774.82,467.82l-19.09,44.43H745l-19.09-44.43h10.83l13.85,33,14.33-33Z"/><path class="cls-3" d="M812,472.12a18.25,18.25,0,0,1,5.21,14.33v25.8h-9.83v-5.36a12.32,12.32,0,0,1-5.45,4.44,21.26,21.26,0,0,1-8.6,1.55,20.84,20.84,0,0,1-8.77-1.72,13.28,13.28,0,0,1-5.73-4.73,12,12,0,0,1-2.07-6.88,11.77,11.77,0,0,1,4.48-9.63,22.09,22.09,0,0,1,14-3.61H806.7v-.69a9.07,9.07,0,0,0-2.87-7.14,11.9,11.9,0,0,0-8.28-2.52,24,24,0,0,0-7.37,1.17,18.35,18.35,0,0,0-6.13,3.24L778,472.8a24.72,24.72,0,0,1,8.4-4.07,38,38,0,0,1,10.44-1.43A21.75,21.75,0,0,1,812,472.12Zm-9.49,31.53a9.77,9.77,0,0,0,4.3-5.13v-5.16H796c-6,0-9,2-9,5.9a5.34,5.34,0,0,0,2.24,4.5,10.31,10.31,0,0,0,6.25,1.67A13.51,13.51,0,0,0,802.46,503.65Z"/><path class="cls-3" d="M831,458.67a5.72,5.72,0,0,1-1.89-4.44,5.91,5.91,0,0,1,1.89-4.47,6.76,6.76,0,0,1,4.76-1.78,7,7,0,0,1,4.76,1.69,5.77,5.77,0,0,1,1.92,4.3,6.22,6.22,0,0,1-1.89,4.62,6.46,6.46,0,0,1-4.79,1.89A6.77,6.77,0,0,1,831,458.67Zm-.49,9.15H840.9v44.43H830.49Z"/></svg>