<?xml version="1.0" encoding="utf-8"?>
<!-- Generator: Adobe Illustrator 23.0.4, SVG Export Plug-In . SVG Version: 6.00 Build 0)  -->
<svg version="1.1" id="Calque_1" xmlns="http://www.w3.org/2000/svg" xmlns:xlink="http://www.w3.org/1999/xlink" x="0px" y="0px"
	 viewBox="0 0 156 137" style="enable-background:new 0 0 156 137;" xml:space="preserve">
<style type="text/css">
	.st0{fill:#03E0CA;}
	.st1{opacity:0.49;}
	.st2{fill:#C9C9C9;}
</style>
<title>logo_banner</title>
<path class="st0" d="M77.5,62.1c-4.3-4.3-7.9-8.2-11-11.7h-5.2c3.7,4.3,8.3,9.3,13.9,15l2.2,2.3l2.1-2.1
	c5.7-5.8,10.4-10.8,14.1-15.2h-5.1C85.5,53.9,81.8,57.8,77.5,62.1z"/>
<path class="st0" d="M57.8,15.8c1.9-1.3,4.2-2,6.5-2c4.9,0,9.2,3,10.9,7.5l0.5,1.2h3.6l0.5-1.2c1.3-3.4,4.1-6,7.6-7.1
	c6.1-1.8,12.5,1.6,14.3,7.7c0.4,1.3,0.6,2.8,0.4,4.2h3.9c0.4-8.5-6.1-15.8-14.6-16.2c-5.7-0.3-11,2.5-14,7.4
	c-4.4-7.3-13.9-9.6-21.2-5.1c-4.8,2.9-7.7,8.3-7.4,14h3.9C52.6,22.1,54.4,18.1,57.8,15.8z"/>
<path class="st0" d="M101.7,30c-0.3,1.1-0.6,2.1-1,3.1c-0.3,0.8-0.6,1.5-1,2.2H55.3c-0.4-0.7-0.7-1.5-1-2.2c-0.4-1-0.7-2-0.9-3.1h-4
	c0.3,1.5,0.7,3,1.3,4.5c1.2,3.2,3.7,7.2,7.5,12h5c-2.2-2.7-4.1-5.1-5.5-7.3h39.8c-1.7,2.5-3.6,4.9-5.5,7.3h5c3.8-4.8,6.2-8.8,7.5-12
	c0.6-1.5,1-3,1.3-4.5H101.7z"/>
<g id="Développement_Web" class="st1">
	<g>
		<path class="st2" d="M8.2,115.9h3.8c0.9,0,1.8,0.2,2.6,0.6c0.7,0.4,1.3,0.9,1.7,1.6c0.8,1.5,0.8,3.3,0,4.7c-0.4,0.7-1,1.3-1.7,1.6
			c-0.8,0.4-1.7,0.6-2.6,0.6H8.2V115.9z M12,123.9c0.7,0,1.3-0.1,1.9-0.4c0.5-0.3,1-0.7,1.3-1.2c0.3-0.5,0.5-1.2,0.4-1.8
			c0-0.6-0.1-1.2-0.4-1.8c-0.3-0.5-0.7-1-1.2-1.2c-0.6-0.3-1.3-0.5-2-0.4H9.6v6.8L12,123.9z"/>
		<path class="st2" d="M25,122h-5.6c0.1,0.6,0.3,1.1,0.8,1.5c0.5,0.4,1.1,0.6,1.7,0.6c0.8,0,1.5-0.3,2-0.8l0.7,0.8
			c-0.3,0.4-0.7,0.7-1.2,0.8c-0.5,0.2-1,0.3-1.6,0.3c-0.7,0-1.3-0.1-1.9-0.4c-0.5-0.3-1-0.7-1.3-1.2c-0.3-0.6-0.5-1.2-0.5-1.8
			c0-0.6,0.1-1.3,0.5-1.8c0.3-0.5,0.7-1,1.2-1.2c0.5-0.3,1.2-0.5,1.8-0.4c0.6,0,1.2,0.1,1.8,0.4c0.5,0.3,0.9,0.7,1.2,1.2
			c0.3,0.6,0.4,1.2,0.4,1.8C25,121.7,25,121.8,25,122z M20.1,119.7c-0.4,0.4-0.7,0.9-0.7,1.4h4.4c-0.1-0.5-0.3-1.1-0.7-1.4
			c-0.4-0.4-0.9-0.6-1.5-0.6C21.1,119.1,20.5,119.3,20.1,119.7L20.1,119.7z M22.4,115.4H24l-2.2,1.7h-1.2L22.4,115.4z"/>
		<path class="st2" d="M32.7,118.1l-3,6.9h-1.3l-3-6.9h1.3l2.4,5.5l2.4-5.5H32.7z"/>
		<path class="st2" d="M39.9,122h-5.6c0.1,0.6,0.3,1.1,0.8,1.5c0.5,0.4,1.1,0.6,1.7,0.6c0.8,0,1.5-0.3,2-0.8l0.7,0.8
			c-0.3,0.4-0.7,0.7-1.2,0.8c-0.5,0.2-1,0.3-1.6,0.3c-0.7,0-1.3-0.1-1.9-0.4c-0.5-0.3-1-0.7-1.3-1.2c-0.3-0.6-0.5-1.2-0.5-1.8
			c0-0.6,0.1-1.3,0.5-1.8c0.3-0.5,0.7-1,1.2-1.2c0.5-0.3,1.2-0.5,1.8-0.4c0.6,0,1.2,0.1,1.8,0.4c0.5,0.3,0.9,0.7,1.2,1.2
			c0.3,0.6,0.4,1.2,0.4,1.8C39.9,121.8,39.9,121.9,39.9,122z M35,119.6c-0.4,0.4-0.7,0.9-0.7,1.4h4.4c-0.1-0.5-0.3-1.1-0.7-1.4
			c-0.4-0.4-0.9-0.6-1.5-0.6C35.9,119.1,35.4,119.3,35,119.6z"/>
		<path class="st2" d="M41.6,115.3h1.2v9.7h-1.2V115.3z"/>
		<path class="st2" d="M46.4,124.6c-0.5-0.3-1-0.7-1.3-1.2c-0.3-0.6-0.5-1.2-0.5-1.8c0-0.6,0.1-1.3,0.5-1.8c0.3-0.5,0.7-1,1.3-1.2
			c1.2-0.6,2.5-0.6,3.7,0c0.5,0.3,1,0.7,1.3,1.2c0.3,0.6,0.5,1.2,0.5,1.8c0,0.6-0.2,1.3-0.5,1.8c-0.3,0.5-0.7,1-1.3,1.2
			C48.9,125.2,47.5,125.2,46.4,124.6z M49.4,123.7c0.4-0.2,0.6-0.5,0.8-0.9c0.2-0.4,0.3-0.8,0.3-1.3c0-0.4-0.1-0.9-0.3-1.3
			c-0.2-0.4-0.5-0.7-0.8-0.8c-0.7-0.4-1.6-0.4-2.4,0c-0.3,0.2-0.6,0.5-0.8,0.8c-0.2,0.4-0.3,0.8-0.3,1.3c0,0.4,0.1,0.9,0.3,1.3
			c0.2,0.4,0.5,0.7,0.8,0.9C47.7,124.1,48.6,124.1,49.4,123.7z"/>
		<path class="st2" d="M59,118.5c0.5,0.3,0.9,0.7,1.2,1.2c0.3,0.6,0.5,1.2,0.5,1.8c0,0.6-0.1,1.3-0.5,1.8c-0.3,0.5-0.7,0.9-1.2,1.2
			c-0.6,0.3-1.2,0.4-1.8,0.4c-0.5,0-0.9-0.1-1.3-0.3c-0.4-0.2-0.8-0.5-1-0.8v3.6h-1.3v-9.4h1.2v1.1c0.3-0.4,0.6-0.7,1-0.9
			c0.4-0.2,0.9-0.3,1.4-0.3C57.8,118,58.4,118.2,59,118.5z M58.3,123.7c0.4-0.2,0.6-0.5,0.8-0.9c0.2-0.4,0.3-0.8,0.3-1.3
			c0-0.4-0.1-0.9-0.3-1.3c-0.2-0.4-0.5-0.7-0.8-0.8c-0.4-0.2-0.8-0.3-1.2-0.3c-0.4,0-0.8,0.1-1.2,0.3c-0.3,0.2-0.6,0.5-0.8,0.8
			c-0.2,0.4-0.3,0.8-0.3,1.3c0,0.4,0.1,0.9,0.3,1.3c0.2,0.4,0.5,0.7,0.8,0.9C56.7,124.1,57.6,124.1,58.3,123.7z"/>
		<path class="st2" d="M67.8,118.5c0.5,0.3,0.9,0.7,1.2,1.2c0.3,0.6,0.5,1.2,0.4,1.8c0,0.6-0.1,1.3-0.4,1.8
			c-0.3,0.5-0.7,0.9-1.2,1.2c-0.6,0.3-1.2,0.4-1.8,0.4c-0.5,0-0.9-0.1-1.3-0.3c-0.4-0.2-0.8-0.5-1-0.8v3.6h-1.2v-9.4h1.2v1.1
			c0.3-0.4,0.6-0.7,1.1-0.9c0.4-0.2,0.9-0.3,1.4-0.3C66.6,118,67.3,118.2,67.8,118.5z M67.1,123.7c0.4-0.2,0.6-0.5,0.8-0.9
			c0.2-0.4,0.3-0.8,0.3-1.3c0-0.4-0.1-0.9-0.3-1.3c-0.2-0.4-0.5-0.7-0.8-0.8c-0.4-0.2-0.8-0.3-1.2-0.3c-0.4,0-0.8,0.1-1.2,0.3
			c-0.3,0.2-0.6,0.5-0.8,0.8c-0.2,0.4-0.3,0.8-0.3,1.3c0,0.4,0.1,0.9,0.3,1.3c0.2,0.4,0.5,0.7,0.8,0.9
			C65.5,124.1,66.4,124.1,67.1,123.7z"/>
		<path class="st2" d="M77.4,122h-5.6c0.1,0.6,0.3,1.1,0.8,1.5c0.5,0.4,1.1,0.6,1.7,0.6c0.8,0,1.5-0.3,2-0.8L77,124
			c-0.3,0.4-0.7,0.6-1.2,0.8c-0.5,0.2-1,0.3-1.6,0.3c-0.7,0-1.3-0.1-1.9-0.4c-0.5-0.3-1-0.7-1.3-1.2c-0.3-0.6-0.5-1.2-0.5-1.8
			c0-0.6,0.1-1.3,0.4-1.8c0.3-0.5,0.7-1,1.2-1.2c0.5-0.3,1.2-0.5,1.8-0.4c0.6,0,1.2,0.1,1.8,0.4c0.5,0.3,0.9,0.7,1.2,1.2
			c0.3,0.6,0.5,1.2,0.4,1.8C77.4,121.7,77.4,121.9,77.4,122z M72.6,119.7c-0.4,0.4-0.7,0.9-0.7,1.4h4.4c-0.1-0.5-0.3-1.1-0.7-1.4
			C74.7,118.9,73.4,118.9,72.6,119.7z"/>
		<path class="st2" d="M89.9,118.8c0.5,0.6,0.8,1.4,0.8,2.2v4h-1.2v-3.8c0-0.5-0.1-1.1-0.5-1.5c-0.3-0.4-0.8-0.5-1.3-0.5
			c-0.6,0-1.1,0.2-1.5,0.6c-0.4,0.5-0.6,1.1-0.6,1.7v3.5h-1.2v-3.8c0-0.5-0.1-1.1-0.5-1.5c-0.3-0.4-0.8-0.5-1.3-0.5
			c-0.6,0-1.1,0.2-1.5,0.6c-0.4,0.5-0.6,1.1-0.6,1.7v3.6h-1.2v-6.9h1.2v1c0.2-0.4,0.6-0.6,1-0.8c0.4-0.2,0.9-0.3,1.4-0.3
			c0.5,0,1,0.1,1.4,0.3c0.4,0.2,0.8,0.6,1,1c0.3-0.4,0.6-0.7,1.1-0.9c0.5-0.2,1-0.4,1.5-0.4C88.6,118,89.3,118.2,89.9,118.8z"/>
		<path class="st2" d="M99.2,122h-5.6c0.1,0.6,0.3,1.1,0.8,1.5c0.5,0.4,1.1,0.6,1.7,0.6c0.8,0,1.5-0.3,2-0.8l0.7,0.8
			c-0.3,0.4-0.7,0.7-1.2,0.8c-0.5,0.2-1,0.3-1.6,0.3c-0.7,0-1.3-0.1-1.9-0.4c-0.5-0.3-1-0.7-1.3-1.2c-0.3-0.6-0.5-1.2-0.5-1.8
			c0-0.6,0.1-1.3,0.4-1.8c0.3-0.5,0.7-1,1.2-1.3c0.5-0.3,1.2-0.5,1.8-0.4c0.6,0,1.2,0.1,1.8,0.4c0.5,0.3,0.9,0.7,1.2,1.2
			c0.3,0.6,0.5,1.2,0.4,1.8C99.2,121.7,99.2,121.9,99.2,122z M94.3,119.7c-0.4,0.4-0.7,0.9-0.7,1.4H98c-0.1-1.2-1-2-2.2-2
			C95.2,119.1,94.7,119.3,94.3,119.7L94.3,119.7z"/>
		<path class="st2" d="M106.7,118.8c0.6,0.6,0.8,1.4,0.8,2.2v4h-1.2v-3.8c0-0.5-0.1-1.1-0.5-1.5c-0.4-0.4-0.9-0.5-1.4-0.5
			c-0.6,0-1.2,0.2-1.6,0.6c-0.4,0.5-0.6,1.1-0.6,1.7v3.5h-1.2v-6.9h1.2v1c0.3-0.4,0.6-0.6,1-0.8c0.5-0.2,1-0.3,1.5-0.3
			C105.3,118,106.1,118.3,106.7,118.8z"/>
		<path class="st2" d="M113.6,124.6c-0.2,0.2-0.4,0.3-0.7,0.3c-0.3,0.1-0.5,0.1-0.8,0.1c-0.6,0-1.2-0.2-1.6-0.6
			c-0.4-0.4-0.6-1-0.6-1.6v-3.8h-1.2v-1h1.2v-1.5h1.2v1.5h2v1h-2v3.7c0,0.3,0.1,0.6,0.3,0.9c0.2,0.2,0.5,0.3,0.8,0.3
			c0.4,0,0.7-0.1,1-0.3L113.6,124.6z"/>
		<path class="st2" d="M131.7,115.9l-3,9.1h-1.4l-2.5-7.3l-2.5,7.3h-1.4l-3-9.1h1.3l2.5,7.4l2.6-7.4h1.2l2.5,7.4l2.5-7.4
			L131.7,115.9z"/>
		<path class="st2" d="M138.7,122h-5.6c0.1,0.6,0.3,1.1,0.8,1.5c0.5,0.4,1.1,0.6,1.7,0.6c0.8,0,1.5-0.3,2-0.8l0.7,0.8
			c-0.3,0.4-0.7,0.6-1.2,0.8c-0.5,0.2-1,0.3-1.6,0.3c-0.7,0-1.3-0.1-1.9-0.4c-0.5-0.3-1-0.7-1.3-1.2c-0.3-0.6-0.5-1.2-0.5-1.8
			c0-0.6,0.1-1.3,0.4-1.8c0.3-0.5,0.7-1,1.2-1.2c0.5-0.3,1.2-0.5,1.8-0.4c0.6,0,1.2,0.1,1.8,0.4c0.5,0.3,0.9,0.7,1.2,1.2
			c0.3,0.6,0.5,1.2,0.4,1.8C138.8,121.8,138.8,121.9,138.7,122z M133.9,119.7c-0.4,0.4-0.7,0.9-0.7,1.4h4.4
			c-0.1-0.5-0.3-1.1-0.7-1.4C136,118.9,134.7,118.9,133.9,119.7L133.9,119.7z"/>
		<path class="st2" d="M145.9,118.5c0.5,0.3,0.9,0.7,1.2,1.2c0.3,0.6,0.5,1.2,0.4,1.8c0,0.6-0.1,1.3-0.4,1.8
			c-0.3,0.5-0.7,0.9-1.2,1.2c-0.5,0.3-1.2,0.4-1.8,0.4c-0.5,0-1-0.1-1.4-0.3c-0.4-0.2-0.8-0.5-1.1-0.9v1.1h-1.2v-9.6h1.2v3.8
			c0.3-0.4,0.6-0.6,1-0.8c0.4-0.2,0.9-0.3,1.4-0.3C144.7,118,145.4,118.2,145.9,118.5z M145.2,123.7c0.4-0.2,0.6-0.5,0.8-0.9
			c0.2-0.4,0.3-0.8,0.3-1.3c0-0.4-0.1-0.9-0.3-1.3c-0.2-0.4-0.5-0.7-0.8-0.8c-0.7-0.4-1.6-0.4-2.4,0c-0.4,0.2-0.6,0.5-0.8,0.8
			c-0.2,0.4-0.3,0.8-0.3,1.3c0,0.4,0.1,0.9,0.3,1.3c0.2,0.4,0.5,0.7,0.8,0.9C143.6,124.1,144.5,124.1,145.2,123.7z"/>
	</g>
</g>
<path class="st0" d="M49.1,87c1.2,1.4,1.9,3.2,1.7,5.1v8.9h-3.6v-8.4c0.1-1.1-0.2-2.2-0.9-3.1c-0.7-0.7-1.6-1.1-2.6-1
	c-1.1,0-2.2,0.4-2.9,1.2c-0.8,1-1.2,2.2-1.1,3.4v7.8H36v-8.4c0.1-1.1-0.2-2.2-0.9-3.1c-0.7-0.7-1.6-1.1-2.6-1
	c-1.1-0.1-2.2,0.4-3,1.2c-0.8,1-1.2,2.2-1.1,3.5v7.8h-3.7V85.5h3.5v2c0.6-0.7,1.3-1.3,2.2-1.6c0.9-0.4,1.9-0.6,2.9-0.6
	c1.1,0,2.1,0.2,3.1,0.7c0.9,0.4,1.6,1.1,2.1,1.9c0.7-0.8,1.5-1.5,2.5-1.9c1.1-0.5,2.2-0.7,3.3-0.7C46.1,85.2,47.8,85.8,49.1,87z"/>
<path class="st0" d="M55.6,82.3c-0.4-0.4-0.7-1-0.7-1.6c0-0.6,0.2-1.2,0.7-1.6c0.5-0.4,1-0.6,1.7-0.6c0.6,0,1.2,0.2,1.7,0.6
	c0.4,0.4,0.7,0.9,0.7,1.5c0,0.6-0.2,1.2-0.7,1.6c-0.4,0.4-1,0.7-1.7,0.7C56.6,83,56,82.7,55.6,82.3z M55.4,85.5h3.6V101h-3.6V85.5z"
	/>
<path class="st0" d="M77.3,87c1.3,1.4,1.9,3.2,1.8,5.1v8.9h-3.6v-8.4c0.1-1.1-0.3-2.2-1-3.1c-0.7-0.7-1.7-1.1-2.7-1
	c-1.2-0.1-2.3,0.4-3.2,1.2c-0.8,1-1.2,2.2-1.2,3.5v7.8h-3.6V79.4h3.6v7.9c0.6-0.7,1.4-1.2,2.2-1.5c0.9-0.4,1.9-0.5,2.9-0.5
	C74.4,85.2,76.1,85.8,77.3,87z"/>
<path class="st0" d="M83.9,82.3c-0.4-0.4-0.7-1-0.7-1.6c0-0.6,0.2-1.2,0.7-1.6c0.4-0.4,1-0.6,1.7-0.6c0.6,0,1.2,0.2,1.7,0.6
	c0.4,0.4,0.7,0.9,0.7,1.5c0,0.6-0.2,1.2-0.7,1.6c-0.4,0.4-1.1,0.7-1.7,0.7C84.9,83,84.4,82.7,83.9,82.3z M83.7,85.5h3.6V101h-3.6
	V85.5z"/>
<path class="st0" d="M106.7,85.5L100,101h-3.7l-6.7-15.5h3.8L98.2,97l5-11.5H106.7z"/>
<path class="st0" d="M119.6,87c1.3,1.3,2,3.1,1.8,5v9H118v-1.9c-0.5,0.7-1.1,1.2-1.9,1.6c-1,0.4-2,0.6-3,0.5c-1.1,0-2.1-0.2-3.1-0.6
	c-0.8-0.3-1.5-0.9-2-1.7c-0.5-0.7-0.7-1.5-0.7-2.4c0-1.3,0.5-2.6,1.6-3.4c1.4-1,3.2-1.4,4.9-1.3h4v-0.2c0.1-0.9-0.3-1.8-1-2.5
	c-0.8-0.6-1.9-1-2.9-0.9c-0.9,0-1.7,0.1-2.6,0.4c-0.8,0.2-1.5,0.6-2.1,1.1l-1.4-2.6c0.9-0.7,1.9-1.1,2.9-1.4
	c1.2-0.3,2.4-0.5,3.6-0.5C116.2,85.2,118.1,85.8,119.6,87z M116.3,98c0.7-0.4,1.2-1,1.5-1.8v-1.8h-3.8c-2.1,0-3.1,0.7-3.1,2.1
	c0,0.6,0.3,1.2,0.8,1.6c0.6,0.4,1.4,0.6,2.2,0.6C114.7,98.6,115.6,98.4,116.3,98z"/>
<path class="st0" d="M126.2,82.3c-0.4-0.4-0.7-1-0.7-1.6c0-0.6,0.2-1.2,0.7-1.6c0.5-0.4,1-0.6,1.7-0.6c0.6,0,1.2,0.2,1.7,0.6
	c0.4,0.4,0.7,0.9,0.7,1.5c0,0.6-0.2,1.2-0.7,1.6c-0.4,0.4-1,0.7-1.7,0.7C127.3,83,126.7,82.7,126.2,82.3z M126.1,85.5h3.6V101h-3.6
	L126.1,85.5z"/>
</svg>
