<svg id="Calque_1" data-name="Calque 1" xmlns="http://www.w3.org/2000/svg" viewBox="0 0 77 70"><defs><style>.cls-1{fill:#03e0ca;}</style></defs><title>logo_mhv</title><path class="cls-1" d="M38.22,53.54c-3.36-3.35-6.22-6.46-8.67-9.16h-4c2.87,3.43,6.55,7.28,10.89,11.7l1.72,1.8,1.64-1.64c4.5-4.5,8.18-8.43,11-11.86h-4C44.44,47.16,41.49,50.19,38.22,53.54Z"/><path class="cls-1" d="M22.75,17.29a9.21,9.21,0,0,1,5.08-1.56,14.56,14.56,0,0,1,2.62.33,9.37,9.37,0,0,1,6,5.56l.41.9h2.86l.41-.9a9.37,9.37,0,0,1,6-5.56,9,9,0,0,1,11.54,9.33h3A12,12,0,0,0,45.26,13.11a12.16,12.16,0,0,0-7,5.32,12.12,12.12,0,0,0-16.65-4l-.53.35A12.14,12.14,0,0,0,16,25.39h3A8.5,8.5,0,0,1,22.75,17.29Z"/><path class="cls-1" d="M57.13,28.42a23,23,0,0,1-.74,2.45,15.92,15.92,0,0,1-.82,1.72H20.79c-.33-.65-.58-1.23-.82-1.72a23,23,0,0,1-.74-2.45H16.12a33.41,33.41,0,0,0,1,3.52A37.72,37.72,0,0,0,23,41.35h3.93c-1.72-2.13-3.2-4-4.34-5.73H53.77a61.57,61.57,0,0,1-4.34,5.73h3.93a40,40,0,0,0,5.89-9.41,15.5,15.5,0,0,0,1-3.52Z"/></svg>