<svg id="Calque_1" data-name="Calque 1" xmlns="http://www.w3.org/2000/svg" viewBox="0 0 341.12 284.24"><defs><style>.cls-1{fill:#dcfdfa;}.cls-1,.cls-2,.cls-3,.cls-5{fill-rule:evenodd;}.cls-2{fill:#86f1e6;}.cls-3{fill:#b1f8f0;}.cls-4,.cls-6,.cls-7{fill:none;}.cls-4{stroke:#86f1e6;stroke-width:1.02px;}.cls-5{fill:#c83820;}.cls-7{stroke:#fff;stroke-width:0.6px;opacity:0.15;isolation:isolate;}</style></defs><title>scene_team</title><path id="Tracé_23" data-name="Tracé 23" class="cls-1" d="M-267.72,235.05s20.35-54.53,97.16-57,112.89-58.82,177.94-61.3S96.92,187.1,182.7,183.38s121.11,51.68,121.11,51.68Z"/><path id="Tracé_25" data-name="Tracé 25" class="cls-2" d="M211.13,59.64a39.25,39.25,0,0,1-.85,8.16c-3.75,17.93-19.66,24-38.71,24C149.73,91.84,132,81.48,132,59.63a39.56,39.56,0,0,1,39.57-39.55h0A39.54,39.54,0,0,1,211.14,59.6v0"/><path id="Tracé_26" data-name="Tracé 26" class="cls-1" d="M176.76,55.93c-.39.81-.8,1.71-1.24,2.64-2.4,5.24-5.43,11.77-8.41,10.62,0,0,.54-4.56-3.26-4.56a3.45,3.45,0,0,0-3.61,3.28h0v.32c0,2.71,2,4.15,4,5.6a11.75,11.75,0,0,1,3.34,3.07c1.49,2.41-1.3,15.35-1.3,15.35l11.16,4.38L178.35,86c3.75.22,8.16,0,10.58-1.59,5.13-3.42,6.83-12.8,7.34-18.24C188.23,63.61,181.39,59.91,176.76,55.93Z"/><path id="Tracé_27" data-name="Tracé 27" class="cls-2" d="M188.68,69.18l2.72,6.61-3.16-.06Z"/><path id="Tracé_28" data-name="Tracé 28" class="cls-3" d="M185.78,69.46c-.06,1.32-.84,2.35-1.73,2.29s-1.55-1.15-1.48-2.47.84-2.34,1.73-2.29,1.55,1.16,1.48,2.47"/><path id="Tracé_29" data-name="Tracé 29" class="cls-3" d="M194.11,69.25c-.06,1.32-.84,2.35-1.72,2.29s-1.58-1.16-1.49-2.48.84-2.34,1.73-2.29,1.55,1.16,1.48,2.48"/><path id="Tracé_30" data-name="Tracé 30" class="cls-4" d="M187.47,78.86s-2.06.66-4.12-1.63"/><path id="Tracé_31" data-name="Tracé 31" class="cls-2" d="M213.53,250.88l-.95,8.27s17.64,4.63,24.27,11.5l-32.88.06L205.2,247Zm37.86-38.47,3.79,7.46s17.33-5.9,26.68-3.81l-27.19,18-12.4-20.32Z"/><path id="Tracé_32" data-name="Tracé 32" class="cls-1" d="M204.8,249.09l8.74,3.47-.08,6.87-8.93-.33Zm38.3-33.69,9.23-1.93,3.74,5.79-7.66,4.67Z"/><path id="Tracé_33" data-name="Tracé 33" class="cls-2" d="M202.88,132.85l-61,18-1.25,11.59c-.79,11.39,10.22,21.18,21.64,21.18h0l40-.27-.93,71.26h20.94l4.53-49.08L240,224.91,257.77,213l-32.34-66.31C218.1,133.67,214.18,130.3,202.88,132.85Z"/><path id="Tracé_34" data-name="Tracé 34" class="cls-2" d="M208,155.11h0l-45.75,28.55,40-.28-.93,71.27h20.94l7.18-77.94c1.8-14.19-7.1-21.6-21.42-21.6"/><path id="Tracé_35" data-name="Tracé 35" class="cls-5" d="M158.91,153.8l-2.53,0v-.13l2.53.17"/><path id="Tracé_36" data-name="Tracé 36" class="cls-3" d="M210.64,181.28l-8.41,1.06-13.5-21.12-.49-7-20.56-.31-8.72-.1h0l-2.53-.17c-11.05-.76-26.37-2.92-27.41-8.87-1.91-10.78,12.51-31.69,14.21-34.12l.16-.23c2.4-3.45,4.85-6.14,7.12-7.56A22.11,22.11,0,0,1,163,99.46l1.06-7.63,16,2.21-.87,6.36c4.71.45,7.92,1.37,10.92,4.12,9.62,8.84,10.34,42,10.34,42Z"/><path id="Tracé_37" data-name="Tracé 37" class="cls-2" d="M201.85,172.64l-30.65-3.53a1.63,1.63,0,0,1-1.44-1.8,1.09,1.09,0,0,1,.05-.26l12.11-42.79a1.64,1.64,0,0,1,1.77-1.2l30.64,3.53a1.63,1.63,0,0,1,1.44,1.8,1.09,1.09,0,0,1-.05.26l-12.11,42.79a1.64,1.64,0,0,1-1.76,1.2"/><path id="Tracé_38" data-name="Tracé 38" class="cls-1" d="M210.49,181.3a73.64,73.64,0,0,1,4.61,5.76,35.85,35.85,0,0,1,1.64,8.06c-.06,1.14-3.48,6.27-3.48,6.27-2.11-.53-.73-3.17-.73-3.17s-1.9,1.61-2.68,1.58c-7.44-.25-7-4-6.87-4.49.4-1.06,2.41.16,2.41.16s-3.82-7.74-2.9-13.16Zm-22.62-28.84s1.32.33,1.34,1.16c0,.24-8,1.76-8,1.76l1.75.1,1.8-.08s.94.17,1,1c0,.3-1.65.64-3.61.89a17.31,17.31,0,0,1-7.33-.53l-.52-.14a20.72,20.72,0,0,1-6-2.22,27.9,27.9,0,0,1-3.86-2.71l2-7.52,2.8-1a20.82,20.82,0,0,1,3.49-.91c1.38-.26,2.73-.16,4.15-.31l-.81,3c-.09.06-.2.29-.28.37l.19.18c.6.52,1.68,1.47,6.41,2.65a33.74,33.74,0,0,0,4.14.28c.93.13,2.9.31,3,1.42,0,.27-.3.57-.3.57s1.23.08,1.31,1.2c.09.41-2.67.86-2.67.86Z"/><path id="Tracé_40" data-name="Tracé 40" class="cls-2" d="M178.55,86s-4.44.13-6.33-.9l6.1,3.83Z"/><path id="Tracé_41" data-name="Tracé 41" class="cls-6" d="M188,154.13c1.2-15,9.33-18.13,3.46-34.92"/><path id="Tracé_42" data-name="Tracé 42" class="cls-7" d="M206.88,185.13s1.05,3.94,4.62,5.17c1.26.43.95,5.5,4,4.9"/><path id="Tracé_43" data-name="Tracé 43" class="cls-6" d="M156,122.18,148.25,135l19.23,7.61"/><path id="Tracé_44" data-name="Tracé 44" class="cls-3" d="M173,169.32l30.65,3.53a1.62,1.62,0,0,0,1.76-1.2l12.11-42.79a1.63,1.63,0,0,0-1.12-2l-.26,0-30.65-3.53a1.62,1.62,0,0,0-1.76,1.2l-6.23,22a25.51,25.51,0,0,0,4.91,1.64,33.57,33.57,0,0,0,4.13.28l.23,0c1,.13,2.68.37,2.81,1.39,0,.27-.31.56-.31.56s1.23.09,1.31,1.2c0,.45-2.73.89-2.73.89s1.32.33,1.34,1.16c0,.24-8,1.76-8,1.76l1.75.1,1.8-.09s1,.18,1,1c0,.32-1.65.65-3.61.9a17.31,17.31,0,0,1-7.33-.53l-.17,0-3,10.6a1.63,1.63,0,0,0,1.13,2h0Z"/><path id="Tracé_45" data-name="Tracé 45" class="cls-2" d="M186.86,127.26c-.24.76-.76,1.27-1.16,1.15s-.51-.85-.27-1.6.76-1.28,1.15-1.15.52.84.28,1.6"/></svg>