<svg id="Calque_1" data-name="Calque 1" xmlns="http://www.w3.org/2000/svg" xmlns:xlink="http://www.w3.org/1999/xlink" viewBox="0 0 300 250"><defs><style>.cls-1,.cls-12,.cls-14,.cls-16,.cls-17,.cls-18,.cls-19,.cls-4,.cls-5{fill:none;}.cls-13,.cls-2{fill:#fff;}.cls-3{clip-path:url(#clip-path);}.cls-14,.cls-16,.cls-18,.cls-19,.cls-4,.cls-5{stroke:#b1f8f0;}.cls-4{stroke-width:3.67px;}.cls-19,.cls-5{stroke-linecap:round;}.cls-5{stroke-width:6.6px;}.cls-6{fill:#19141e;}.cls-10,.cls-13,.cls-15,.cls-20,.cls-6,.cls-7,.cls-8,.cls-9{fill-rule:evenodd;}.cls-7{fill:#405fd3;}.cls-11,.cls-15,.cls-8{fill:#86f1e6;}.cls-20,.cls-9{fill:#dcfdfa;}.cls-10{fill:#b1f8f0;}.cls-12{stroke:#cff7f2;stroke-width:1.71px;}.cls-14,.cls-20{stroke-miterlimit:10;}.cls-14{stroke-width:0.63px;}.cls-15,.cls-16,.cls-17,.cls-18{isolation:isolate;}.cls-16,.cls-17,.cls-18{stroke-width:0.5px;}.cls-16{opacity:0.2;}.cls-17{stroke:#000;opacity:0.15;}.cls-18{opacity:0.2;}.cls-19{stroke-width:0.84px;}.cls-20{stroke:#dcfdfa;stroke-width:0.11px;}</style><clipPath id="clip-path"><rect class="cls-1" x="18.5" y="15" width="263" height="220"/></clipPath></defs><title>scene_research_responsive</title><rect class="cls-2" x="18.5" y="15" width="263" height="220"/><g class="cls-3"><path class="cls-4" d="M52.92,161.58,47.81,156l7.43-9.61,8.94,7.77L61,160.93"/><path class="cls-4" d="M108.82,161.09l-4.63-6,8.3-8.89,8.23,8.57-3.84,6.49"/><path class="cls-5" d="M112.57,120.7,108.9,93.52"/><path class="cls-5" d="M53.56,119.9l3.91-27.18"/><path class="cls-6" d="M97.08,104.67H86.54a2.88,2.88,0,0,1-2.88-2.89V91.2a2.88,2.88,0,0,1,2.88-2.89H97.08A2.87,2.87,0,0,1,100,91.2v10.58a2.82,2.82,0,0,1-2.87,2.89"/><path class="cls-7" d="M94.44,104.67H86.62a2.88,2.88,0,0,1-2.88-2.89V91.2a2.88,2.88,0,0,1,2.88-2.89h7.82a2.88,2.88,0,0,1,2.88,2.89v10.58a2.93,2.93,0,0,1-2.88,2.89"/><path class="cls-8" d="M57.87,101.38h-.24a8.9,8.9,0,1,1,3-17.31,25.48,25.48,0,0,1,44.08-1,8.27,8.27,0,0,1,2.87-.48,8.92,8.92,0,0,1,.72,17.8,25.55,25.55,0,0,1-50.39,1ZM42.46,125.91a6.61,6.61,0,0,1,6.07-7.06l9-.64a6.6,6.6,0,0,1,7,6.09L66.1,145A6.61,6.61,0,0,1,60,152l-9,.64a6.6,6.6,0,0,1-7-6.09Zm59-1.61a6.48,6.48,0,0,1,6.55-6.49l9.1.08a6.47,6.47,0,0,1,6.47,6.57l-.08,20.76a6.47,6.47,0,0,1-6.55,6.5l-9.1-.08a6.48,6.48,0,0,1-6.47-6.58Z"/><path class="cls-9" d="M73.2,72.84H92.77V66.35H73.2Z"/><path class="cls-10" d="M94.44,104.67a2.88,2.88,0,0,0,2.88-2.89V91.2a2.88,2.88,0,0,0-2.88-2.89h2.72A2.87,2.87,0,0,1,100,91.2v10.58a2.87,2.87,0,0,1-2.87,2.89Z"/><path class="cls-11" d="M47.41,125.43l1.12-.08h0Zm-1.2-1-.08-1.12h0Zm2.88,21.65-1.12.08h0Zm-1,1.2L48,146.19Zm-1.2-1-1.11.08h0Zm-1.59-20.76-1.12.08h0Zm6.22-.48L52.6,125h0Zm-1.19-1-.08-1.12h0Zm2.79,21.72-1.12.09h0ZM52,147,52,145.87Zm-1.11-1-1.12.08h0Zm-1.68-20.68-1.12.08h0Zm-.72.08a2.19,2.19,0,0,0-2.4-2l.16,2.17h0ZM50.13,146l-1.6-20.68-2.16.16L48,146.19Zm-2,2.4a2.19,2.19,0,0,0,2-2.4l-2.16.16h0Zm-2.39-2a2.18,2.18,0,0,0,2.39,2L48,146.27h0Zm-1.6-20.76,1.6,20.68,2.15-.16-1.6-20.68Zm2-2.33a2.19,2.19,0,0,0-2,2.41l2.15-.16h0ZM52.52,125a2.18,2.18,0,0,0-2.39-2l.16,2.17h0ZM54.2,145.7,52.6,125l-2.15.17L52,145.87Zm-2.08,2.41a2.19,2.19,0,0,0,2-2.41l-2.16.17h0ZM49.81,146a2.18,2.18,0,0,0,2.39,2L52,145.87h0Zm-1.68-20.68L49.73,146l2.15-.16-1.59-20.68ZM50.21,123a2.19,2.19,0,0,0-2,2.41l2.16-.16h0Z"/><path class="cls-10" d="M94.44,104.67H86.62a2.88,2.88,0,0,1-2.88-2.89V91.2a2.88,2.88,0,0,1,2.88-2.89h7.82a2.88,2.88,0,0,1,2.88,2.89v10.58A2.93,2.93,0,0,1,94.44,104.67ZM88,95.77a2.09,2.09,0,1,0-2.08-2.09A2.07,2.07,0,0,0,88,95.77Zm5.83,0a2.09,2.09,0,1,0-2.08-2.09A2.12,2.12,0,0,0,93.81,95.77ZM88,101.7a2.09,2.09,0,1,0-2.08-2.08A2,2,0,0,0,88,101.7Z"/><path class="cls-8" d="M48.53,92.4a8.87,8.87,0,1,0,8.86-8.9,8.91,8.91,0,0,0-8.86,8.9"/><path class="cls-8" d="M101.63,124.38l-.08,20.76a6.53,6.53,0,0,0,6.47,6.58l9,.08a6.52,6.52,0,0,0,6.55-6.5l.08-20.76A6.52,6.52,0,0,0,117.2,118l-9.1-.08a6.41,6.41,0,0,0-6.47,6.49"/><path class="cls-8" d="M104.67,83.1a8.27,8.27,0,0,1,2.87-.48,8.92,8.92,0,0,1,.72,17.8,28.9,28.9,0,0,0,.24-3.77,25.34,25.34,0,0,0-3.83-13.55Z"/><path class="cls-10" d="M147.71,237.64H16.59c.64-16.27,10.14-23.24,24.75-23.64,9.59-27.26,30.67.56,32.18-21,1.76-25.41,2.32-55.31,2.32-55.31l12.46.24s1,16,3.19,48.65c1.52,23.09,17.09,1.69,37.53,15.71,10.3,7.06,9.82,24.21,9.82,24.21s8.87.4,8.87,11.14"/><path class="cls-9" d="M61.63,237.64H29.45a16.44,16.44,0,0,1,14.37-13.22,18.09,18.09,0,0,1,4.15.08,19.68,19.68,0,0,1,2.32.56,16.74,16.74,0,0,1,11.34,12.58"/><path class="cls-9" d="M133.09,237.64h-17.4a9.45,9.45,0,0,1,6-7,6.94,6.94,0,0,1,2.24-.4h1.28a9.41,9.41,0,0,1,7.9,7.45"/><path class="cls-9" d="M104.83,237.64H55.08a24.06,24.06,0,0,1,.16-6.33A21.07,21.07,0,0,1,56,228.1a25.06,25.06,0,0,1,27.78-17.79,25.68,25.68,0,0,1,8.23,2.8,25.15,25.15,0,0,1,12.86,24.53"/><path class="cls-9" d="M65.3,190.27a4.92,4.92,0,1,1-4.15-5.61,5,5,0,0,1,4.15,5.61"/><path class="cls-9" d="M101,191.23a2,2,0,1,1-1.67-2.32,2.07,2.07,0,0,1,1.67,2.32"/><path class="cls-9" d="M151.76,205.85a4.69,4.69,0,1,1-3.92-5.37,4.7,4.7,0,0,1,3.92,5.37"/><path class="cls-9" d="M90.77,141.22H74.32l-6.23-13.15H97Zm6.63-13.15H67.69a3.13,3.13,0,0,1,0-6.25H97.4a3.07,3.07,0,0,1,3.11,3.12A3.17,3.17,0,0,1,97.4,128.07Z"/><path class="cls-8" d="M90.69,141.22H74.24L68,128.07H96.92Z"/><path class="cls-12" d="M98.36,51.52V34.45"/><path class="cls-8" d="M99.87,58.82h-7V48.32h7a5.32,5.32,0,0,1,5.27,5.29,5.26,5.26,0,0,1-5.27,5.21"/><path class="cls-10" d="M94.6,31.08a3.8,3.8,0,0,1,3.76-3.28,3.85,3.85,0,0,1,0,7.69,3.69,3.69,0,0,1-3.44-2.24l-2.63-2L88.7,34.05l-3.6-2.81-3.59,2.81-3.59-2.81-3.6,2.81-2-1.52a3.84,3.84,0,1,1-.08-1.93l2.07,1.61,3.6-2.81,3.59,2.81L85.1,29.4l3.6,2.81,3.59-2.81ZM97,66.59H69.61a3.93,3.93,0,0,1-3.91-3.93V44.47a3.93,3.93,0,0,1,3.91-3.93H97a3.93,3.93,0,0,1,3.91,3.93V62.66A3.92,3.92,0,0,1,97,66.59Z"/><path class="cls-11" d="M77.76,31.16,74.16,34l-2-1.52-.08-1.93,2.07,1.61,3.6-2.81,3.59,2.81,3.59-2.81,3.6,2.81,3.59-2.81,2.31,1.84.4,2.09-2.71-2.09L88.54,34l-3.6-2.81L81.35,34Z"/><path class="cls-8" d="M64.34,58.82h7V48.32h-7a5.33,5.33,0,0,0-5.27,5.29,5.26,5.26,0,0,0,5.27,5.21"/><path class="cls-8" d="M93.49,54c0,4.25-2.72,7.69-6.15,7.69S81.19,58.26,81.19,54s2.71-7.7,6.15-7.7,6.15,3.37,6.15,7.7"/><path class="cls-13" d="M90.61,54c0,4.25-2.71,7.69-6.15,7.69S78.31,58.26,78.31,54s2.72-7.7,6.15-7.7,6.15,3.37,6.15,7.7"/><path class="cls-8" d="M87.58,53.45a2.21,2.21,0,1,1-4.31,0c0-1.53,1-2.73,2.15-2.73a2.48,2.48,0,0,1,2.16,2.73"/><path class="cls-12" d="M68.41,51.52V35.25"/><path class="cls-9" d="M215.77,232.36l-.82.13L212,187.3l9.35,4.38-3.54,39.85c.57.39,4.05,2.8,2.15,2.73a5.79,5.79,0,0,1-4.23-1.9Zm-16.5-21c.94-9.71,1.83-18.53,1.83-18.53l8,.38-8.79,39.22h-1a14.35,14.35,0,0,1-7.46,1.72l4.81-2.1C197,230.2,198.19,222.14,199.27,211.35Z"/><path class="cls-8" d="M205.27,113.49A9.29,9.29,0,0,1,216.59,107c4.8,1.2,7.33,5.84,6.07,10.92a9,9,0,1,1-17.39-4.38"/><path class="cls-8" d="M221.46,113.74c6.45-.57,4.87,6.28,3.67,10-1.27,4.13.56,6.54.56,6.54l7.91-3.93c-3.48-3.49-.38-6-1.77-10.54a7.32,7.32,0,0,0-11-3.87,1,1,0,0,0,.63,1.84"/><path class="cls-9" d="M207,123.2c-2.28-2.48-.89-8.76-.76-9.08l2.91-2s4.36-.5,4.74.32c.63,1.46.95,7.36,2.72,7.11,0,0,.25-1.78,1.64-1.4a1.35,1.35,0,0,1,1,1.72c-.38,1.46-2,1.39-3.17,2-.25,1.77-.88,6.28-.88,6.28l-5.06.76.7-4.12A8.08,8.08,0,0,1,207,123.2"/><path class="cls-8" d="M208.05,120l-1.2-.25,1.65-2.22Z"/><path class="cls-8" d="M209.57,117.87c.13-.51.44-.89.76-.83s.51.51.44,1-.44.88-.76.82-.56-.51-.44-1"/><path class="cls-8" d="M206.41,117c.13-.51.44-.89.76-.82s.5.5.44,1-.44.89-.76.76-.5-.44-.44-.95"/><path class="cls-14" d="M209.7,121a1.56,1.56,0,0,1-1.71.25"/><path class="cls-15" d="M210.65,126.05l2.85-1a6.76,6.76,0,0,1-2.66-.26Z"/><path class="cls-8" d="M216.27,111l-7.33-.51c1.39,8.06,7.65,9.14,7.65,9.14"/><path class="cls-8" d="M206,113.23l-.51,3.3c3.48-1.77,4.74-6.92,4.74-6.92"/><path class="cls-8" d="M222.91,236.29h-8.53l.38-4.5,3.6.19C218.36,231.92,221.08,232.61,222.91,236.29Zm-22.51-4.44.32,4.51H188.58c2.53-2.67,9.29-4.38,9.29-4.38Z"/><path class="cls-8" d="M205.59,151.38,198.38,194h28s-.82-26.4-3.73-35.1c-2.15-6.53-4.68-7.67-4.68-7.67Z"/><path class="cls-10" d="M200.21,151.88s.32-15.17,4.68-19.16c1.39-1.27,2.85-1.65,5-1.91l-.38-2.92,7.33-1,.51,3.49a10.11,10.11,0,0,1,5.69,1.52,13.16,13.16,0,0,1,3.22,3.43.2.2,0,0,0,.07.13c.76,1.07,7.33,10.66,6.45,15.61-.51,2.73-7.46,3.68-12.46,4.06-.38,0-.76.06-1.14.06h0l-4,.07-9.36.12-.25,3.24-6.13,9.65-3.8-.51Z"/><path class="cls-16" d="M204.32,139.44c-2.65,7.68,1,9.14,1.58,15.93"/><path class="cls-17" d="M193.39,174.16c1.39.25,1.26-2,1.83-2.22a3.59,3.59,0,0,0,2.09-2.35"/><path class="cls-18" d="M215.2,150.11l8.79-3.49-3.54-5.84"/><path class="cls-19" d="M199.58,137.1a7.86,7.86,0,0,1,4.62,4.12"/><path class="cls-8" d="M204.64,150.55l-8.47,2.54a3.51,3.51,0,0,1-4.36-2.35l-.7-2.28a3.54,3.54,0,0,1,2.34-4.38l21.37-6.48a3.52,3.52,0,0,1,4.36,2.35l.7,2.29a3.54,3.54,0,0,1-2.34,4.38l-8,2.41,2,6.72-4.87,1.46Zm-2.91-14.15a1.78,1.78,0,1,1-3.41,1,1.76,1.76,0,0,1,1.2-2.22A1.78,1.78,0,0,1,201.73,136.4Z"/><path class="cls-9" d="M195.35,153.15h0A3.52,3.52,0,0,1,191,150.8l-.69-2.28a3.5,3.5,0,1,1,6.7-2l.7,2.28a3.6,3.6,0,0,1-2.34,4.38"/><path class="cls-10" d="M199.2,147.06A2.68,2.68,0,1,0,201,143.7a2.74,2.74,0,0,0-1.77,3.36"/><path class="cls-9" d="M200.72,145.35a1.22,1.22,0,1,0,.82-1.53,1.24,1.24,0,0,0-.82,1.53"/><path class="cls-10" d="M211.72,143.25a2.68,2.68,0,1,0,1.77-3.36,2.72,2.72,0,0,0-1.77,3.36"/><path class="cls-9" d="M212.54,141.6a1.22,1.22,0,1,0,.83-1.52,1.19,1.19,0,0,0-.83,1.52"/><path class="cls-9" d="M206.92,142.81l2.84,1.08L208,146.36"/><path class="cls-9" d="M199.33,168.26c.44,2.47-1.33,6-1.33,6s.89-.57,1.08-.07c.06.19.25,2-3.1,2-.38,0-1.2-.69-1.2-.69s.63,1.2-.32,1.46a14.33,14.33,0,0,1-1.58-2.86,19.27,19.27,0,0,1,.76-3.68,22,22,0,0,1,2.09-2.6Zm5.37-14a.67.67,0,0,1,.57-.57.46.46,0,0,1-.12-.25c.06-.51.94-.57,1.39-.64a12.62,12.62,0,0,0,1.89-.12c2.15-.58,2.66-1,2.91-1.21l.07-.06c-.07-.07-.07-.13-.13-.19l-.38-1.34c.63.07,1.26,0,1.9.13a8,8,0,0,1,1.58.44l1.26.45,1,3.43a14.26,14.26,0,0,1-1.77,1.26,8.49,8.49,0,0,1-2.72,1c-.06,0-.13.06-.25.06a7.83,7.83,0,0,1-3.35.26,4.33,4.33,0,0,1-1.65-.38c0-.38.45-.45.45-.45l.82.07.82-.07s-3.67-.7-3.67-.82c0-.38.63-.51.63-.51S204.7,154.42,204.7,154.23Z"/><path class="cls-10" d="M211,149.79a3.25,3.25,0,0,1-1-.19c-.57-.19-.95,0-.38.44s1.65.89,1.77,1.08"/><path class="cls-8" d="M278,214.2v-2.13h7.57a2.06,2.06,0,0,0,2.06-2.07v-6.61a2.06,2.06,0,0,0-2.06-2.07h-7.34v-1.9a1.18,1.18,0,0,0-1.2-1.21H252.48a1.18,1.18,0,0,0-1.21,1.21v3.85a1.21,1.21,0,1,0,2.41,0v-2.58H259a3.26,3.26,0,0,1,1.72,2.58c0,2.36-3.73,4.26-8.31,4.26s-8.31-1.9-8.31-4.26c0-2.12,3.1-3.91,7.17-4.19a1.22,1.22,0,0,1,1.14-.87h13.75c-3.09-2.18-8.08-3.62-13.75-3.62-9.34,0-17,3.91-17,8.68v7.08c0,4.77,7.57,8.68,17,8.68,5.67,0,10.66-1.44,13.75-3.62h10.65A1.16,1.16,0,0,0,278,214.2Zm-3.83-2.13h1.43V213h-7.05a4.86,4.86,0,0,0,.8-2.64h0v-7h0a4.73,4.73,0,0,0-.8-2.59h7.22v.69h-1.66a2.05,2.05,0,0,0-2.06,2.07v6.62A2.12,2.12,0,0,0,274.19,212.07Z"/><path class="cls-10" d="M251.27,199.08a.7.7,0,0,0-.06.35v3.93a1.23,1.23,0,1,0,2.45,0v-2.7h5.44a3.42,3.42,0,0,1,1.81,2.7c0,2.41-3.8,4.34-8.47,4.34s-8.48-1.93-8.48-4.34c.06-2.17,3.21-4,7.31-4.28Z"/><path class="cls-10" d="M279.86,201.32v10.75h3.66V201.32Z"/><path class="cls-20" d="M268.57,213.11c0-.06.06-.06.06-.12h6.93v-1H278v2.19a1.18,1.18,0,0,1-1.21,1.21c-4.64,0-8.13.05-10.48.05a.4.4,0,0,0,.23-.23l.17-.17.06-.06c-3,2.42-8.31,4.09-14.32,4.09-9.34,0-17-3.91-17-8.69v-6.72c.35,4.65,7.79,8.33,17,8.33,9.34,0,16.9-3.85,17-8.62v7h0a5.12,5.12,0,0,1-.8,2.71Zm-1.14,1.38a1.24,1.24,0,0,1-.23.17c.06,0,.11-.06.23-.17Zm-13.75-13.8v2.64a1.21,1.21,0,1,1-2.41,0v-3.85a1.18,1.18,0,0,1,1.21-1.21h24.57a1.18,1.18,0,0,1,1.2,1.21v3.85a1.2,1.2,0,1,1-2.4,0v-2.64Z"/></g></svg>