<?xml version="1.0" encoding="utf-8"?>
<!-- Generator: Adobe Illustrator 23.0.4, SVG Export Plug-In . SVG Version: 6.00 Build 0)  -->
<svg version="1.1" id="Calque_1" xmlns="http://www.w3.org/2000/svg" xmlns:xlink="http://www.w3.org/1999/xlink" x="0px" y="0px"
	 viewBox="0 0 300 250" style="enable-background:new 0 0 300 250;" xml:space="preserve">
<style type="text/css">
	.st0{fill:#FAF8F8;}
	.st1{clip-path:url(#SVGID_2_);}
	.st2{fill-rule:evenodd;clip-rule:evenodd;fill:#86F1E6;}
	.st3{fill:#B1F8F0;stroke:#DCFDFA;stroke-width:0.6;}
	.st4{fill-rule:evenodd;clip-rule:evenodd;fill:#DCFDFA;}
	.st5{fill:#86F1E6;}
	.st6{fill:#DCFDFA;}
	.st7{fill-rule:evenodd;clip-rule:evenodd;fill:#B1F8F0;}
	.st8{fill:none;stroke:#86F1E6;stroke-width:0.79;}
	.st9{opacity:0.65;fill-rule:evenodd;clip-rule:evenodd;fill:#86F1E6;enable-background:new    ;}
	.st10{opacity:0.2;fill:none;stroke:#86F1E6;stroke-width:1.01;enable-background:new    ;}
	.st11{fill-rule:evenodd;clip-rule:evenodd;fill:#CF3E83;}
	.st12{fill:none;stroke:#86F1E6;stroke-width:0.64;}
	.st13{fill:none;stroke:#86F1E6;stroke-width:0.64;stroke-miterlimit:10;}
	.st14{fill:none;stroke:#B1F8F0;stroke-width:3.32;}
	.st15{fill:none;stroke:#B1F8F0;stroke-width:3.32;stroke-linejoin:round;}
	.st16{fill:none;stroke:#86F1E6;stroke-width:1.16;}
	.st17{opacity:0.2;fill:none;stroke:#86F1E6;stroke-width:0.93;enable-background:new    ;}
	.st18{fill-rule:evenodd;clip-rule:evenodd;fill:#C83820;}
	.st19{opacity:0.15;fill:none;stroke:#86F1E6;stroke-width:0.6;enable-background:new    ;}
	.st20{fill:none;stroke:#CFF7F2;stroke-width:0.64;}
	.st21{fill:none;stroke:#86F1E6;stroke-width:0.73;}
	.st22{opacity:0.2;fill:none;stroke:#CFF7F2;stroke-width:0.64;enable-background:new    ;}
	.st23{opacity:0.15;fill:none;stroke:#86F1E6;stroke-width:0.64;enable-background:new    ;}
	.st24{opacity:0.48;}
	.st25{fill-rule:evenodd;clip-rule:evenodd;fill:#FFFFFF;}
	.st26{fill:#FFFFFF;}
</style>
<title>scene_teaching_responsive</title>
<rect x="18.5" y="15" class="st0" width="263.4" height="220"/>
<g>
	<defs>
		<rect id="SVGID_1_" x="18.5" y="15" width="263" height="220"/>
	</defs>
	<clipPath id="SVGID_2_">
		<use xlink:href="#SVGID_1_"  style="overflow:visible;"/>
	</clipPath>
	<g class="st1">
		<path class="st2" d="M258.8,47.2h-77.2v65.5h77.1L258.8,47.2L258.8,47.2z"/>
		<path class="st3" d="M264.1,47.2h-82.6v65.5h82.5L264.1,47.2L264.1,47.2z"/>
		<path class="st4" d="M256.9,51.8h-72.2v56h72.2C256.9,107.8,256.9,51.8,256.9,51.8z"/>
		<path class="st5" d="M188.3,72.2v-0.2l2-1.2l0.2,0.4l-1.6,1l1.6,1l-0.2,0.4L188.3,72.2z"/>
		<path class="st5" d="M190.7,70.4h0.9v1.1l0,0c0.1-0.1,0.2-0.2,0.3-0.2c0.1-0.1,0.3-0.1,0.4-0.1c0.1,0,0.2,0,0.3,0.1
			c0.1,0,0.2,0,0.2,0.1c0.1,0.1,0.1,0.2,0.2,0.3c0.1,0.1,0.1,0.3,0.1,0.4v1.4h-0.6v-1.3c0-0.1,0-0.3-0.1-0.3
			c-0.1-0.1-0.2-0.1-0.3-0.1c-0.1,0-0.2,0.1-0.3,0.1s-0.2,0.1-0.2,0.2v1.4H191v-2.6h-0.3L190.7,70.4z"/>
		<path class="st5" d="M193.8,73h0.7v-1.9l-0.6,0.4l-0.2-0.4l1-0.7h0.4V73h0.7v0.5h-1.9L193.8,73z"/>
		<path class="st5" d="M196.4,73.4l-0.2-0.4l1.6-1l-1.6-1l0.2-0.4l2,1.2V72L196.4,73.4z"/>
		<path class="st5" d="M200.4,72.2h-1v1.2h-0.6v-3h0.6v1.2h1v-1.2h0.6v3h-0.6V72.2z"/>
		<path class="st5" d="M203.5,73.2l-0.1,0.1c-0.1,0.1-0.1,0.1-0.2,0.1s-0.2,0.1-0.2,0.1h-0.3c-0.2,0-0.3,0-0.5-0.1
			c-0.1-0.1-0.3-0.1-0.4-0.2c-0.1-0.1-0.2-0.2-0.2-0.4c-0.1-0.2-0.1-0.3-0.1-0.5c0-0.2,0-0.3,0.1-0.5c0.1-0.3,0.3-0.5,0.6-0.6
			c0.2-0.1,0.3-0.1,0.5-0.1c0.1,0,0.2,0,0.4,0.1c0.1,0.1,0.2,0.1,0.3,0.2c0.1,0.1,0.2,0.2,0.2,0.3c0.1,0.1,0.1,0.3,0.1,0.5
			c0,0.1,0,0.3-0.1,0.4h-1.6c0,0.1,0,0.2,0.1,0.2s0.1,0.1,0.1,0.2c0,0,0.1,0.1,0.2,0.1h0.2c0.1,0,0.3,0,0.4-0.1
			c0.1-0.1,0.2-0.1,0.3-0.1L203.5,73.2z M202.6,71.7c-0.1,0-0.2,0-0.2,0.1c-0.1,0-0.1,0.1-0.2,0.1l-0.1,0.1c0,0.1,0,0.1-0.1,0.2h1.1
			c0-0.1-0.1-0.3-0.1-0.4C202.9,71.7,202.8,71.7,202.6,71.7z"/>
		<path class="st5" d="M204.2,70.4h1v2c0,0.2,0,0.3,0.1,0.5c0.1,0.1,0.1,0.1,0.2,0.1h0.2c0.1,0,0.1-0.1,0.2-0.1l0.2,0.4
			c0,0-0.1,0.1-0.1,0.1c-0.1,0-0.1,0-0.2,0.1c-0.1,0-0.1,0-0.2,0h-0.2c-0.3,0-0.5,0-0.6-0.2c-0.1-0.2-0.2-0.4-0.2-0.6v-1.8h-0.4
			L204.2,70.4z"/>
		<path class="st5" d="M206.8,70.4h1v2c0,0.2,0,0.3,0.1,0.5c0.1,0.1,0.1,0.1,0.2,0.1h0.2c0.1,0,0.1-0.1,0.2-0.1l0.2,0.4
			c0,0-0.1,0.1-0.1,0.1c-0.1,0-0.1,0.1-0.2,0.1s-0.1,0-0.2,0H208c-0.3,0-0.5,0-0.6-0.2c-0.1-0.2-0.2-0.4-0.2-0.6v-1.8h-0.4
			L206.8,70.4L206.8,70.4z"/>
		<path class="st5" d="M209.2,72.3c0-0.2,0-0.3,0.1-0.5c0.1-0.1,0.1-0.3,0.2-0.4c0.1-0.1,0.2-0.2,0.4-0.2c0.3-0.1,0.7-0.1,1,0
			c0.1,0.1,0.3,0.1,0.4,0.2c0.1,0.1,0.2,0.2,0.2,0.4c0.1,0.2,0.1,0.3,0.1,0.5c0,0.2,0,0.3-0.1,0.5c-0.1,0.1-0.1,0.3-0.2,0.4
			c-0.1,0.1-0.2,0.2-0.4,0.2c-0.3,0.1-0.7,0.1-1,0c-0.1-0.1-0.2-0.1-0.4-0.2c-0.1-0.1-0.2-0.2-0.2-0.4
			C209.2,72.7,209.2,72.5,209.2,72.3z M209.7,72.3c0,0.1,0,0.2,0.1,0.2c0,0.1,0.1,0.2,0.1,0.2c0.1,0.1,0.1,0.1,0.2,0.1
			s0.1,0.1,0.2,0.1c0.2,0,0.3-0.1,0.4-0.2c0.1-0.1,0.2-0.3,0.2-0.5c0-0.2,0-0.3-0.1-0.5c-0.1-0.1-0.3-0.2-0.4-0.2
			c-0.1,0-0.2,0-0.2,0.1c-0.1,0.1-0.1,0.1-0.2,0.1c-0.1,0.1-0.1,0.1-0.1,0.2C209.8,72.2,209.7,72.2,209.7,72.3z"/>
		<path class="st5" d="M215,72.1v0.3l0,0V72.1l0.3-0.8h0.4l0.2,0.8l0.1,0.3l0,0v-0.3l0.1-1.7h0.5l-0.3,3h-0.5l-0.3-1l-0.1-0.4l0,0
			l-0.1,0.4l-0.4,1h-0.5l-0.3-3h0.6L215,72.1z"/>
		<path class="st5" d="M217,72.3c0-0.2,0-0.3,0.1-0.5c0.1-0.3,0.3-0.5,0.6-0.6c0.2-0.1,0.3-0.1,0.5-0.1c0.2,0,0.3,0,0.5,0.1
			c0.3,0.1,0.5,0.3,0.6,0.6c0.1,0.2,0.1,0.3,0.1,0.5c0,0.2,0,0.3-0.1,0.5c-0.1,0.3-0.3,0.5-0.6,0.6c-0.2,0.1-0.3,0.1-0.5,0.1
			c-0.2,0-0.3,0-0.5-0.1c-0.3-0.1-0.5-0.3-0.6-0.6C217,72.7,217,72.5,217,72.3z M217.6,72.3c0,0.1,0,0.2,0.1,0.2s0.1,0.2,0.1,0.2
			s0.1,0.1,0.2,0.1s0.2,0.1,0.2,0.1c0.2,0,0.3-0.1,0.4-0.2c0.1-0.1,0.2-0.3,0.2-0.5c0-0.2,0-0.3-0.1-0.5c-0.1-0.1-0.3-0.2-0.4-0.2
			c-0.1,0-0.2,0-0.2,0.1c0,0-0.1,0.1-0.2,0.1C217.7,72,217.7,72.2,217.6,72.3L217.6,72.3z"/>
		<path class="st5" d="M219.6,73h0.5v-1.2h-0.5v-0.5h1l0.1,0.3l0,0c0.1-0.1,0.2-0.2,0.3-0.2c0.1-0.1,0.2-0.1,0.4-0.1
			c0.2,0,0.3,0.1,0.4,0.2c0.1,0.2,0.2,0.4,0.2,0.7h-0.5c0-0.1,0-0.2-0.1-0.2s-0.1-0.1-0.1-0.1c-0.1,0-0.2,0-0.3,0.1l-0.2,0.2v1h1
			v0.5h-2V73H219.6z"/>
		<path class="st5" d="M222.5,70.4h1v2c0,0.2,0,0.3,0.1,0.5c0.1,0.1,0.1,0.1,0.2,0.1h0.2c0.1,0,0.1-0.1,0.2-0.1l0.2,0.4
			c0,0-0.1,0.1-0.1,0.1c-0.1,0-0.1,0.1-0.2,0.1s-0.1,0-0.2,0h-0.2c-0.3,0-0.5,0-0.6-0.2c-0.1-0.2-0.2-0.4-0.2-0.6v-1.8h-0.4
			L222.5,70.4L222.5,70.4z"/>
		<path class="st5" d="M226,70.4h0.9v1.9c0,0.2,0,0.4,0.1,0.7v0.1h0.3v0.5h-0.7l-0.1-0.3l0,0c0,0.1-0.1,0.1-0.1,0.1
			c-0.1,0.1-0.1,0.1-0.2,0.1c0,0-0.1,0.1-0.2,0.1h-0.2c-0.1,0-0.2,0-0.4-0.1c-0.1,0-0.2-0.1-0.3-0.2c-0.1-0.1-0.2-0.2-0.2-0.4
			c0-0.2-0.1-0.3-0.1-0.5c0-0.2,0-0.3,0.1-0.5c0-0.1,0.1-0.3,0.2-0.4c0.1-0.1,0.2-0.2,0.4-0.2c0.2-0.1,0.3-0.1,0.5-0.1h0.2
			c0.1,0,0.1,0,0.2,0.1V71H226V70.4z M225.9,73.1c0.1,0,0.2,0,0.3-0.1c0.1-0.1,0.1-0.2,0.2-0.2v-0.9c0,0-0.1-0.1-0.2-0.1h-0.2
			c-0.1,0-0.2,0-0.2,0.1c-0.1,0.1-0.1,0.1-0.2,0.1c-0.1,0.1-0.1,0.1-0.1,0.2c-0.1,0.1-0.1,0.2-0.1,0.4c0,0.2,0,0.3,0.1,0.5
			C225.6,73,225.7,73.1,225.9,73.1z"/>
		<path class="st5" d="M227.4,72.2v-0.2l2-1.2l0.2,0.4l-1.6,1l1.6,1l-0.2,0.4L227.4,72.2z"/>
		<path class="st5" d="M231.8,70.4l0.4,0.2l-1.6,3.5l-0.4-0.2L231.8,70.4z"/>
		<path class="st5" d="M232.5,70.4h0.9v1.1l0,0c0.1-0.1,0.2-0.2,0.3-0.2c0.1-0.1,0.3-0.1,0.4-0.1c0.1,0,0.2,0,0.3,0.1
			c0.1,0.1,0.2,0.1,0.2,0.1c0.1,0.1,0.1,0.2,0.2,0.3c0.1,0.1,0.1,0.3,0.1,0.4v1.4h-0.5v-1.3c0-0.1,0-0.3-0.1-0.3
			c-0.1-0.1-0.2-0.1-0.3-0.1c-0.1,0-0.2,0.1-0.3,0.1s-0.2,0.1-0.2,0.2v1.4h-0.5v-2.6h-0.3v-0.5H232.5z"/>
		<path class="st5" d="M235.6,73h0.6v-1.9l-0.6,0.4l-0.2-0.4l1-0.8h0.4V73h0.6v0.5h-1.8L235.6,73L235.6,73z"/>
		<path class="st5" d="M238.1,73.4l-0.2-0.4l1.6-1l-1.6-1l0.2-0.4l2,1.2V72L238.1,73.4z"/>
		<rect x="258.7" y="46.9" class="st6" width="5.5" height="65.4"/>
		<path class="st7" d="M263.6,104l-0.8-7.6c0,0,8.4-3.1,6-7.7c-1.1-2.1-5-0.3-5.5,1.2l-1.1-8.6L247.3,83c-1.9,5.4-0.4,15-0.4,15
			c1.5,0.8,8.6,0.2,8.6,0.2l-0.2,5.8"/>
		<path class="st2" d="M255.5,99.9l4-2.7l-4,0.9L255.5,99.9z"/>
		<path class="st2" d="M251.9,92.7h-2l1.7-4L251.9,92.7z"/>
		<path class="st2" d="M253.5,89.8c0.1-0.5,0.6-0.9,1.1-0.8c0.5,0.1,0.9,0.6,0.8,1.1s-0.6,0.9-1.1,0.8c0,0,0,0-0.1,0
			C253.7,90.8,253.4,90.3,253.5,89.8"/>
		<path class="st2" d="M248.3,89.8c0.1-0.5,0.6-0.9,1.1-0.8c0.5,0.2,0.7,0.8,0.5,1.3c-0.2,0.3-0.5,0.6-0.9,0.6
			C248.5,90.8,248.2,90.3,248.3,89.8"/>
		<path class="st2" d="M251.6,94.9c0.8,0.1,1.6-0.3,2-1L251.6,94.9z"/>
		<path class="st8" d="M251.6,94.9c0.8,0.1,1.6-0.3,2-1"/>
		<path class="st7" d="M238.3,235.4H258l-0.8-12.6l-5.7,2.9l0.1,4.4C251.6,230.1,241.7,231.6,238.3,235.4z M268.5,235.4H282
			l-1.4-5.4l-0.9-0.9l-5.4-3.8l0.1,4.9C271.6,230.8,269.4,232.8,268.5,235.4z"/>
		<path class="st4" d="M274.4,230.3l-0.6-4.9l5.7-1.7l1.2,6.4L274.4,230.3z M251.5,230.1l-0.1-4.4l5.7-1.7l0.5,5.8L251.5,230.1z"/>
		<path class="st2" d="M263.2,139.7h7l11.2,83.6h1l0.5,5.1h-15l-0.5-5.1h0.9l-6.5-31.2l-0.9,31.4h0.8v4.9h-15v-4.9h0.8l-1.4-83.7
			H263.2L263.2,139.7z"/>
		<path class="st7" d="M261.5,206.5l-5.7-52.2l6.3,40.4L261.5,206.5z"/>
		<path class="st7" d="M220.6,110.4c-0.7-0.3-1.4-0.7-2-1.2c-1.7-1.4-2.3-2.6-3.6-3.8c-1.6-1.6-3.6-2.8-4.2-3.6
			c-0.2-0.2-0.2-0.6,0.1-0.8l0.1-0.1c0.2-0.2,0.5-0.2,0.7,0l4.4,3.1l0.1-0.2l-5.1-4.8c-0.2-0.2-0.2-0.6,0.1-0.8l0.2-0.2
			c0.2-0.2,0.5-0.2,0.7,0c0,0,0,0,0,0l5.4,4.8l0.2-0.2c0.1-0.1-4.2-4.8-5.4-6.3c-0.2-0.2-0.1-0.6,0.1-0.8l0.4-0.2
			c0.2-0.2,0.5-0.1,0.7,0.1l5.8,6.1l0.1-0.2c0.1,0-2.9-4.2-3.9-5.6c-0.2-0.2-0.1-0.6,0.1-0.7c0,0,0,0,0.1,0l0.2-0.1
			c0.2-0.1,0.6,0,0.7,0.2l5,6.4c0.2,0.2,0.5,0.4,0.7,0.5c0.5-0.7,0.3-2.6,0.7-3.6c0.5-1.1,2.8-2.7,1.8-0.4s0,3.9,0.1,5.2
			c0.1,0.8,0.2,1.7,0.2,2.6l-0.1,1.7L220.6,110.4z M257.6,107.8c-5.6,0.3-4-3.3-4-3.3c1.8-0.6,3.7-0.9,5.5-1h5.9
			C265,103.5,263.2,107.5,257.6,107.8L257.6,107.8z M271.8,149.8l-4.5-3.6l10.8-15.2l-3.9-8.5l9.6-4.3c0,0,5.5,8.3,5.4,12.9
			C289,136.5,271.8,149.8,271.8,149.8L271.8,149.8z"/>
		<path class="st4" d="M245.1,139.6c-1.5,0.1-3.2-0.7-2.8-2.6l2.1-11.1c-1.8,1.8-7,6.4-12.1,4.9c-6.4-1.9-15.2-18.3-15.2-18.3
			l9.9-6.7l7.7,10.1L246,108c1.5-1.8,3.5-2.3,7.6-3.5c0,0,0.1-0.1-0.1,0.4c0,0.1,0,0.2-0.1,0.4c-0.1,0.2-0.1,0.1-0.1,0.5
			s0,0.2,0.2,0.7c0.2,0.3,0.4,0.6,0.7,0.8c0.5,0.3,1.2,0.6,1.8,0.7c1,0.1,2.1,0,3.1-0.2c1.5-0.3,2.9-0.9,4-1.9c0.5-0.5,1-1,1.4-1.6
			c0.2-0.4-0.2-0.7,0.5-0.6c2.3,0.2,4.6,0.7,6.9,1.4c6.9,3.2,12.8,12.7,12.8,12.7s4.7,7.8,4.4,13.2c-0.5,8.5-15.2,19.4-15.2,19.4
			l-7.9-7.2l2.7-3.6L245.1,139.6z"/>
		<path class="st9" d="M242.3,127.9l3.6-7.3l-1.4,5.4L242.3,127.9z"/>
		<path class="st10" d="M268.2,117.8l7.6,11.6l-6.3,8.9"/>
		<path class="st2" d="M260.7,89.9l2.1,0.5c0.9-1.3,2.2-2.2,3.8-2.6c0.6-2.7,1.4-10-7.3-11.1c-10.3-1.4-11.9,6.3-11.9,6.3l13.3-0.2
			L260.7,89.9L260.7,89.9z"/>
		<path class="st2" d="M50.3,122.4c0.2,7.1-5.2,13-12,13.2s-12.4-5.5-12.6-12.6s4.6-12.6,11.4-12.8S50.1,115.2,50.3,122.4"/>
		<path class="st2" d="M29,120.2c0.7-0.1,1.2-0.8,1.1-1.5c-0.1-0.5-0.4-0.9-0.9-1.1c-1.4-0.5-2.9-0.8-4.4-0.6
			c-3.5,0.3-8.7,3.4-9.2,9.1c-0.5,6.4,4.4,8.9,0.8,14.7l11.8,2.9c0,0,1.8-3.8-1.2-8.9C24.4,130.1,20.1,121.4,29,120.2"/>
		<path class="st11" d="M39.5,135.9c-1.2,0.1-2.5-0.1-3.6-0.4l3.5,2.1L39.5,135.9z"/>
		<path class="st4" d="M45.2,134.9c-1.3,0.9-3.6,1.1-5.6,1l-0.3,5.7l-6.6-2.5c0,0,0.5-6.3,0.7-8.7c-1.3-1.1-3.6-1.7-3.6-3.7
			c-0.1-1,0.7-1.9,1.7-2c0,0,0.1,0,0.1,0c2-0.1,1.8,2.4,1.8,2.4c2.3,0.8,4.5-6.9,5.8-8.7c0.7-1,6.4,1,6.4,1l3.3,3.5
			C48.9,123.3,48.9,132.2,45.2,134.9"/>
		<path class="st2" d="M44.8,126.8l1.5,3.5h-1.6L44.8,126.8z"/>
		<path class="st2" d="M43.2,127c0,0.7-0.5,1.3-0.9,1.3s-0.8-0.6-0.8-1.3s0.4-1.3,0.9-1.3S43.3,126.3,43.2,127"/>
		<path class="st2" d="M47.7,126.8c0,0.7-0.4,1.3-0.9,1.3s-0.8-0.6-0.8-1.3s0.5-1.3,0.9-1.3S47.7,126.1,47.7,126.8"/>
		<path class="st12" d="M44.2,132c-0.8,0.2-1.7-0.1-2.2-0.8"/>
		<path class="st9" d="M39.5,135.9c-1.2,0.1-2.5-0.1-3.6-0.4l3.5,2.1L39.5,135.9z"/>
		<path class="st2" d="M33.3,127.1c0,0,8.7,0.5,13-9.9l-10.1-1.5"/>
		<path class="st2" d="M44.8,115.8c0,0,0.2,7.2,4.3,10.6l0.3-4.6"/>
		<path class="st13" d="M188.8,156.8c0,0,3.9,2.6,4.4,7.1"/>
		<path class="st7" d="M189,175.7h-12c-2.6,0-4.7-2.1-4.7-4.7c0,0,0,0,0,0v-3.2c0-2.6,2.1-4.7,4.7-4.7c0,0,0,0,0,0h30.2
			c2.6,0,4.7,2.1,4.7,4.7c0,0,0,0,0,0v3.2c0,2.6-2.1,4.7-4.7,4.7c0,0,0,0,0,0h-11.3v9.5H189V175.7z M190.8,156.3
			c0,1.3-1,2.4-2.3,2.4c-1.3,0-2.4-1-2.4-2.3s1-2.4,2.3-2.4c0,0,0,0,0,0c1.3-0.1,2.3,0.9,2.4,2.2
			C190.8,156.2,190.8,156.3,190.8,156.3L190.8,156.3z"/>
		<path class="st4" d="M189,185.2h6.9v-9.5H189V185.2z"/>
		<path class="st7" d="M189,182.2l6.9-2.3v-4.2H189V182.2z"/>
		<path class="st2" d="M177.1,175.7L177.1,175.7c-2.6,0-4.7-2.1-4.7-4.7c0,0,0,0,0,0v-3.2c0-2.6,2.1-4.7,4.7-4.7
			c2.6,0,4.7,2.1,4.7,4.7v3.2C181.8,173.6,179.7,175.7,177.1,175.7C177.1,175.7,177.1,175.7,177.1,175.7"/>
		<path class="st2" d="M184.4,169.4c0,2,1.6,3.6,3.6,3.6c2,0,3.6-1.6,3.6-3.6c0-2-1.6-3.6-3.6-3.6
			C186.1,165.8,184.5,167.4,184.4,169.4"/>
		<path class="st4" d="M186.9,168.9c0,0.9,0.7,1.7,1.7,1.7c0.9,0,1.7-0.7,1.7-1.7c0-0.9-0.7-1.7-1.7-1.7
			C187.6,167.3,186.9,168,186.9,168.9"/>
		<path class="st2" d="M202.1,169.4c0,2,1.6,3.6,3.6,3.6c2,0,3.6-1.6,3.6-3.6c0-2-1.6-3.6-3.6-3.6
			C203.8,165.8,202.1,167.4,202.1,169.4C202.1,169.4,202.1,169.4,202.1,169.4"/>
		<path class="st4" d="M204.6,168.9c0,0.9,0.7,1.7,1.7,1.7c0.9,0,1.7-0.7,1.7-1.7c0-0.9-0.7-1.7-1.7-1.7
			C205.3,167.3,204.6,168,204.6,168.9"/>
		<path class="st2" d="M196.1,166.9l3.2,2.5l-3.2,2.5"/>
		<path class="st2" d="M105.1,201.6c-2.2,0-4,2.6-4,5.8s1.8,5.8,4,5.8s4-2.6,4-5.8S107.3,201.6,105.1,201.6"/>
		<path class="st14" d="M105.1,207.7v-64"/>
		<path class="st2" d="M76.8,175.2h31.6v-32.9H76.8V175.2z"/>
		<path class="st15" d="M76.6,207.7v-64L65,147.2"/>
		<path class="st13" d="M91.2,189.6l27.6,35.5"/>
		<path class="st13" d="M118.9,189.6l-27.6,35.5"/>
		<path class="st13" d="M88.5,207.4h33.1"/>
		<path class="st13" d="M105.1,181.5v51.6"/>
		<path class="st7" d="M105.1,179.2c-10.8,0-19.6,12.7-19.6,28.5s8.8,28.5,19.6,28.5s19.6-12.7,19.6-28.5S115.9,179.2,105.1,179.2
			 M105.1,183.7c3.8,0,7.3,2.3,10.2,6.4c1.6,2.4,2.8,5,3.6,7.8c0.9,3.2,1.3,6.5,1.3,9.8c0,3.3-0.4,6.6-1.3,9.8
			c-0.8,2.8-2,5.4-3.6,7.8c-2.9,4.1-6.5,6.4-10.2,6.4s-7.3-2.3-10.2-6.4c-1.6-2.4-2.8-5-3.6-7.8c-0.9-3.2-1.3-6.5-1.3-9.8
			c0-3.3,0.4-6.6,1.3-9.8c0.8-2.8,2-5.4,3.6-7.8C97.7,185.9,101.4,183.7,105.1,183.7"/>
		<path class="st16" d="M76.6,181.5v51.6"/>
		<path class="st14" d="M130.4,221.1V174"/>
		<path class="st2" d="M131.2,219.3c-3.2,0-5.8,3.8-5.8,8.4s2.6,8.4,5.8,8.4s5.8-3.8,5.8-8.4S134.3,219.3,131.2,219.3 M131.2,223
			c0.6,0,2.1,1.6,2.1,4.7s-1.5,4.7-2.1,4.7s-2.1-1.7-2.1-4.7S130.5,223,131.2,223"/>
		<path class="st2" d="M84.3,191.9h46.1v-7.2H84.3V191.9z"/>
		<path class="st7" d="M77.3,191.9h25v-7.2h-25V191.9z"/>
		<path class="st7" d="M139.9,220.7l0.1-4.2l-5-2.7l-0.8,12h17.5C148.7,222.2,139.9,220.7,139.9,220.7z M118.3,220.5l0.1-5l-5.5-0.2
			l-0.5,5l-1.3,5.5h12.7C122.2,221.1,118.3,220.6,118.3,220.5L118.3,220.5z"/>
		<path class="st4" d="M112.4,220.2l0.6-6.4l5.3,1.7l-0.1,5L112.4,220.2z M134.5,220.4l0.4-5.5l5,1.6l-0.1,4.2L134.5,220.4z"/>
		<path class="st2" d="M109.5,229.6h43.5v-3.9h-43.5V229.6z"/>
		<path class="st4" d="M107.8,229.6h14.6v-3.9h-14.6V229.6z"/>
		<path class="st7" d="M76.6,179.2C65.8,179.2,57,192,57,207.7s8.8,28.5,19.6,28.5s19.6-12.7,19.6-28.5S87.4,179.2,76.6,179.2
			 M76.6,183.7c3.8,0,7.3,2.3,10.2,6.4c1.6,2.4,2.8,5,3.6,7.8c0.9,3.2,1.3,6.5,1.3,9.8c0,3.3-0.4,6.6-1.3,9.8
			c-0.8,2.8-2,5.4-3.6,7.8c-2.9,4.1-6.5,6.4-10.2,6.4s-7.3-2.3-10.2-6.4c-1.6-2.4-2.8-5-3.6-7.8c-0.9-3.2-1.3-6.5-1.3-9.8
			c0-3.3,0.4-6.6,1.3-9.8c0.8-2.8,2-5.4,3.6-7.8C69.3,185.9,72.8,183.7,76.6,183.7"/>
		<path class="st14" d="M100.6,221.1l-0.1-35.9"/>
		<path class="st4" d="M102.6,219.3c-3.2,0-5.8,3.8-5.8,8.4s2.6,8.4,5.8,8.4s5.8-3.8,5.8-8.4S105.8,219.3,102.6,219.3 M102.6,223
			c0.6,0,2.1,1.6,2.1,4.7s-1.5,4.7-2.1,4.7s-2.1-1.7-2.1-4.7S102,223,102.6,223"/>
		<path class="st2" d="M76.4,201.4c-2.2,0-4,2.6-4,5.8s1.8,5.8,4,5.8s4-2.6,4-5.8S78.6,201.4,76.4,201.4"/>
		<path class="st16" d="M64.5,191.9l23.8,30.6"/>
		<path class="st16" d="M88.1,192.5l-24.1,30.9"/>
		<path class="st16" d="M60.6,207.4h31.1"/>
		<path class="st2" d="M106.1,172.5H92.9v4c0,4.9,4,8.9,8.9,8.9c0,0,0,0,0.1,0h11.3l-1.5,33h9.2l3.4-33h9.7l-0.4,33h9.4l4.4-33.9
			c0.7-5.8-3.4-11.1-9.2-11.8c-0.5-0.1-0.9-0.1-1.4-0.1L106.1,172.5L106.1,172.5z"/>
		<path class="st2" d="M92.9,172.5h24.9c3.9,0,7,3.1,7,7c0,0.2,0,0.4,0,0.7l-4,38.2h-9.2l1.5-33h-11.3c-4.9,0.1-8.9-3.9-9-8.8
			c0,0,0,0,0-0.1L92.9,172.5L92.9,172.5z"/>
		<path class="st4" d="M134.5,151.9c-2,4.1-9.3,17.4-14.4,15.3c-3.9-1.6-8.5-14.8-8.5-14.8l7.5-4.5l3.4,9.1l6.9-7.5
			c-0.2-1.5-0.4-3.4,0.1-4.1c1.5-1.7,3.1-3.3,4.8-4.8l0.7,6.1l0.1-0.5V146l0,0l0.3-1.2c-0.1-0.1-0.2-0.1-0.1-0.3
			c0.1-0.1,0.2-0.2,0.3-0.3l1-4.1c0,0,0.3,0.1,0.8,0.4c0.8-0.2,3.6,1.8,3.6,1.8l0,0c0.6,0.4-0.8,6.6-1.9,7.7
			C138.3,150.8,135.8,151.5,134.5,151.9L134.5,151.9z M88.5,179.4l0.4,0.9c0.4,0.6,0.6,1.3,0.8,2c0.4,1.3,0.3,2,1.2,4
			c1.1,2.2-0.8,1.3-1.5,0.3c-0.5-0.8-0.4-1.8-1.2-2.2c-0.2,0.4-0.8,0.9-1.1,4.1c0,0.8,0.1,1.7,0.2,2.5c0,0.6,0.1,1.7-0.6,1.9
			c-0.1,0.1-0.4-0.1-0.4-0.1s0.1,0.8-0.6,0.9c-0.2,0.1-0.8-1.5-0.8-1.5s-0.1,0.8-0.6,0.9c-0.1,0-1.8-4.6-1.8-4.6l0.1,1l0.2,1.1
			c0,0,0,0.6-0.4,0.7c-0.2,0.1-0.5-0.9-0.8-2c-0.4-1.4-0.5-2.9-0.3-4.3c0.1-1.4,0.3-2.7,0.8-4c0.1-0.3,0.2-0.5,0.3-0.8
			c-0.4-3.3-1.5-13.1-1.3-16c0.2-3.6,3.9-11.6,3.9-11.6l7.7,4.3l-4.3,7.8L88.5,179.4L88.5,179.4z M107.1,143.4
			c-2.8,0-5.3-1.5-6.8-3.8c2.3-0.2,4.6-0.1,6.9,0.3c1.2,0.2,2.4,0.4,3.6,0.8C111,141.4,111.4,143.7,107.1,143.4L107.1,143.4z"/>
		<path class="st7" d="M92.8,172.7h24.8l0.9-15.4l4.3-2.6l-3.1-7.1l0,0c-0.1-0.3-0.3-0.6-0.4-0.8c-1.9-3.2-5-5.5-8.6-6.3h-0.1
			c0.1,0.1,0.1,0.3,0.1,0.4c0,0.5,0,0.9-0.2,1.3c-0.3,0.4-0.7,0.7-1.2,0.8c-0.2,0.1-0.4,0.1-0.6,0.1l-1.1,0.1
			c-0.8,0-1.7-0.1-2.5-0.3c-0.3-0.1-0.6-0.2-0.8-0.3c-0.1,0-0.1-0.1-0.2-0.1c-0.4-0.2-0.9-0.4-1.3-0.6c-0.5-0.2-1-0.6-1.3-1
			l-0.1-0.1c-0.3-0.3-0.6-0.6-0.8-0.9c-0.1-0.1-0.1-0.2-0.2-0.3c0,0,0-0.1-0.1-0.1c0-0.1-0.1-0.1-0.1-0.2v-0.1h-0.1
			c-2,0.2-3.9,0.8-5.7,1.6c-6.3,3-10.1,10.4-10.1,10.4l7.8,5.9L92.8,172.7z"/>
		<path class="st17" d="M92.4,157.5l2,1.3l4.8-5.6"/>
		<path class="st7" d="M137.8,147.6l-0.3,1.7h-5.6l2.7-13.6h5.6c-0.1,0.8-0.5,2.5-1,5.3l-1.1-0.5l-0.3-0.1h-0.3l-0.1,0.1v0.3
			l1.2,1.7l-0.9,0.4l-1.4,0.8l-0.4,0.2l-0.1,0.1l-0.1,0.1l-0.1,0.1l-0.1,0.1v0.2l0.1,0.1l0.4,0.2l1.1-0.3h1l-1.4,0.3l-0.9,0.6
			l-0.3,0.3l-0.2,0.2v0.2l0.3,0.1l2-0.3l-0.6,0.4l-0.4,0.3l-0.4,0.2l-0.3,0.4v0.2l0.1,0.1l0.3,0.1h1.3L137.8,147.6z"/>
		<path class="st2" d="M131.9,149.4h-1l2.7-13.6h0.9L131.9,149.4z"/>
		<path class="st2" d="M135.5,137.3c-0.1,0.4-0.3,0.7-0.5,0.6s-0.3-0.4-0.3-0.8s0.3-0.7,0.5-0.6S135.6,137,135.5,137.3"/>
		<path class="st7" d="M199.7,193.5h-2.2v-7.6c0-1.1-0.9-2-2-2h-6.7c-1.1,0-2,0.9-2,2v7.4H185c-0.7,0-1.2,0.5-1.2,1.2v0v24.8
			c0,0.7,0.5,1.2,1.2,1.2h0h3.9c0.7,0,1.2-0.5,1.2-1.2v0c0-0.7-0.6-1.2-1.2-1.2h-2.6v-5.4c0.5-1,1.5-1.7,2.6-1.8
			c2.4,0,4.3,3.8,4.3,8.4s-1.9,8.4-4.3,8.4c-2.2,0-4-3.1-4.2-7.2c-0.5-0.2-0.8-0.6-0.8-1.1v-13.9c-2.2,3.1-3.6,8.1-3.6,13.9
			c0,9.4,3.9,17.1,8.7,17.1h7.1c4.8,0,8.7-7.6,8.7-17.1c0-5.7-1.4-10.8-3.6-13.9v-10.8C201.1,194,200.5,193.5,199.7,193.5
			C199.8,193.5,199.7,193.5,199.7,193.5z M197.6,197.4v-1.5h0.9v7.1c-0.8-0.5-1.7-0.8-2.7-0.8h-7.1c-0.9,0-1.8,0.3-2.6,0.8v-7.3h0.7
			v1.6c0,1.1,0.9,2,2,2h6.7c1.1,0.1,2-0.7,2-1.8C197.6,197.4,197.6,197.4,197.6,197.4L197.6,197.4z"/>
		<path class="st2" d="M184.5,220.4c0.1,0,0.3,0.1,0.4,0.1h3.9c0.7,0,1.2-0.5,1.2-1.2v0c0-0.7-0.6-1.2-1.2-1.2h-2.6v-5.4
			c0.5-1,1.5-1.7,2.7-1.8c2.4,0,4.3,3.8,4.3,8.4s-1.9,8.4-4.3,8.4S184.8,224.5,184.5,220.4L184.5,220.4z"/>
		<path class="st2" d="M186.7,191.6h10.8V188h-10.8V191.6z"/>
		<path class="st2" d="M198.6,203c-0.1,0-0.1-0.1-0.1-0.1v-7h-1v-2.4h2.2c0.7,0,1.2,0.5,1.2,1.2v0v10.6c-0.1-0.1-0.1-0.2-0.2-0.2
			s-0.1-0.1-0.1-0.2l-0.1-0.1c2.5,3.1,4.1,8.4,4.1,14.5c0,9.4-3.9,17.1-8.7,17.1h-6.8c4.6-0.4,8.4-7.9,8.4-17.1
			c0-9.4-3.9-17.1-8.7-17.1h7.1C196.8,202.2,197.8,202.5,198.6,203L198.6,203z M200,204.1l0.2,0.2
			C200.2,204.3,200.1,204.3,200,204.1z M186.1,218.1h2.6c0.7,0,1.2,0.5,1.2,1.2c0,0.7-0.6,1.2-1.2,1.2h-3.9c-0.7,0-1.2-0.5-1.2-1.2
			c0,0,0,0,0,0v-24.8c0-0.7,0.5-1.2,1.2-1.2h3.9c0.7,0,1.2,0.5,1.2,1.2c0,0.7-0.5,1.2-1.2,1.2h-2.6V218.1z"/>
		<path class="st4" d="M65.1,189.5v0.3c0,2.7-2.1,5-4.8,5c0,0,0,0,0,0H22.4c-5.9,0-10.3-5.6-9.6-11.9l4.3-35c0.3-2.8,2.6-4.9,5.4-5
			h11.2c2.8,0.1,5.1,2.2,5.4,5l4.3,35c0,0.3,0.1,0.5,0.1,0.8l0,0c0,0,0.8,5.7,8.2,5.7L65.1,189.5L65.1,189.5z"/>
		<path class="st7" d="M24.8,234.4c0,1.8-1.4,3.3-3.2,3.3s-3.3-1.4-3.3-3.2c0-1.8,1.4-3.3,3.2-3.3c0,0,0,0,0,0
			c1.8,0,3.2,1.4,3.2,3.1C24.8,234.3,24.8,234.3,24.8,234.4"/>
		<path id="Fill-6" class="st4" d="M54.2,235H22.4c-1.2,0-2.2-1-2.2-2.2c0-1.2,1-2.2,2.2-2.2h31.9c1.2,0,2.2,1,2.2,2.2
			C56.5,234,55.5,235,54.2,235"/>
		<polygon class="st7" points="36.7,233.9 39.9,233.9 39.9,194.8 36.7,194.8 		"/>
		<polygon class="st7" points="49.5,194.8 38.3,199.9 27.1,194.8 		"/>
		<path class="st7" d="M38.5,235h-4.1c-1.2,0-2.2-1-2.2-2.2c0-1.2,1-2.2,2.2-2.2h4.1c1.2,0,2.2,1,2.2,2.2
			C40.8,234,39.8,235,38.5,235C38.5,235,38.5,235,38.5,235"/>
		<path class="st7" d="M35.8,234.4c0,1.8-1.4,3.3-3.2,3.3c-1.8,0-3.3-1.4-3.3-3.2s1.4-3.3,3.2-3.3c0,0,0,0,0,0
			C34.4,231.1,35.8,232.5,35.8,234.4C35.9,234.3,35.9,234.3,35.8,234.4"/>
		<path class="st7" d="M58.5,234.4c0,1.8-1.4,3.3-3.2,3.3s-3.3-1.4-3.3-3.2s1.4-3.3,3.2-3.3c0,0,0,0,0,0
			C57,231.1,58.5,232.5,58.5,234.4C58.5,234.3,58.5,234.3,58.5,234.4"/>
		<path class="st18" d="M28.7,171.8h-1.4v-0.1C27.8,171.7,28.3,171.7,28.7,171.8"/>
		<path class="st18" d="M33.5,171.9L33.5,171.9c0,0.1-2,0.1-4.8-0.1L33.5,171.9z"/>
		<path id="Stroke-4" class="st19" d="M55,189c0.4,1.3,1.3,2.3,2.5,2.9c0.7,0.2,0.5,3,2.2,2.7"/>
		<polyline id="Stroke-22" class="st20" points="27.1,154.5 22.9,161.5 33.4,165.7 		"/>
		<path class="st2" d="M100.8,107.8c0.3,1.8-0.8,3.5-2.6,3.8c-1.8,0.3-3.5-0.8-3.8-2.6c-0.3-1.7,0.8-3.4,2.5-3.8
			c1.7-0.4,3.4,0.7,3.8,2.4C100.8,107.7,100.8,107.8,100.8,107.8"/>
		<path class="st4" d="M108.6,140l-0.1-5.3c0,0,6.5,0.5,7.8-0.2c0,0,1.7-8.7-0.3-13.6l-0.1-0.2l-13.6-1.6l-0.8,7.7
			c-0.4-1.3-4.1-2.8-5.2-0.8c-2.2,4.2,5.5,7.1,5.5,7.1l-0.8,7"/>
		<path class="st9" d="M108.4,134.7l-4.4-1l4.3,2.9L108.4,134.7z"/>
		<path class="st7" d="M112,126l1.5,3.7h-1.8L112,126z"/>
		<path class="st2" d="M110.3,127.1c0.1,0.5-0.3,1-0.8,1.1c-0.5,0.1-1-0.3-1.1-0.8c-0.1-0.5,0.3-1,0.8-1.1
			C109.7,126.3,110.2,126.6,110.3,127.1"/>
		<path class="st2" d="M115,127.1c0.1,0.5-0.3,1-0.8,1.1c-0.5,0.1-1-0.3-1.1-0.8c-0.1-0.5,0.2-1,0.7-1.1c0,0,0,0,0,0
			C114.4,126.3,114.9,126.6,115,127.1"/>
		<path class="st2" d="M110.1,130.8c0.4,0.6,1.1,1,1.9,1L110.1,130.8z"/>
		<path class="st21" d="M110.1,130.8c0.4,0.6,1.1,1,1.9,1"/>
		<path class="st7" d="M100,125.9l0.1-3.1l6.4-1.1c-0.3,2.7-2.1,4.9-4.6,5.9C101.5,126.9,100.8,126.3,100,125.9z"/>
		<path class="st7" d="M95.2,121.8c0,0-2.2-7.8,4.1-12.2c7.8-5.3,16.8,8.7,16.8,8.7"/>
		<path class="st2" d="M93.7,122.7l0.2,2c0.1,0.8,0.9,1.4,1.7,1.2c0,0,0.1,0,0.1,0l21.3-3.5c0.8-0.1,1.4-0.9,1.2-1.8
			c0-0.1,0-0.1,0-0.2l-0.9-2.7c-0.3-0.8-1-1.2-1.8-1.1l-20.7,4.3C94,121.1,93.5,121.9,93.7,122.7"/>
		<path class="st2" d="M94.9,118.4l3.6-5l5.5,2.8l3.2-4.7l5.7,2.6"/>
		<path class="st2" d="M62.6,225.6l-0.5,4.1c0,0,8.7,2.3,11.9,5.6H57.9l0.6-11.6L62.6,225.6z M81.1,206.8l1.9,3.6
			c0,0,8.5-2.9,13.1-1.9l-13.3,8.9l-6-9.9L81.1,206.8z"/>
		<path class="st4" d="M58.3,224.8l4.3,1.7l-0.1,3.4l-4.4-0.2L58.3,224.8z M77.1,208.3l4.5-0.9l1.8,2.9l-3.8,2.3L77.1,208.3z"/>
		<path class="st2" d="M57.4,167.8l-29.9,8.9l-0.6,5.7c-0.4,5.5,5,10.4,10.6,10.4l0,0l19.5-0.1l-0.4,34.9h10.2l2.2-24l6.5,9.5
			l8.7-5.8l-15.9-32.5C64.9,168.3,62.9,166.6,57.4,167.8z"/>
		<path class="st7" d="M59.9,178.7L59.9,178.7l-22.4,13.9l19.5-0.1l-0.4,34.9h10.2l3.5-38.1C71.2,182.4,66.9,178.7,59.9,178.7"/>
		<polygon class="st5" points="27.3,171.6 27.5,176.7 42.8,172.7 40.7,169.5 		"/>
		<path class="st18" d="M29.2,173.1h-1.5V173C28.2,173,28.7,173.1,29.2,173.1"/>
		<path class="st2" d="M59.3,189.2l-4.9,0.6l-7.9-12.3l-0.3-4.1l-12-0.2l-5.1-0.1l0,0c-0.5,0-1-0.1-1.5-0.1
			c-6.4-0.4-15.4-1.7-16-5.2c-1-6.3,7.3-18.5,8.3-20c0,0,0.1-0.1,0.1-0.1c1.1-1.7,2.5-3.2,4.1-4.4c2.2-1.4,4.7-2.1,7.3-2l0.6-4.5
			l9.4,1.3l-0.5,3.7c2.7,0.3,4.7,0.8,6.4,2.4c5.6,5.2,6,24.5,6,24.5L59.3,189.2z"/>
		<path class="st22" d="M46.1,173.3c0.7-8.7,5.5-10.6,2-20.4"/>
		<path class="st4" d="M54.2,184.1l-17.9-2c-0.5-0.1-0.9-0.6-0.8-1.1c0,0,0-0.1,0-0.1l7.1-25c0.1-0.4,0.5-0.7,1-0.7l17.9,2
			c0.5,0.1,0.9,0.6,0.8,1.1c0,0,0,0.1,0,0.1l-7.1,25C55.1,183.9,54.7,184.2,54.2,184.1"/>
		<path class="st7" d="M37.4,182.2l17.9,2c0.5,0,0.9-0.3,1-0.7l7.1-24.9c0.1-0.5-0.2-1.1-0.8-1.2c0,0,0,0-0.1,0l-17.9-2
			c-0.5,0-0.9,0.3-1,0.7L40,168.9c0.9,0.4,1.9,0.7,2.9,1c0.8,0.1,1.6,0.2,2.4,0.2h0.1c0.6,0.1,1.6,0.2,1.7,0.8
			c0,0.1-0.1,0.2-0.2,0.3c0,0,0.7,0.1,0.8,0.7c0,0.2-1.6,0.5-1.6,0.5s0.8,0.2,0.8,0.7c0,0.1-4.7,1-4.7,1l1,0.1l1.1-0.1
			c0,0,0.6,0.1,0.6,0.6c0,0.2-1,0.4-2.1,0.5c-1.4,0.2-2.9,0.1-4.3-0.3h-0.1l-1.7,6.2C36.5,181.6,36.8,182.1,37.4,182.2
			C37.4,182.2,37.4,182.2,37.4,182.2z"/>
		<path class="st4" d="M59.3,189.2c1,1.1,1.9,2.2,2.7,3.4c0.5,1.5,0.8,3.1,1,4.7c0,0.6-2,3.6-2,3.6c-1.2-0.3-0.4-1.9-0.4-1.9
			s-1.1,0.9-1.6,0.9c-4.3-0.1-4.1-2.4-4-2.6c0.3-0.6,1.4,0.1,1.4,0.1s-2.2-4.5-1.7-7.7L59.3,189.2z M46,172.4c0,0,0.8,0.2,0.8,0.7
			c0,0.1-4.7,1-4.7,1l1,0.1l1.1-0.1c0,0,0.6,0.1,0.6,0.6c0,0.2-1,0.4-2.1,0.5c-1.4,0.2-2.9,0.1-4.3-0.3c-0.1,0-0.2-0.1-0.3-0.1
			c-1.2-0.2-2.4-0.7-3.5-1.3c-0.8-0.5-1.5-1-2.2-1.6l1.2-4.4l1.7-0.6c0.6-0.2,1.3-0.4,2-0.5c0.8-0.1,1.6-0.1,2.4-0.2l-0.3,1.8
			c-0.1,0.1-0.1,0.2-0.2,0.2s0.1,0.1,0.1,0.1c0.3,0.3,1,0.8,3.8,1.5c0.8,0.1,1.6,0.2,2.4,0.2c0.6,0.1,1.7,0.2,1.8,0.8
			c0,0.1-0.1,0.2-0.2,0.3c0.4,0,0.7,0.3,0.8,0.7C47.7,172.1,46,172.4,46,172.4z"/>
		<path class="st23" d="M57.2,191.4c0.4,1.3,1.4,2.4,2.7,3c0.7,0.3,0.6,3.2,2.4,2.9"/>
		<path class="st4" d="M45.5,157.6c-0.1,0.4-0.4,0.8-0.7,0.7s-0.3-0.5-0.2-1s0.5-0.8,0.7-0.7S45.6,157.2,45.5,157.6"/>
		<path class="st22" d="M27.5,154.7l-4.5,7.4l11.2,4.5"/>
	</g>
</g>
<g>
	<g class="st24">
		
			<image style="overflow:visible;opacity:0.35;" width="272" height="192" xlink:href="987C6F44AF6AEDC5.png"  transform="matrix(0.3424 0 0 0.3424 7.1381 11.9407)">
		</image>
		<g>
			<polygon class="st25" points="95,14.9 18.6,63.8 18.5,49.6 72.9,14.9 			"/>
		</g>
	</g>
	
		<image style="overflow:visible;" width="1040" height="374" xlink:href="../../../../../../Desktop/PROJETS/Web/MHV_2019/french_tech.png"  transform="matrix(2.676785e-02 -1.712810e-02 1.712810e-02 2.676785e-02 20.169 48.1894)">
	</image>
	<g>
		<path d="M56.9,35.5l-0.6,0.4l-1.6-2.5l1.2-0.8c0.1-0.1,0.3-0.1,0.4-0.1c0.2,0,0.3,0,0.5,0.1c0.1,0.1,0.3,0.2,0.3,0.3l0,0
			c0.1,0.1,0.1,0.3,0.1,0.5c0,0.2,0,0.3-0.1,0.5c-0.1,0.1-0.2,0.3-0.3,0.3l-0.7,0.4L56.9,35.5z M55.9,34l0.5-0.3
			c0.1-0.1,0.2-0.1,0.2-0.2c0-0.1,0-0.2,0-0.3l0,0c-0.1-0.1-0.1-0.1-0.2-0.2c-0.1,0-0.2,0-0.3,0.1l-0.5,0.3L55.9,34z"/>
		<path d="M59.8,32.9l-1,0.6l0.1,0.6l-0.5,0.3l-0.7-3.1l0.7-0.4l2.5,1.9l-0.6,0.4L59.8,32.9z M58.6,33l0.7-0.4
			c-0.3-0.2-0.6-0.5-1-0.8l0,0L58.6,33z"/>
		<path d="M62.9,31.6c-0.1,0.1-0.2,0.1-0.4,0.1c-0.1,0-0.2-0.1-0.3-0.2c-0.1-0.2-0.3-0.4-0.4-0.4c-0.1-0.1-0.3-0.1-0.4,0L61,31.3
			l0.7,1l-0.6,0.4l-1.6-2.5l1.1-0.7c0.2-0.2,0.5-0.2,0.7-0.2c0.2,0,0.4,0.1,0.6,0.3c0.1,0.1,0.1,0.2,0.1,0.3c0,0.1,0,0.2,0,0.3
			c0,0.1-0.1,0.2-0.2,0.3l0,0c0.1,0,0.3,0,0.4,0c0.2,0.1,0.3,0.2,0.4,0.4c0.2,0.3,0.3,0.4,0.5,0.3l0.1,0.1
			C63.2,31.4,63.1,31.5,62.9,31.6z M61.4,30.3c0-0.1,0-0.2,0-0.3l0,0c-0.1-0.1-0.1-0.1-0.2-0.1c-0.1,0-0.2,0-0.3,0.1l-0.6,0.4
			l0.4,0.6l0.6-0.4C61.4,30.5,61.4,30.4,61.4,30.3z"/>
		<path d="M63.3,28.4l1.3,2.1l-0.6,0.4l-1.3-2.1L62,29.3l-0.3-0.5l2-1.3L64,28L63.3,28.4z"/>
		<path d="M65.6,29.9L64,27.3l1.8-1.1l0.2,0.5l-1.2,0.7l0.4,0.6l1.1-0.7l0.3,0.5l-1.1,0.7l0.4,0.6l1.2-0.7l0.4,0.4L65.6,29.9z"/>
		<path d="M67.8,26.8c-0.1,0-0.1-0.1-0.2-0.1c-0.1,0-0.2-0.1-0.2-0.1l0,0l0.9,1.5l-0.5,0.3l-1.6-2.5l0.5-0.3l1.5,0.7l0.2,0.1
			c0.1,0,0.1,0.1,0.2,0.1l0,0L67.7,25l0.5-0.3l1.6,2.5l-0.5,0.3L67.8,26.8z"/>
		<path d="M71.5,25.4l-1,0.6l0.1,0.6L70.1,27l-0.7-3.1l0.7-0.4l2.5,1.9L72,25.8L71.5,25.4z M70.4,25.5l0.7-0.4
			c-0.3-0.2-0.6-0.5-1-0.8l0,0L70.4,25.5z"/>
		<path d="M71.3,22.7l1.2-0.7l0.3,0.5l-0.3,0.2l1,1.6l0.3-0.2l0.3,0.5l-1.2,0.7l-0.3-0.5l0.3-0.2l-1-1.6l-0.3,0.2L71.3,22.7z"/>
		<path d="M76.4,23c-0.1,0.1-0.2,0.1-0.4,0.1c-0.1,0-0.2-0.1-0.3-0.2c-0.1-0.2-0.3-0.4-0.4-0.4c-0.1-0.1-0.3-0.1-0.4,0l-0.4,0.3
			l0.7,1l-0.6,0.4L73,21.6l1.1-0.7c0.2-0.2,0.5-0.2,0.7-0.2c0.2,0,0.4,0.1,0.6,0.3c0.1,0.1,0.1,0.2,0.1,0.3c0,0.1,0,0.2,0,0.3
			c0,0.1-0.1,0.2-0.2,0.3l0,0c0.1,0,0.3,0,0.4,0c0.2,0.1,0.3,0.2,0.4,0.4c0.2,0.3,0.3,0.4,0.5,0.3l0.1,0.1
			C76.6,22.9,76.5,22.9,76.4,23z M74.9,21.7c0-0.1,0-0.2,0-0.3l0,0c-0.1-0.1-0.1-0.1-0.2-0.1s-0.2,0-0.3,0.1l-0.6,0.4l0.4,0.6
			l0.6-0.4C74.8,21.9,74.9,21.8,74.9,21.7z"/>
		<path d="M77,22.6l-1.6-2.5l1.8-1.1l0.2,0.5l-1.2,0.7l0.4,0.6l1.1-0.7l0.3,0.5l-1.1,0.7l0.4,0.6l1.2-0.7l0.4,0.4L77,22.6z"/>
	</g>
</g>
<rect y="44.8" class="st26" width="18.5" height="30.9"/>
</svg>
