<svg id="Calque_1" data-name="Calque 1" xmlns="http://www.w3.org/2000/svg" viewBox="0 0 299.94 412.62"><defs><style>.cls-1,.cls-4,.cls-8{fill:#86f1e6;}.cls-1,.cls-3,.cls-6,.cls-8{fill-rule:evenodd;}.cls-2,.cls-6{fill:#b1f8f0;}.cls-2{stroke:#dcfdfa;stroke-width:1.14px;}.cls-3,.cls-5{fill:#dcfdfa;}.cls-7,.cls-9{fill:none;stroke:#86f1e6;}.cls-7{stroke-width:1.51px;}.cls-8{opacity:0.65;}.cls-8,.cls-9{isolation:isolate;}.cls-9{stroke-width:1.94px;opacity:0.2;}</style></defs><title>scene_teaching_teacher</title><path class="cls-1" d="M197.52,30.36H49.36V156H197.41V30.36Z"/><path class="cls-2" d="M207.81,30.36H49.36V156H207.7V30.36Z"/><path class="cls-3" d="M193.87,39.28H55.19V146.74H193.87V39.28Z"/><path class="cls-4" d="M62.28,78.37v-.45l3.89-2.4.46.8-3.09,1.82L66.63,80l-.46.8Z"/><path class="cls-4" d="M67,75.06h1.71v2.17h0a1.21,1.21,0,0,1,.58-.46,1.72,1.72,0,0,1,.8-.11.9.9,0,0,1,.57.11.62.62,0,0,1,.46.23,3,3,0,0,1,.34.57,1.76,1.76,0,0,1,.11.8V81H70.4V78.49a1,1,0,0,0-.23-.69.88.88,0,0,0-.57-.23c-.23,0-.34.12-.57.23s-.35.23-.35.46v2.63H67.54V76H67Z"/><path class="cls-4" d="M72.91,80h1.26V76.32l-1.14.8-.46-.69,1.94-1.37h.69V80h1.26v.92H72.91Z"/><path class="cls-4" d="M77.83,80.66l-.46-.8L80.46,78,77.37,76.2l.46-.8,3.89,2.4v.46Z"/><path class="cls-4" d="M85.49,78.37H83.55v2.4H82.4V75.06h1.15v2.28h1.94V75.06h1.14v5.83H85.49Z"/><path class="cls-4" d="M91.55,80.43l-.23.23c-.11.11-.23.11-.46.23s-.34.11-.45.11h-.58a2.3,2.3,0,0,1-.91-.11c-.23-.12-.57-.23-.69-.46a2.35,2.35,0,0,1-.45-.68,2.49,2.49,0,0,1,.11-1.83,2.31,2.31,0,0,1,.46-.69,2.48,2.48,0,0,1,.68-.46,2.35,2.35,0,0,1,.92-.11,1.46,1.46,0,0,1,.68.11c.23.12.46.12.58.35a1.12,1.12,0,0,1,.45.57,2.07,2.07,0,0,1,.23.91,2.3,2.3,0,0,1-.11.8h-3c0,.23,0,.35.12.46s.11.23.23.34a.4.4,0,0,0,.34.12H90a1.63,1.63,0,0,0,.8-.12c.23-.11.34-.23.57-.23Zm-1.83-3a.91.91,0,0,0-.46.11c-.11,0-.23.12-.34.23l-.23.23a1.2,1.2,0,0,0-.11.34h2a1.64,1.64,0,0,0-.22-.68C90.29,77.46,90.06,77.46,89.72,77.46Z"/><path class="cls-4" d="M92.81,75.06h1.83V79a2,2,0,0,0,.11.91.6.6,0,0,0,.46.23h.45c.12,0,.23-.12.35-.12l.45.8a.33.33,0,0,1-.22.12,1.19,1.19,0,0,1-.35.11c-.11,0-.23.12-.34.12h-.46A1.21,1.21,0,0,1,94,80.66a1.71,1.71,0,0,1-.34-1.14V76h-.8Z"/><path class="cls-4" d="M97.84,75.06h1.83V79a2,2,0,0,0,.11.91.6.6,0,0,0,.46.23h.45c.12,0,.23-.12.35-.12l.45.8a.33.33,0,0,1-.22.12c-.12,0-.23.11-.35.11s-.23.12-.34.12h-.46A1.21,1.21,0,0,1,99,80.66a1.71,1.71,0,0,1-.34-1.14V76H98v-.91Z"/><path class="cls-4" d="M102.41,78.72a2,2,0,0,1,1.26-2.06,2.12,2.12,0,0,1,.91-.12,2.17,2.17,0,0,1,.92.12,2.4,2.4,0,0,1,.68.46,1.85,1.85,0,0,1,.57,1.6,2.3,2.3,0,0,1-.11.91,2.51,2.51,0,0,1-.46.69,2.35,2.35,0,0,1-.68.45,2.17,2.17,0,0,1-.92.12,2.12,2.12,0,0,1-.91-.12,2.26,2.26,0,0,1-.69-.45,2.51,2.51,0,0,1-.46-.69A2.3,2.3,0,0,1,102.41,78.72Zm1,0c0,.23,0,.34.11.45a.87.87,0,0,0,.23.46c.12.12.23.23.34.23s.23.11.46.11a1,1,0,0,0,.8-.34,1.39,1.39,0,0,0,.34-1,2.22,2.22,0,0,0-.22-.91,1,1,0,0,0-.8-.35.66.66,0,0,0-.46.12c-.12.11-.23.11-.34.23a.57.57,0,0,0-.23.45A1.18,1.18,0,0,0,103.44,78.72Z"/><path class="cls-4" d="M113.5,78.26V79h0l.11-.69.46-1.6h.8l.46,1.6.11.69h0v-.69l.23-3.2h1l-.57,5.83h-.92l-.57-1.83-.23-.8h0l-.23.8-.68,1.83h-1l-.57-5.83H113Z"/><path class="cls-4" d="M117.39,78.72a2.32,2.32,0,0,1,.11-.92,2.15,2.15,0,0,1,.46-.68,2.27,2.27,0,0,1,.68-.46,2.14,2.14,0,0,1,.92-.12,2.12,2.12,0,0,1,.91.12,2.31,2.31,0,0,1,.69.46,1.85,1.85,0,0,1,.57,1.6,2.3,2.3,0,0,1-.11.91,2.51,2.51,0,0,1-.46.69,2.26,2.26,0,0,1-.69.45,2.12,2.12,0,0,1-.91.12,2.14,2.14,0,0,1-.92-.12,2.23,2.23,0,0,1-.68-.45,1.88,1.88,0,0,1-.57-1.6Zm1.14,0c0,.23,0,.34.11.45s.12.35.23.46.23.23.34.23a.73.73,0,0,0,.46.11,1,1,0,0,0,.8-.34,1.39,1.39,0,0,0,.34-1,2.22,2.22,0,0,0-.22-.91,1,1,0,0,0-.8-.35.66.66,0,0,0-.46.12c-.12,0-.23.11-.34.23a.57.57,0,0,0-.23.45A.64.64,0,0,0,118.53,78.72Z"/><path class="cls-4" d="M122.42,80h1V77.69h-1v-.92h1.82l.12.57h0a1.12,1.12,0,0,1,.57-.45,1.57,1.57,0,0,1,.69-.23,1,1,0,0,1,.8.34,1.85,1.85,0,0,1,.34,1.26h-1c0-.23,0-.34-.11-.46s-.12-.11-.23-.11a.87.87,0,0,0-.57.11l-.35.34V80h1.83v.92h-3.88V80Z"/><path class="cls-4" d="M127.9,75.06h1.83V79a1.88,1.88,0,0,0,.12.91.58.58,0,0,0,.45.23h.46c.12,0,.23-.12.34-.12l.46.8a.34.34,0,0,1-.23.12c-.11,0-.23.11-.34.11s-.23.12-.34.12h-.46a1.2,1.2,0,0,1-1.14-.46,1.71,1.71,0,0,1-.35-1.14V76H128v-.91Z"/><path class="cls-4" d="M134.65,75.06h1.71v3.66a4.42,4.42,0,0,0,.12,1.25v.12h.57V81h-1.37l-.12-.57h0a.24.24,0,0,1-.23.23c-.11.11-.22.11-.34.23a.42.42,0,0,1-.34.11h-.46a1.52,1.52,0,0,1-.69-.11,3.42,3.42,0,0,1-.57-.34,1.44,1.44,0,0,1-.45-.69,2.38,2.38,0,0,1-.12-.91,2.14,2.14,0,0,1,.12-.92,2.26,2.26,0,0,1,.45-.69,2.47,2.47,0,0,1,.69-.45,2.12,2.12,0,0,1,.91-.12H135a.39.39,0,0,1,.34.12v-.8h-.68Zm-.23,5A1,1,0,0,0,135,80a1.32,1.32,0,0,0,.34-.45V77.8a.41.41,0,0,0-.34-.11h-.46a.69.69,0,0,0-.45.11c-.12.12-.23.12-.35.23a.6.6,0,0,0-.23.46,1.27,1.27,0,0,0-.11.68,2.08,2.08,0,0,0,.23.92C133.85,80,134.08,80.09,134.42,80.09Z"/><path class="cls-4" d="M137.39,78.37v-.45l3.89-2.4.46.8-3.09,1.82L141.74,80l-.46.8Z"/><path class="cls-4" d="M145.74,74.94l.8.35-3,6.74-.8-.34Z"/><path class="cls-4" d="M147.11,75.06h1.71v2.17h0a1.21,1.21,0,0,1,.58-.46,1.72,1.72,0,0,1,.8-.11.9.9,0,0,1,.57.11c.11.12.34.12.45.23a2.57,2.57,0,0,1,.35.57,1.76,1.76,0,0,1,.11.8V81h-1V78.49a1,1,0,0,0-.23-.69.88.88,0,0,0-.57-.23c-.23,0-.34.12-.57.23s-.34.23-.34.46v2.63h-1V76h-.57v-.91Z"/><path class="cls-4" d="M153.05,80h1.26V76.32l-1.14.8-.46-.69,1.94-1.49h.69v4.92h1.26v.91h-3.55V80Z"/><path class="cls-4" d="M158,80.66l-.46-.8L160.6,78l-3.09-1.83.46-.8,3.89,2.4v.46Z"/><rect class="cls-5" x="197.48" y="29.81" width="10.63" height="125.54"/><path class="cls-6" d="M206.78,139.42l-1.6-14.63s16.12-6,11.55-14.75c-2.06-4-9.49-.57-10.52,2.29l-2.05-16.58-28.59,3.32c-3.65,10.4-.8,28.69-.8,28.69,2.86,1.49,16.47.46,16.47.46l-.35,11.09"/><path class="cls-1" d="M191.35,131.65l7.78-5.26-7.78,1.71Z"/><path class="cls-1" d="M184.38,117.81H180.6l3.21-7.66Z"/><path class="cls-1" d="M187.35,112.21a1.86,1.86,0,1,1,1.49,2.17,1.94,1.94,0,0,1-1.49-2.17"/><path class="cls-1" d="M177.4,112.21a1.86,1.86,0,1,1,1.49,2.17,2,2,0,0,1-1.49-2.17"/><path class="cls-1" d="M183.81,121.93a4.2,4.2,0,0,0,3.88-1.94Z"/><path class="cls-7" d="M183.81,121.93a4.2,4.2,0,0,0,3.88-1.94"/><path class="cls-6" d="M158.31,391.73H196l-1.6-24.24L183.58,373l.11,8.46S164.83,384.41,158.31,391.73Zm58,0h25.84l-2.63-10.41-1.71-1.71-10.41-7.32.12,9.49A14.8,14.8,0,0,0,216.27,391.73Z"/><path class="cls-3" d="M227.48,381.78l-1.15-9.49L237.19,369l2.29,12.23Zm-43.79-.34-.11-8.46,10.86-3.32.91,11.21Z"/><path class="cls-1" d="M206.1,207.9h13.49l21.49,160.39H243l1,9.83H215.24l-1-9.83h1.71l-12.46-60-1.6,60.25h1.6V378H174.66v-9.49h1.49L173.4,207.9h32.7Z"/><path class="cls-6" d="M202.78,336.17,191.92,236l12,77.63Z"/><path class="cls-6" d="M124.24,151.65a23.49,23.49,0,0,1-3.77-2.28c-3.31-2.63-4.46-4.92-6.86-7.32-3.08-3.09-6.86-5.49-8.11-7a1.07,1.07,0,0,1,.11-1.49l.23-.23a1,1,0,0,1,1.37,0l8.46,5.95.23-.46-9.83-9.26a1.06,1.06,0,0,1,.11-1.49l.46-.45a.92.92,0,0,1,1.37.11l10.4,9.15.35-.35c.11-.11-8.12-9.14-10.41-12a1.1,1.1,0,0,1,.23-1.49l.69-.45a1,1,0,0,1,1.37.11l11.2,11.78.23-.35c.12-.11-5.6-8.11-7.43-10.74a1,1,0,0,1,.34-1.49l.46-.23a1.09,1.09,0,0,1,1.37.34l9.49,12.35a7.3,7.3,0,0,0,1.37,1c1-1.37.58-5,1.38-6.86,1-2.17,5.37-5.14,3.54-.69s-.11,7.44.23,9.95a41.74,41.74,0,0,1,.34,4.92l-.23,3.31Zm71-4.91c-10.75.68-7.66-6.4-7.66-6.4s5.94-2.06,10.63-2h11.32S206,146.17,195.24,146.74Zm27.21,80.59-8.58-7,20.81-29.15L227.13,175l18.41-8.23s10.52,15.89,10.29,24.7C255.49,201.84,222.45,227.33,222.45,227.33Z"/><path class="cls-3" d="M171.34,207.67c-2.85.12-6.05-1.26-5.37-4.91l4.12-21.27c-3.55,3.55-13.49,12.23-23.32,9.49-12.24-3.54-29.16-35.1-29.16-35.1L136.71,143l14.74,19.32,21.61-15.21c2.86-3.43,6.74-4.34,14.52-6.63,0,0,.11-.11-.12.69a2.06,2.06,0,0,1-.11.68,1.79,1.79,0,0,0-.11.92c0,.68,0,.45.34,1.25a3.83,3.83,0,0,0,1.37,1.6,9.27,9.27,0,0,0,3.43,1.26,25.75,25.75,0,0,0,5.94-.34c2.06-.34,5.84-1.72,7.66-3.66a14.48,14.48,0,0,0,2.63-3c.46-.8-.34-1.26.92-1.14,4,.45,10.52,1.48,13.15,2.74,13.14,6.17,24.46,24.46,24.46,24.46s9,14.87,8.46,25.27c-.91,16.35-29.15,37.15-29.15,37.15l-15.21-13.83,5.15-6.86Z"/><path class="cls-8" d="M165.86,185.26l7-14.06-2.63,10.29Z"/><path class="cls-9" d="M215.7,165.83,230.22,188l-12,17.15"/><path class="cls-1" d="M201.18,112.33l4.12,1a12.91,12.91,0,0,1,7.2-5c1.14-5.26,2.63-19.1-14.06-21.27-19.78-2.63-22.87,12-22.87,12l25.5-.35v13.61Z"/></svg>