<svg id="Calque_1" data-name="Calque 1" xmlns="http://www.w3.org/2000/svg" xmlns:xlink="http://www.w3.org/1999/xlink" viewBox="0 0 300 250"><defs><style>.cls-1,.cls-7,.cls-9{fill:none;}.cls-2{fill:#faf8f8;}.cls-3{clip-path:url(#clip-path);}.cls-4{fill:#dcfdfa;}.cls-4,.cls-5,.cls-6,.cls-8{fill-rule:evenodd;}.cls-5{fill:#86f1e6;}.cls-6{fill:#b1f8f0;}.cls-7{stroke:#86f1e6;stroke-width:0.82px;}.cls-8{fill:#c83820;}.cls-9{stroke:#fff;stroke-width:0.49px;opacity:0.15;isolation:isolate;}</style><clipPath id="clip-path"><rect class="cls-1" x="18.5" y="15.42" width="263" height="219.17"/></clipPath></defs><title>scene_team_responsive</title><rect class="cls-2" x="18.5" y="15" width="263" height="220"/><g class="cls-3"><path id="Tracé_23" data-name="Tracé 23" class="cls-4" d="M-236.65,221.2s16.45-44.4,78.53-46.41S-66.87,126.9-14.3,124.88s72.38,57.28,141.72,54.25,97.89,42.08,97.89,42.08Z"/><path id="Tracé_25" data-name="Tracé 25" class="cls-5" d="M150.4,78.39a32.29,32.29,0,0,1-.69,6.65c-3,14.6-15.89,19.57-31.29,19.57-17.66,0-32-8.44-32-26.23a32.1,32.1,0,0,1,32-32.19h0a32.07,32.07,0,0,1,32,32.17v0"/><path id="Tracé_26" data-name="Tracé 26" class="cls-4" d="M122.62,75.38c-.32.65-.65,1.38-1,2.15-2,4.26-4.4,9.58-6.8,8.64,0,0,.43-3.72-2.64-3.71a2.79,2.79,0,0,0-2.92,2.66h0v.26c0,2.21,1.64,3.38,3.27,4.56a9.26,9.26,0,0,1,2.7,2.5c1.2,2-1,12.5-1,12.5l9,3.56.7-8.69c3,.18,6.6,0,8.55-1.29,4.15-2.78,5.52-10.42,5.94-14.85A45.43,45.43,0,0,1,122.62,75.38Z"/><path id="Tracé_27" data-name="Tracé 27" class="cls-5" d="M132.25,86.16l2.2,5.38-2.55,0Z"/><path id="Tracé_28" data-name="Tracé 28" class="cls-6" d="M129.91,86.39c0,1.07-.68,1.91-1.4,1.87s-1.25-.94-1.2-2,.68-1.91,1.4-1.87,1.25.94,1.2,2"/><path id="Tracé_29" data-name="Tracé 29" class="cls-6" d="M136.64,86.22c0,1.07-.68,1.91-1.39,1.87s-1.27-1-1.2-2,.68-1.91,1.39-1.87,1.26,1,1.2,2"/><path id="Tracé_30" data-name="Tracé 30" class="cls-7" d="M131.27,94A3.3,3.3,0,0,1,128,92.72"/><path id="Tracé_31" data-name="Tracé 31" class="cls-5" d="M152.34,234.08l-.77,6.74s14.26,3.77,19.62,9.36l-26.58,0,1-19.29Zm30.6-31.31,3.06,6.07s14-4.8,21.57-3.1l-22,14.68-10-16.55Z"/><path id="Tracé_32" data-name="Tracé 32" class="cls-4" d="M145.28,232.63l7.07,2.83-.07,5.59-7.22-.27Zm31-27.43,7.46-1.57,3,4.71-6.19,3.8Z"/><path id="Tracé_33" data-name="Tracé 33" class="cls-5" d="M143.73,138,94.38,152.68l-1,9.43c-.65,9.27,8.25,17.25,17.48,17.25h0l32.32-.23-.75,58h16.93l3.65-40,10.72,15.75,14.37-9.67-26.15-54C156,138.66,152.86,135.92,143.73,138Z"/><path id="Tracé_34" data-name="Tracé 34" class="cls-5" d="M147.85,156.12h0l-37,23.24,32.32-.22-.76,58h16.93l5.81-63.46c1.45-11.55-5.75-17.58-17.32-17.58"/><path id="Tracé_35" data-name="Tracé 35" class="cls-8" d="M108.19,155.05l-2,0v-.1l2,.13"/><path id="Tracé_36" data-name="Tracé 36" class="cls-6" d="M150,177.43l-6.81.85L132.29,161.1l-.39-5.71-16.62-.25-7-.09h0l-2-.13c-8.94-.63-21.32-2.38-22.16-7.22-1.55-8.78,10.11-25.81,11.49-27.78l.12-.19a22.56,22.56,0,0,1,5.76-6.16,17.75,17.75,0,0,1,10.09-2.75l.86-6.22,13,1.8-.71,5.17c3.81.37,6.4,1.12,8.83,3.37,7.77,7.19,8.36,34.16,8.36,34.16Z"/><path id="Tracé_37" data-name="Tracé 37" class="cls-5" d="M142.89,170.39l-24.77-2.87a1.35,1.35,0,0,1-1.17-1.47,1.6,1.6,0,0,1,0-.21L126.79,131a1.33,1.33,0,0,1,1.42-1L153,132.9a1.33,1.33,0,0,1,1.16,1.47,1.55,1.55,0,0,1,0,.21l-9.79,34.83a1.32,1.32,0,0,1-1.43,1"/><path id="Tracé_38" data-name="Tracé 38" class="cls-4" d="M149.88,177.44c1.55,1.85,3.45,4.14,3.73,4.69a29,29,0,0,1,1.32,6.57c0,.92-2.81,5.09-2.81,5.09-1.71-.42-.59-2.58-.59-2.58s-1.53,1.32-2.17,1.29c-6-.2-5.69-3.27-5.55-3.65.32-.86,1.94.12,1.94.12s-3.08-6.3-2.34-10.71ZM131.6,154s1.06.27,1.08.95c0,.19-6.49,1.43-6.49,1.43l1.41.08,1.46-.07s.76.14.81.78c0,.25-1.34.53-2.92.73a13.78,13.78,0,0,1-5.92-.43l-.42-.12a16.34,16.34,0,0,1-4.86-1.8,21.21,21.21,0,0,1-3.12-2.21l1.64-6.12,2.27-.78a16,16,0,0,1,2.82-.74c1.12-.21,2.2-.13,3.35-.25l-.65,2.4a2.18,2.18,0,0,0-.22.31l.15.14c.48.43,1.36,1.2,5.18,2.16a28.68,28.68,0,0,0,3.34.23c.75.1,2.35.25,2.43,1.15,0,.22-.25.47-.25.47s1,.06,1.06,1c.08.34-2.15.7-2.15.7Z"/><path id="Tracé_40" data-name="Tracé 40" class="cls-5" d="M124.06,99.84s-3.58.11-5.11-.73l4.92,3.12Z"/><path id="Tracé_41" data-name="Tracé 41" class="cls-1" d="M131.68,155.32c1-12.18,7.54-14.76,2.79-28.43"/><path id="Tracé_42" data-name="Tracé 42" class="cls-9" d="M147,180.56a6.53,6.53,0,0,0,3.74,4.21c1,.35.76,4.47,3.24,4"/><path id="Tracé_43" data-name="Tracé 43" class="cls-1" d="M105.83,129.31l-6.26,10.43,15.54,6.19"/><path id="Tracé_44" data-name="Tracé 44" class="cls-6" d="M119.6,167.69l24.77,2.87a1.31,1.31,0,0,0,1.42-1l9.79-34.83a1.33,1.33,0,0,0-.91-1.64l-.21-.05-24.77-2.87a1.32,1.32,0,0,0-1.43,1l-5,17.91a19.71,19.71,0,0,0,4,1.33,24.88,24.88,0,0,0,3.34.23l.18,0c.8.1,2.17.29,2.27,1.13,0,.22-.24.46-.24.46s1,.07,1.06,1c0,.37-2.22.72-2.22.72s1.07.28,1.09.95c0,.19-6.49,1.43-6.49,1.43l1.41.08,1.46-.07s.77.15.81.78c0,.26-1.34.53-2.92.74a14,14,0,0,1-5.92-.44l-.15,0L118.46,166a1.32,1.32,0,0,0,.91,1.64h0Z"/><path id="Tracé_45" data-name="Tracé 45" class="cls-5" d="M130.78,133.45c-.2.62-.61,1-.93.93s-.42-.69-.23-1.3.61-1,.94-.94.41.69.22,1.31"/><path class="cls-6" d="M175.5,113.74s14.85-34.22,38.55-34.22c19.22,0,21.36,24.22,39,23.63s26.54-11.67,42.43-11.67c20.06,0,36.61,22.26,36.61,22.26Z"/></g></svg>