<svg id="Calque_1" data-name="Calque 1" xmlns="http://www.w3.org/2000/svg" viewBox="0 0 473.26 489.8"><defs><style>.cls-1,.cls-5{fill:#dcfdfa;}.cls-1,.cls-13,.cls-16,.cls-2,.cls-4{fill-rule:evenodd;}.cls-10,.cls-2{fill:#86f1e6;}.cls-3{opacity:0.4;}.cls-11,.cls-14,.cls-15,.cls-3,.cls-7,.cls-8,.cls-9{isolation:isolate;}.cls-12,.cls-4{fill:#b1f8f0;}.cls-6{fill:#cff7f2;}.cls-7{opacity:0.2;}.cls-8{opacity:0.15;}.cls-9{opacity:0.2;}.cls-11{opacity:0.2;}.cls-13{fill:#fff;}.cls-14{opacity:0.1;}.cls-15{opacity:0.4;}</style></defs><title>scene_projects_persona</title><path class="cls-1" d="M312,78c-1.28-6.5,1.81-12.58,6.93-13.54s10.35,3.3,11.62,9.81-1.81,12.58-6.93,13.54S313.24,84.4,312,78"/><path class="cls-2" d="M365.6,111.8l-5.55-17.27S378,83.44,370.4,74c-3.52-4.37-12.27,1.38-12.69,5.12l-6-19.41-33.6,11v.54c-2.55,13.22,6.19,34.33,6.19,34.33,3.84,1.07,19.83-3.52,19.83-3.52l2.35,13.55"/><g class="cls-3"><path class="cls-1" d="M345.23,107.11l9.38-9.6-10.45,4.59Z"/></g><path class="cls-1" d="M334,93.36l-4.58.85,1.92-10Z"/><path class="cls-4" d="M335.53,83.65a2.44,2.44,0,0,1,2.24-2.45,2.3,2.3,0,0,1,2.34,2.35A2.44,2.44,0,0,1,337.87,86a2.3,2.3,0,0,1-2.34-2.35"/><path class="cls-4" d="M322.73,86.32A2.44,2.44,0,0,1,325,83.87a2.3,2.3,0,0,1,2.35,2.34,2.44,2.44,0,0,1-2.24,2.45,2.52,2.52,0,0,1-2.35-2.34"/><path class="cls-1" d="M355.79,82.91a16,16,0,0,1,8.53-9.82,45.18,45.18,0,0,0,.21-8.63c-.42-8.32-7.78-14.51-12.9-15.68s-14.08-2.45-25.38,4c-3.95,2.35-7.68,1.92-10.88,1.5-2.88-.32-5.44-.64-7.36,1.17-7.25,6.4,4.59,25.59,24.21,16.1,14.08-6.82,14.61-5.86,15.36-3.2C349.71,77.15,352.16,82.05,355.79,82.91Z"/><path class="cls-5" d="M335.92,98.58l-.18-1a4.66,4.66,0,0,0,3.63-3.14l1,.29A5.7,5.7,0,0,1,335.92,98.58Z"/><path class="cls-6" d="M337.81,89.22a5.7,5.7,0,0,1-3.19-1,5.77,5.77,0,0,1-2.5-3.74A5.88,5.88,0,0,1,333,80a6,6,0,0,1,8.17-1.61,5.76,5.76,0,0,1,2.5,3.75A5.87,5.87,0,0,1,339,89.08,5.73,5.73,0,0,1,337.81,89.22Zm.12-10.7a4.4,4.4,0,0,0-1,.11h0A4.8,4.8,0,1,0,338.82,88a4.81,4.81,0,0,0,3.75-5.68,4.63,4.63,0,0,0-2-3A4.7,4.7,0,0,0,337.93,78.52Z"/><path class="cls-6" d="M324.48,91.88a5.82,5.82,0,0,1-5.69-4.72,6.05,6.05,0,0,1,.88-4.41,5.59,5.59,0,0,1,3.7-2.5,5.68,5.68,0,0,1,4.42.84,5.9,5.9,0,0,1-3.31,10.79Zm.13-10.7a5.05,5.05,0,0,0-1,.11h0a4.6,4.6,0,0,0-3,2,5,5,0,0,0-.72,3.64,4.83,4.83,0,0,0,8.73,1.69,4.82,4.82,0,0,0-4-7.48Z"/><rect class="cls-6" x="330.39" y="84.29" width="2.28" height="1.07" transform="translate(-10.02 63.66) rotate(-10.81)"/><rect class="cls-6" x="342.96" y="80.4" width="13.28" height="1.07" transform="translate(-9.13 71.99) rotate(-11.61)"/><path class="cls-1" d="M318.46,423h48.42l-2-31-14,7,.11,10.87C351.1,409.85,326.78,413.69,318.46,423Zm78.81,0h33.16l-3.3-13.43-1.28-12.16-14.29.64.11,12.15A19.82,19.82,0,0,0,397.27,423Z"/><path class="cls-2" d="M411.67,410.28l-.11-12.16,14-4.15,1.6,15.78Zm-60.57-.43L351,399l14-4.16,1.17,14.4Z"/><path class="cls-4" d="M430.75,405.27,400.68,190.61h-59.5l2,213.81,7.68.1,14.72.22h.11l3.73.1,3.41-162,32.74,162.41Z"/><g class="cls-7"><path class="cls-2" d="M371.36,292.66l-4.27-76.24,5.65,25.16Z"/></g><path class="cls-2" d="M340.11,236.89c.43.64,2.13,6.08-9.06,8.74-1.17.32-4.59-1.49-4.59-1.49s2.88,3.41-.21,4.91c0,0-6.72-6.51-7.15-8.11s-.53-10.45.11-12.37,8.32-15.14,8.32-15.14,6.4-.53,8.21,2c5,7.14.75,22.5.75,22.5S339.26,235.5,340.11,236.89Zm75.29-26.23a17.09,17.09,0,0,0-.11,3.3,26.28,26.28,0,0,1-.85,7.25c-1.49,6.08,2.77,2.88,3.94.11a9.06,9.06,0,0,0,.64-2.88A5.26,5.26,0,0,1,420.2,215l.21.21c.85.86,2.35,2.35,4.48,9.6a48.37,48.37,0,0,1,.75,6.18.4.4,0,0,0,.1.32c.32,1.5.75,4.06,2.35,4.16.42,0,.85-.53.85-.53a2.16,2.16,0,0,0,1.92,1.92c.64,0,1.17-4.16,1.17-4.16s.64,1.92,1.82,1.92c.32,0,2-12.26,2-12.26l.32,2.66v2.78s.32,1.38,1.5,1.38c.42,0,.85-2.56,1.06-5.54a25.38,25.38,0,0,0-1.38-11.09c-.22-.75-.43-1.5-.64-2a24.74,24.74,0,0,0-3.42-7.57,54.29,54.29,0,0,0-4.37-5.65L417.74,201l-1.28,4.27C416.57,205.32,415.82,207.24,415.4,210.66Z"/><g class="cls-8"><path d="M321.15,241.33l0-1.42c2.26,0,2.66-2,3-4.8.18-1.58.33-3,1.25-3.52,4.65-2.67,5.1-8.45,5.1-8.51l1.43.1c0,.27-.52,6.6-5.8,9.64-.31.19-.46,1.5-.57,2.45C325.23,237.65,324.81,241.25,321.15,241.33Z"/></g><path class="cls-1" d="M382.55,113.4c14.61,5.12,32.95,25.06,38.18,36.69,8.32,18.23,14.61,51.5,14.61,51.5L412,205.22l-11.73-30.71,2.77,16-62,12.59,2.77,12.9-3,10.66-22.61-7.14,8-45s-1-25,1.28-33.59a16.88,16.88,0,0,0,.53-2.24c1.6-6.83,2.88-12.16,14.93-19.94l-2.13-8,25.48-6.83,2.35,8.85C374,112,379,112.12,382.55,113.4Z"/><g class="cls-9"><polygon class="cls-10" points="399.8 178.48 391.02 157.24 376.98 141.71 378.74 140.12 393.06 155.95 401.99 177.57 399.8 178.48"/></g><g class="cls-11"><rect class="cls-10" x="336.53" y="170.31" width="2.38" height="33.14" transform="translate(-37.04 94.49) rotate(-15.11)"/></g><path class="cls-2" d="M331.26,413.69a9.6,9.6,0,1,1-9.6-9.59,9.55,9.55,0,0,1,9.6,9.59"/><path class="cls-2" d="M346.4,328.49H301.62l-8.32-53.64V233.48a36.47,36.47,0,0,1,72.94,0v41.37l4.37,25.7a24.4,24.4,0,0,1-24.21,27.94"/><path class="cls-4" d="M347,415.61H251.82a6.61,6.61,0,1,1,0-13.22H347a6.61,6.61,0,1,1,0,13.22"/><path class="cls-2" d="M296.39,407.83h6.08V328.49h-6.08Z"/><path class="cls-2" d="M333,328.49l-33.49,15.25L266,328.49Z"/><path class="cls-4" d="M295.43,415.61H283.06a6.61,6.61,0,1,1,0-13.22h12.37a6.61,6.61,0,1,1,0,13.22"/><path class="cls-2" d="M359.63,413.69a9.6,9.6,0,1,1-9.6-9.59,9.56,9.56,0,0,1,9.6,9.59"/><path class="cls-2" d="M318.78,319.64H241.69a9,9,0,0,1-9-9h0a9,9,0,0,1,9-9h77.09a9,9,0,0,1,9,9h0a8.88,8.88,0,0,1-9,9"/><path class="cls-2" d="M349.82,319.64H304a9,9,0,0,1-9-9h0a9,9,0,0,1,9-9h45.86a9,9,0,0,1,8.95,9h0a8.94,8.94,0,0,1-8.95,9"/><rect class="cls-12" x="54.02" y="178.96" width="6.26" height="56.14" transform="translate(-82.99 44.28) rotate(-25.3)"/><rect class="cls-12" x="38.86" y="166.63" width="58.22" height="6.26" transform="translate(-75.3 56.13) rotate(-29.76)"/><path class="cls-4" d="M51.13,237.53h45a7.38,7.38,0,0,0-7.36-7.36H58.59a7.32,7.32,0,0,0-7.46,7.36"/><path class="cls-4" d="M132.17,170.77a19,19,0,1,0-38,0"/><path class="cls-4" d="M169.71,233.37H106.26L91.33,184.21h63.45Z"/><path class="cls-13" d="M152.54,187.41l12.69,41.91H108.39L95.7,187.41Z"/><path class="cls-2" d="M152.75,200.31l.64,2h-46.6l-.64-2Z"/><path class="cls-2" d="M154.24,204.47l.64,2h-45.1l-.64-2Z"/><path class="cls-2" d="M155.63,208.52l.64,2H123.85l-.64-2Z"/><path class="cls-4" d="M216.09,233.37H152.64v4h63.45Z"/><path class="cls-1" d="M152.64,233.37H106.26v4h46.38Z"/><path class="cls-1" d="M106.26,233.37h-4L87.38,184.21h4Z"/><path class="cls-2" d="M350.46,237.42H110.63V250H350.46Z"/><path class="cls-4" d="M127.9,237.42H34.38V250H128V237.42Z"/><path class="cls-4" d="M72.35,250H57.63L42,423.93h4.27Z"/><path class="cls-4" d="M147,250H132.28L116.6,423.93h4.27Z"/><path class="cls-2" d="M150.4,192.42l.64,2h-46.6l-.64-2Z"/><path class="cls-2" d="M151.58,196.47l.64,2H110.63l-.64-2Z"/><path class="cls-2" d="M120.87,185.92l-1-1,1.17-.64,7.46,1-.64.74.43,1-.64,1-7.89-1Z"/><path class="cls-2" d="M154.35,423h49.59l-2-34-14.29,7.68.11,11.95C187.73,408.68,162.77,412.84,154.35,423Zm97-.11h35.94L283.7,407.3l-1.39-14.19-15.46.75L267,408C267.07,408.15,256,409.75,251.39,422.86Z"/><path class="cls-4" d="M267.07,408.15,267,394l15.14-4.91,1.71,18.24Zm-79.34.53-.11-11.94,14.29-4.59,1.17,15.79Z"/><path class="cls-2" d="M268.45,271.65H197a30.12,30.12,0,0,0-29.86,33.91l12.47,96.19h26.45l-1.17-93.84h45.32l9.7,93.84h26l-4.37-93.84h18.55a25.26,25.26,0,0,0,25.38-25.17V271.65H268.45Z"/><g class="cls-14"><path class="cls-13" d="M325.29,282.85A25.26,25.26,0,0,1,299.91,308H281.46l4.37,93.84h-26L248.62,293.41a19.72,19.72,0,0,1,19.73-21.65h56.83v11.09Z"/></g><g class="cls-15"><path class="cls-16" d="M278.9,171.84l11.84-8.1L278.8,166.3Z"/></g><path class="cls-13" d="M270.16,158.94a5.78,5.78,0,0,0,5-2.88Z"/><path class="cls-2" d="M264.72,154.46c-17.28-4.37-4.59-21-4.59-21Z"/><path class="cls-1" d="M304.5,190.72l-2.14-19.2s20.48-5.65,17-16.42c-2.77-8.32-14.18-3.73-15.46,0l-2.78-21.86L277,131.43,262.05,145c-2.77,12.58.11,30.39.11,30.39,3.84,2,22,.53,22,.53l-.43,14.61"/><path class="cls-2" d="M313.24,150.41c-7.25.21-9.38,4.69-9.38,4.69-12.27-2.13-7.68-12.48-7.68-12.48-53.64,18.45-53.53-19.41-49.7-21s10.67,9.71,10.67,9.71,2.13-20.9,15.57-21c9.49,0,12.9,14.4,12.9,14.4s12.16-7.36,25.7,6.82,1.92,18.88,1.92,18.88"/><polygon class="cls-10" points="307.87 129.86 300.42 127.57 301.71 116.33 306.43 116.87 305.59 124.19 306.46 124.46 312.27 118.38 315.7 121.66 307.87 129.86"/><path class="cls-2" d="M275,164.06l-4.91-.11,4.16-10.13Z"/><path class="cls-2" d="M279.12,154.89a2.49,2.49,0,1,1,2,2.87,2.38,2.38,0,0,1-2-2.87"/><path class="cls-2" d="M266.11,154.89a2.49,2.49,0,1,1,2,2.87,2.44,2.44,0,0,1-2-2.87"/><path class="cls-12" d="M275.67,169.54h-.21l.06-2a4.75,4.75,0,0,0,4.1-2.36l1.76.95A6.76,6.76,0,0,1,275.67,169.54Z"/><path class="cls-1" d="M253.74,306.63c.32.75.85,6.4-10.56,6.72C242,313.35,239,311,239,311s2.13,3.95-1.17,4.8c0,0-5.23-7.68-5.33-9.38s1.59-10.35,2.55-12.16S246.16,281,246.16,281s6.4.74,7.58,3.52c3.52,8-3.74,22.18-3.74,22.18S253.2,305,253.74,306.63ZM332,299.17a25.14,25.14,0,0,1-2.24,6.93c-2.77,5.65,2.13,3.3,3.94.85a11.61,11.61,0,0,0,1.18-2.67c.42-1.28.74-2.45,1.81-3.09a.23.23,0,0,0,.21.21c.64,1,1.82,2.78,2.56,10.24a54.67,54.67,0,0,1-.53,6.29v.32c0,1.5-.11,4.16,1.39,4.48.42.11,1-.32,1-.32s-.11,1.92,1.49,2.24c.64.11,1.92-3.84,1.92-3.84s.21,2,1.38,2.24c.32.11,4.48-11.62,4.48-11.62l-.21,2.66-.53,2.67s0,1.49,1.17,1.71c.43.1,1.39-2.35,2.13-5.23a25.64,25.64,0,0,0,.85-11.09c-.1-.53-.1-1.07-.21-1.6a36.49,36.49,0,0,0-2.13-9.81L335.1,290a57.2,57.2,0,0,0-2.35,5.87C332.43,297,332.22,298.1,332,299.17Z"/><g class="cls-11"><path class="cls-10" d="M235.24,307.69a4.91,4.91,0,0,1-1-.11l.47-2.33c1.66.35,2.32-.83,3.28-3.76.55-1.68,1-3.13,2.29-3.56,4.89-1.59,6.36-6.91,6.38-7l2.29.61c-.07.27-1.83,6.62-7.92,8.61a10.26,10.26,0,0,0-.78,2C239.53,304.32,238.43,307.69,235.24,307.69Z"/></g><path class="cls-4" d="M252.78,242.43s4-24.63,7.89-32.63c3-6.29,4.37-11.3,14.07-16.1h0c.64-.32,1.39-.64,2.14-1.06.53-.22,1.17-.54,1.7-.75,1-.43,2.14-.85,3.2-1.28,0,0,14.5-1.6,26.55,0,1.18.11,2.46.32,3.52.53a27,27,0,0,1,8.11,2.77c13.22,8,27.3,31.14,30.18,43.62,4.47,19.62,4.05,53.42,4.05,53.42l-23.68-1.06-5.43-32.53-.43,16.21H261.52l.11,13.12-5.12,9.81L235.82,285Z"/><path class="cls-2" d="M286.69,212.26l15.46-21.44,7.25-.32-3.62-9.7-12.8.64-5,8.42L282.85,182l-3.41.21-1.6,9.71,2.13-.11Z"/><path class="cls-4" d="M290.1,189.54,300,193l-3.74-9.07Zm-11.73,4,7.89-3.63-6-4.9Z"/><circle class="cls-10" cx="325.02" cy="86.26" r="1.16"/><circle class="cls-10" cx="337.86" cy="83.6" r="1.16"/></svg>