<svg id="Calque_1" data-name="Calque 1" xmlns="http://www.w3.org/2000/svg" viewBox="0 0 297.48 343.74"><defs><style>.cls-1,.cls-5{fill:#b1f8f0;}.cls-2{fill:#cff7f2;}.cls-3,.cls-6{fill:#86f1e6;}.cls-4{fill:#dcfdfa;}.cls-4,.cls-5,.cls-6{fill-rule:evenodd;}</style></defs><title>scene_projects_window</title><rect class="cls-1" x="142.43" y="56.61" width="10.06" height="248.61"/><rect class="cls-2" x="147.22" y="47.71" width="7.77" height="258.31"/><rect class="cls-3" x="62.6" y="46.57" width="9.15" height="260.13"/><rect class="cls-1" x="220.2" y="48.74" width="10.06" height="255.57"/><path class="cls-4" d="M234.81,46.57H70V306.7H234.81Zm-10,10H80.06V296.55H224.78Z"/><path class="cls-5" d="M266.86,306.7H62.72v12.78H266.86Z"/><path class="cls-6" d="M110.17,306.7H59.65v12.78h50.52Z"/><rect class="cls-2" x="70.02" y="133.58" width="152.25" height="7.77"/><rect class="cls-2" x="70.02" y="214.43" width="152.25" height="7.77"/><path class="cls-6" d="M163.77,291.76a22.61,22.61,0,0,1-8.22,14.94h-29a22.55,22.55,0,0,1-8.21-14.94Z"/><path class="cls-6" d="M163.77,279.22a22.87,22.87,0,0,1-45.39,0Z"/><path class="cls-5" d="M203.57,297.24a8.45,8.45,0,0,1-8.44,9.35H186.8a8.45,8.45,0,0,1-8.44-9.35l4.91-48h15.28l5,48"/></svg>