<svg id="Calque_1" data-name="Calque 1" xmlns="http://www.w3.org/2000/svg" viewBox="0 0 294.41 359.67"><defs><style>.cls-1,.cls-2,.cls-9{fill:none;}.cls-1,.cls-2{stroke:#b1f8f0;}.cls-1{stroke-width:5.42px;}.cls-2{stroke-linecap:round;stroke-width:9.75px;}.cls-3{fill:#19141e;}.cls-10,.cls-3,.cls-4,.cls-5,.cls-6,.cls-7{fill-rule:evenodd;}.cls-4{fill:#405fd3;}.cls-5,.cls-8{fill:#86f1e6;}.cls-6{fill:#dcfdfa;}.cls-7{fill:#b1f8f0;}.cls-9{stroke:#cff7f2;stroke-width:2.53px;}.cls-10{fill:#fff;}</style></defs><title>scene_research_robot</title><path class="cls-1" d="M99.08,221.13l-7.56-8.27,11-14.18,13.23,11.46L111,220.19"/><path class="cls-1" d="M181.8,220.42,175,211.56l12.29-13.12,12.17,12.65-5.68,9.57"/><path class="cls-2" d="M187.35,160.86l-5.43-40.06"/><path class="cls-2" d="M100,159.68l5.79-40.06"/><path class="cls-3" d="M164.43,137.23h-15.6a4.23,4.23,0,0,1-4.25-4.25v-15.6a4.24,4.24,0,0,1,4.25-4.26h15.6a4.24,4.24,0,0,1,4.25,4.26V133a4.16,4.16,0,0,1-4.25,4.25"/><path class="cls-4" d="M160.53,137.23H149a4.24,4.24,0,0,1-4.26-4.25v-15.6a4.24,4.24,0,0,1,4.26-4.26h11.58a4.24,4.24,0,0,1,4.25,4.26V133a4.31,4.31,0,0,1-4.25,4.25"/><path class="cls-5" d="M106.41,132.38h-.36a13.12,13.12,0,1,1,4.37-25.52,37.78,37.78,0,0,1,65.23-1.54,12.44,12.44,0,0,1,4.26-.71A13.14,13.14,0,0,1,181,130.85a37.82,37.82,0,0,1-74.56,1.53ZM83.6,168.54a9.75,9.75,0,0,1,9-10.39l13.35-1a9.76,9.76,0,0,1,10.4,9l2.25,30.49a9.76,9.76,0,0,1-9,10.4L96.24,208a9.75,9.75,0,0,1-10.4-9Zm87.33-2.36a9.55,9.55,0,0,1,9.69-9.57l13.47.12a9.55,9.55,0,0,1,9.57,9.69l-.12,30.6a9.57,9.57,0,0,1-9.69,9.58l-13.47-.12a9.55,9.55,0,0,1-9.57-9.69Z"/><path class="cls-6" d="M129.1,90.32h29V80.74h-29Z"/><path class="cls-7" d="M160.53,137.23a4.23,4.23,0,0,0,4.25-4.25v-15.6a4.24,4.24,0,0,0-4.25-4.26h4a4.24,4.24,0,0,1,4.25,4.26V133a4.23,4.23,0,0,1-4.25,4.25Z"/><path class="cls-8" d="M90.93,167.84l1.65-.12h0Zm-1.78-1.42L89,164.76h0Zm4.26,31.9-1.66.12h0Zm-1.54,1.78-.12-1.66Zm-1.77-1.42-1.66.12h0Zm-2.36-30.61-1.66.12h0Zm9.21-.71,1.66-.12h0Zm-1.77-1.53-.12-1.66h0Zm4.14,32-1.66.12h0Zm-1.54,1.77L97.66,198Zm-1.65-1.53-1.66.12h0ZM93.64,167.6l-1.65.12h0Zm-1.06.12a3.24,3.24,0,0,0-3.54-3l.23,3.19h0Zm2.36,30.49-2.36-30.49-3.19.23,2.36,30.49Zm-3,3.54a3.22,3.22,0,0,0,3-3.54l-3.19.23h0Zm-3.55-2.95A3.23,3.23,0,0,0,92,201.75l-.24-3.19h0Zm-2.36-30.61,2.36,30.49,3.2-.24L89.27,168Zm3-3.43a3.23,3.23,0,0,0-3,3.55l3.19-.24h0Zm9.45,2.48a3.23,3.23,0,0,0-3.55-3l.24,3.19h0ZM101,197.73l-2.36-30.49-3.19.24L97.78,198Zm-3.07,3.55a3.23,3.23,0,0,0,2.95-3.55l-3.19.24h0Zm-3.43-3.07A3.23,3.23,0,0,0,98,201.16L97.78,198h0ZM92,167.72l2.36,30.49,3.19-.24-2.36-30.49Zm3.07-3.43a3.23,3.23,0,0,0-3,3.55l3.19-.24h0Z"/><path class="cls-7" d="M160.53,137.23H149a4.24,4.24,0,0,1-4.26-4.25v-15.6a4.24,4.24,0,0,1,4.26-4.26h11.58a4.24,4.24,0,0,1,4.25,4.26V133A4.31,4.31,0,0,1,160.53,137.23ZM151,124.11a3.07,3.07,0,1,0-3.08-3.07A3.05,3.05,0,0,0,151,124.11Zm8.62,0a3.07,3.07,0,1,0-3.07-3.07A3.13,3.13,0,0,0,159.58,124.11ZM151,132.86a3.08,3.08,0,1,0-3.08-3.08A3,3,0,0,0,151,132.86Z"/><path class="cls-5" d="M92.58,119.15A13.12,13.12,0,1,0,105.7,106a13.17,13.17,0,0,0-13.12,13.12"/><path class="cls-5" d="M171.16,166.3l-.11,30.61a9.63,9.63,0,0,0,9.57,9.69l13.35.11a9.63,9.63,0,0,0,9.69-9.57l.12-30.6a9.63,9.63,0,0,0-9.57-9.69l-13.47-.12a9.46,9.46,0,0,0-9.58,9.57"/><path class="cls-5" d="M175.65,105.44a12.44,12.44,0,0,1,4.26-.71A13.14,13.14,0,0,1,181,131a42,42,0,0,0,.36-5.56,37.12,37.12,0,0,0-5.68-20Z"/><path class="cls-7" d="M239.35,333.27h-194c.95-24,15-34.27,36.64-34.86,14.18-40.17,45.37.83,47.62-31,2.6-37.46,3.42-81.53,3.42-81.53l18.44.35S153,209.9,156.16,258c2.24,34,25.28,2.48,55.54,23.16,15.24,10.4,14.53,35.69,14.53,35.69s13.12.59,13.12,16.42"/><path class="cls-6" d="M112,333.27H64.34a24.31,24.31,0,0,1,21.27-19.49,26.94,26.94,0,0,1,6.14.11,30.21,30.21,0,0,1,3.43.83A24.78,24.78,0,0,1,112,333.27"/><path class="cls-6" d="M217.72,333.27H192a14,14,0,0,1,8.86-10.39,10.16,10.16,0,0,1,3.31-.6H206c5.68.6,10.28,5.09,11.7,11"/><path class="cls-6" d="M175.89,333.27H102.27a35.28,35.28,0,0,1,.24-9.33,30.12,30.12,0,0,1,1.06-4.73A37.09,37.09,0,0,1,144.69,293a38.3,38.3,0,0,1,12.18,4.13,37,37,0,0,1,19,36.16"/><path class="cls-6" d="M117.4,263.44a7.29,7.29,0,1,1-6.15-8.28,7.38,7.38,0,0,1,6.15,8.28"/><path class="cls-6" d="M170.22,264.85a3,3,0,1,1-2.48-3.42,3.06,3.06,0,0,1,2.48,3.42"/><path class="cls-6" d="M258.49,301a6.94,6.94,0,1,1-5.79-7.91,6.93,6.93,0,0,1,5.79,7.91"/><path class="cls-6" d="M155.09,191.12H130.75l-9.22-19.38h42.78Zm9.81-19.38h-44a4.61,4.61,0,1,1,0-9.22h44a4.54,4.54,0,0,1,4.61,4.61A4.7,4.7,0,0,1,164.9,171.74Z"/><path class="cls-5" d="M155,191.12H130.63l-9.22-19.38h42.78Z"/><path class="cls-9" d="M166.32,58.88V33.71"/><path class="cls-5" d="M168.56,69.64H158.17V54.16h10.39a7.86,7.86,0,0,1,7.8,7.8,7.77,7.77,0,0,1-7.8,7.68"/><path class="cls-7" d="M160.76,28.75a5.62,5.62,0,0,1,5.56-4.85,5.68,5.68,0,0,1,0,11.35,5.43,5.43,0,0,1-5.08-3.31l-3.9-3L152,33.12,146.7,29l-5.32,4.13L136.07,29l-5.32,4.13-3-2.24a5.67,5.67,0,1,1-.12-2.84l3.07,2.36,5.32-4.13,5.31,4.13,5.32-4.13L152,30.4l5.32-4.13Zm3.55,52.35H123.78A5.8,5.8,0,0,1,118,75.31V48.48a5.8,5.8,0,0,1,5.79-5.79h40.53a5.8,5.8,0,0,1,5.79,5.79V75.31A5.8,5.8,0,0,1,164.31,81.1Z"/><path class="cls-8" d="M135.83,28.87,130.51,33l-2.95-2.24-.12-2.84,3.07,2.37,5.32-4.14,5.32,4.14,5.32-4.14,5.31,4.14,5.32-4.14,3.43,2.72.59,3.07-4-3.07L151.78,33l-5.31-4.13L141.15,33Z"/><path class="cls-5" d="M116,69.64h10.4V54.16H116a7.86,7.86,0,0,0-7.8,7.8,7.77,7.77,0,0,0,7.8,7.68"/><path class="cls-5" d="M159.11,62.55c0,6.26-4,11.34-9.1,11.34s-9.1-5.08-9.1-11.34,4-11.35,9.1-11.35,9.1,5,9.1,11.35"/><path class="cls-10" d="M154.86,62.55c0,6.26-4,11.34-9.1,11.34s-9.1-5.08-9.1-11.34,4-11.35,9.1-11.35,9.1,5,9.1,11.35"/><path class="cls-5" d="M150.37,61.72c0,2.24-1.42,4-3.19,4s-3.2-1.78-3.2-4,1.42-4,3.2-4,3.19,1.77,3.19,4"/><path class="cls-9" d="M122,58.88v-24"/></svg>