<svg id="Calque_1" data-name="Calque 1" xmlns="http://www.w3.org/2000/svg" viewBox="0 0 190.32 231.37"><defs><style>.cls-1,.cls-4{fill:#86f1e6;}.cls-1,.cls-10,.cls-2,.cls-4,.cls-5{fill-rule:evenodd;}.cls-10,.cls-2{fill:#dcfdfa;}.cls-3,.cls-6,.cls-7,.cls-8,.cls-9{fill:none;}.cls-3,.cls-6,.cls-8,.cls-9{stroke:#b1f8f0;}.cls-10,.cls-3{stroke-miterlimit:10;}.cls-3{stroke-width:1.08px;}.cls-4,.cls-6,.cls-7,.cls-8{isolation:isolate;}.cls-5{fill:#b1f8f0;}.cls-6,.cls-7,.cls-8{stroke-width:0.85px;}.cls-6{opacity:0.2;}.cls-7{stroke:#000;opacity:0.15;}.cls-8{opacity:0.2;}.cls-9{stroke-linecap:round;stroke-width:1.42px;}.cls-10{stroke:#dcfdfa;stroke-width:0.18px;}</style></defs><title>scene_research_scientist</title><path class="cls-1" d="M45,17.06C47.13,8.56,56.06,3.93,64.23,6s12.49,9.9,10.33,18.5S64.13,38.26,56,36.32A15.79,15.79,0,0,1,45,17.06"/><path class="cls-1" d="M72.52,17.49c11-1,8.28,10.65,6.24,16.89-2.15,7,1,11.08,1,11.08l13.45-6.67c-5.92-5.91-.65-10.22-3-17.86-2-6.88-9.26-9.14-13.56-8.5a12.65,12.65,0,0,0-5.17,1.94,1.71,1.71,0,0,0,1.08,3.12"/><path class="cls-2" d="M47.88,33.52c-3.87-4.2-1.51-14.85-1.29-15.39l4.95-3.33s7.42-.86,8.07.54c1.07,2.47,1.61,12.48,4.62,12.05,0,0,.43-3,2.8-2.37a2.26,2.26,0,0,1,1.72,2.91c-.64,2.47-3.44,2.36-5.38,3.44-.43,3-1.5,10.65-1.5,10.65l-8.61,1.29,1.18-7c-2.47-.54-5.27-1.4-6.56-2.8"/><path class="cls-1" d="M49.71,28.14l-2.05-.43L50.46,24Z"/><path class="cls-1" d="M52.29,24.48c.22-.86.75-1.5,1.29-1.4s.86.87.76,1.73-.76,1.5-1.3,1.39-1-.86-.75-1.72"/><path class="cls-1" d="M46.91,23.08c.22-.86.75-1.5,1.29-1.39s.86.86.76,1.72-.76,1.5-1.3,1.29c-.53,0-.86-.75-.75-1.62"/><path class="cls-3" d="M52.51,29.86a2.67,2.67,0,0,1-2.91.43"/><path class="cls-4" d="M54.13,38.36,59,36.75c-1.51.43-4.52-.43-4.52-.43Z"/><path class="cls-1" d="M63.7,12.75l-12.48-.86c2.36,13.67,13,15.5,13,15.5"/><path class="cls-1" d="M46.16,16.63l-.86,5.59c5.92-3,8.07-11.72,8.07-11.72"/><path class="cls-1" d="M75,225.26H60.47l.64-7.64,6.14.33C67.25,217.84,71.87,219,75,225.26Zm-38.3-7.53.54,7.64H16.57c4.3-4.52,15.82-7.42,15.82-7.42Z"/><path class="cls-2" d="M62.84,218.59l-1.4.22L56.49,142.2l15.92,7.42-6,67.57c1,.65,6.88,4.74,3.65,4.63a9.86,9.86,0,0,1-7.2-3.23ZM34.75,183c1.62-16.47,3.12-31.42,3.12-31.42l13.67.64-15,66.5H35c-2.58,1.29-7.64,3.44-12.7,2.9l8.18-3.55C30.88,214.93,32.92,201.27,34.75,183Z"/><path class="cls-1" d="M45.51,81.3,33.25,153.49H80.91s-1.4-44.76-6.35-59.5c-3.65-11.08-8-13-8-13Z"/><path class="cls-5" d="M36.37,82.16s.53-25.72,8-32.5c2.37-2.15,4.84-2.8,8.5-3.23l-.65-5,12.48-1.72.87,5.92a17.29,17.29,0,0,1,9.68,2.58,22.33,22.33,0,0,1,5.49,5.81.36.36,0,0,0,.1.22c1.3,1.83,12.49,18.07,11,26.47-.86,4.62-12.7,6.24-21.2,6.88-.64,0-1.29.11-1.93.11h0l-6.78.11-15.93.21-.43,5.49L35.08,109.92l-6.46-.86Z"/><path class="cls-6" d="M43.36,61.07c-4.52,13,1.72,15.49,2.69,27"/><path class="cls-7" d="M24.75,119.92c2.36.43,2.15-3.44,3.12-3.76a6.08,6.08,0,0,0,3.55-4"/><path class="cls-8" d="M61.87,79.14l14.95-5.91-6-9.9"/><path class="cls-9" d="M35.29,57.09s5.7,1.72,7.86,7"/><path class="cls-1" d="M43.9,79.9,29.48,84.2a6,6,0,0,1-7.42-4l-1.19-3.87a6,6,0,0,1,4-7.43L61.22,58a6,6,0,0,1,7.43,4l1.18,3.87a6,6,0,0,1-4,7.43L52.18,77.31l3.45,11.41-8.29,2.47ZM39,55.9a3,3,0,1,1-5.81,1.72,3,3,0,0,1,2-3.76A3,3,0,0,1,39,55.9Z"/><path class="cls-2" d="M28.08,84.31h0a6,6,0,0,1-7.42-4l-1.19-3.88A6,6,0,0,1,30.88,73l1.18,3.87a6.08,6.08,0,0,1-4,7.43"/><path class="cls-5" d="M34.64,74a4.56,4.56,0,1,0,3-5.7,4.65,4.65,0,0,0-3,5.7"/><path class="cls-2" d="M37.23,71.07a2.08,2.08,0,1,0,1.4-2.58,2.1,2.1,0,0,0-1.4,2.58"/><path class="cls-5" d="M56,67.52a4.56,4.56,0,1,0,3-5.7,4.61,4.61,0,0,0-3,5.7"/><path class="cls-2" d="M57.35,64.72a2.08,2.08,0,1,0,4-1.18,2.11,2.11,0,0,0-2.58-1.4,2,2,0,0,0-1.4,2.58"/><path class="cls-2" d="M47.77,66.77l4.84,1.83-3,4.19"/><path class="cls-2" d="M34.86,109.92c.75,4.19-2.26,10.22-2.26,10.22s1.51-1,1.83-.11c.11.32.43,3.34-5.27,3.44-.65,0-2.05-1.18-2.05-1.18s1.08,2-.53,2.47c0,0-2.69-4-2.69-4.84a32.22,32.22,0,0,1,1.29-6.24,37.16,37.16,0,0,1,3.55-4.41ZM44,86.14a1.13,1.13,0,0,1,1-1,.78.78,0,0,1-.21-.43c.11-.86,1.61-1,2.37-1.08a21,21,0,0,0,3.22-.21c3.66-1,4.52-1.62,4.95-2l.11-.1c-.11-.11-.11-.22-.21-.33l-.65-2.26a31.86,31.86,0,0,1,3.23.22,13.25,13.25,0,0,1,2.69.75l2.15.75,1.61,5.81a23.75,23.75,0,0,1-3,2.16,14.61,14.61,0,0,1-4.62,1.72c-.11,0-.22.11-.44.11a13.57,13.57,0,0,1-5.7.43c-1.5-.22-2.8-.43-2.8-.65,0-.65.76-.75.76-.75l1.4.1,1.4-.1S45,88.07,45,87.86c0-.65,1.08-.86,1.08-.86S44,86.46,44,86.14Z"/><path class="cls-5" d="M54.66,78.61a5.4,5.4,0,0,1-1.72-.33c-1-.32-1.62,0-.65.76s2.8,1.5,3,1.82"/><path class="cls-1" d="M168.78,187.8v-3.6h12.87a3.5,3.5,0,0,0,3.51-3.51V169.48a3.5,3.5,0,0,0-3.51-3.51H169.17v-3.22a2,2,0,0,0-2-2.05H125.31a2,2,0,0,0-2,2.05v6.53a2,2,0,1,0,4.09,0v-4.39h9c1.85,1.27,2.93,2.73,2.93,4.39,0,4-6.34,7.22-14.14,7.22S111,173.28,111,169.28c0-3.61,5.27-6.63,12.19-7.12a2.08,2.08,0,0,1,2-1.46h23.4c-5.27-3.7-13.75-6.14-23.4-6.14-15.89,0-28.86,6.63-28.86,14.72v12c0,8.09,12.87,14.72,28.86,14.72,9.65,0,18.13-2.43,23.4-6.14h18.13A2,2,0,0,0,168.78,187.8Zm-6.53-3.6h2.44v1.56h-12a8.34,8.34,0,0,0,1.36-4.49h0V169.38h0A8,8,0,0,0,152.7,165H165v1.17h-2.82a3.5,3.5,0,0,0-3.51,3.51v11.21A3.61,3.61,0,0,0,162.25,184.2Z"/><path class="cls-5" d="M123.25,162.16a1.27,1.27,0,0,0-.1.6v6.67a2.09,2.09,0,0,0,4.18,0v-4.58h9.25c1.89,1.29,3.09,2.79,3.09,4.58,0,4.08-6.47,7.36-14.43,7.36s-14.43-3.28-14.43-7.36c.1-3.69,5.47-6.77,12.44-7.27Z"/><path class="cls-5" d="M171.9,166V184.2h6.24V166Z"/><path class="cls-10" d="M152.7,186c0-.1.1-.1.1-.19h11.79V184.1h4.1v3.7a2,2,0,0,1-2.05,2c-7.9,0-13.84.1-17.84.1a.82.82,0,0,0,.39-.39l.29-.29.1-.1c-5.07,4.09-14.14,6.92-24.37,6.92-15.89,0-28.86-6.63-28.86-14.72V170c.59,7.9,13.26,14.14,28.86,14.14,15.89,0,28.76-6.53,28.85-14.62v11.89h0A8.62,8.62,0,0,1,152.7,186Zm-1.95,2.34a1.27,1.27,0,0,1-.39.29c.1,0,.19-.09.39-.29Zm-23.4-23.4v4.49a2,2,0,1,1-4.09,0v-6.53a2,2,0,0,1,2-2h41.82a2,2,0,0,1,2,2v6.53a2,2,0,1,1-4.09,0v-4.49Z"/></svg>