<svg id="Calque_1" data-name="Calque 1" xmlns="http://www.w3.org/2000/svg" xmlns:xlink="http://www.w3.org/1999/xlink" viewBox="0 0 300 250"><defs><style>.cls-1{fill:none;}.cls-16,.cls-2{fill:#fff;}.cls-3{clip-path:url(#clip-path);}.cls-4,.cls-8{fill:#b1f8f0;}.cls-5{fill:#cff7f2;}.cls-6,.cls-9{fill:#86f1e6;}.cls-11,.cls-7{fill:#dcfdfa;}.cls-16,.cls-19,.cls-7,.cls-8,.cls-9{fill-rule:evenodd;}.cls-10{opacity:0.4;}.cls-10,.cls-12,.cls-13,.cls-14,.cls-15,.cls-17,.cls-18{isolation:isolate;}.cls-12{opacity:0.2;}.cls-13{opacity:0.15;}.cls-14{opacity:0.2;}.cls-15{opacity:0.2;}.cls-17{opacity:0.1;}.cls-18{opacity:0.4;}</style><clipPath id="clip-path"><rect class="cls-1" x="18.5" y="15" width="263" height="220"/></clipPath></defs><title>scene_projects_responsive</title><rect class="cls-2" x="18.5" y="15" width="263" height="220"/><g class="cls-3"><rect class="cls-4" x="41.81" y="4.68" width="4.7" height="116.04"/><rect class="cls-5" x="44.05" y="0.53" width="3.63" height="120.57"/><rect class="cls-6" x="4.55" width="4.27" height="121.42"/><rect class="cls-4" x="78.12" y="1.01" width="4.7" height="119.29"/><path class="cls-7" d="M84.93,0H8V121.42H84.93ZM80.25,4.68H12.7v112H80.25Z"/><path class="cls-8" d="M99.89,121.42H4.61v6H99.89Z"/><path class="cls-9" d="M26.75,121.42H3.17v6H26.75Z"/><rect class="cls-5" x="8.02" y="40.61" width="71.06" height="3.63"/><rect class="cls-5" x="8.02" y="78.35" width="71.06" height="3.63"/><path class="cls-9" d="M51.77,114.45a10.56,10.56,0,0,1-3.83,7H34.42a10.48,10.48,0,0,1-3.83-7Z"/><path class="cls-9" d="M51.77,108.59a10.67,10.67,0,0,1-21.18,0Z"/><path class="cls-8" d="M70.35,117a4,4,0,0,1-3.94,4.37H62.52A3.94,3.94,0,0,1,58.59,117l2.28-22.41H68L70.35,117"/><path class="cls-7" d="M226.14,77.6c-.59-3,.82-5.73,3.16-6.17s4.71,1.51,5.29,4.47-.82,5.74-3.16,6.18-4.71-1.56-5.29-4.48"/><path class="cls-9" d="M250.59,93l-2.53-7.87s8.17-5.06,4.71-9.38c-1.6-2-5.59.63-5.78,2.33l-2.72-8.85-15.32,5v.24c-1.16,6,2.82,15.66,2.82,15.66,1.75.48,9-1.61,9-1.61l1.07,6.17"/><g class="cls-10"><path class="cls-7" d="M241.3,90.87l4.28-4.37-4.76,2.09Z"/></g><path class="cls-7" d="M236.2,84.6l-2.09.39.87-4.57Z"/><path class="cls-8" d="M236.88,80.18a1.12,1.12,0,0,1,1-1.12A1.05,1.05,0,0,1,239,80.13a1.11,1.11,0,0,1-1,1.12,1,1,0,0,1-1.07-1.07"/><path class="cls-8" d="M231.05,81.4a1.11,1.11,0,0,1,1-1.12,1.05,1.05,0,0,1,1.07,1.07,1.12,1.12,0,0,1-1,1.12,1.15,1.15,0,0,1-1.06-1.07"/><path class="cls-7" d="M246.11,79.84A7.29,7.29,0,0,1,250,75.37a20.35,20.35,0,0,0,.1-3.94,8.33,8.33,0,0,0-5.88-7.15,15.15,15.15,0,0,0-11.57,1.85,7.08,7.08,0,0,1-5,.68c-1.31-.14-2.48-.29-3.35.54-3.31,2.91,2.09,11.66,11,7.34,6.42-3.11,6.66-2.68,7-1.46C243.34,77.22,244.46,79.45,246.11,79.84Z"/><path class="cls-11" d="M237.06,87l-.08-.48a2.13,2.13,0,0,0,1.65-1.44l.47.14A2.63,2.63,0,0,1,237.06,87Z"/><path class="cls-5" d="M237.92,82.72a2.68,2.68,0,0,1-2.59-2.16,2.62,2.62,0,0,1,2.08-3.15,2.68,2.68,0,1,1,.51,5.31Zm.06-4.88a2.5,2.5,0,0,0-.47,0h0a2.19,2.19,0,1,0,.88,4.29,2.2,2.2,0,0,0,1.71-2.59A2.17,2.17,0,0,0,238,77.84Z"/><path class="cls-5" d="M231.84,83.93a2.63,2.63,0,0,1-1.45-.44,2.65,2.65,0,0,1-1.14-1.71,2.73,2.73,0,0,1,.4-2,2.53,2.53,0,0,1,1.69-1.14,2.65,2.65,0,0,1,3.15,2.09,2.57,2.57,0,0,1-.38,2,2.63,2.63,0,0,1-1.71,1.14A2.6,2.6,0,0,1,231.84,83.93Zm.06-4.88a1.82,1.82,0,0,0-.46.06h0a2.07,2.07,0,0,0-1.37.92,2.26,2.26,0,0,0-.33,1.66,2.16,2.16,0,0,0,2.57,1.7,2.11,2.11,0,0,0,1.41-.93,2.17,2.17,0,0,0,.31-1.64,2.21,2.21,0,0,0-2.12-1.77Z"/><rect class="cls-5" x="234.54" y="80.47" width="1.04" height="0.49" transform="translate(-10.96 45.5) rotate(-10.81)"/><rect class="cls-5" x="240.27" y="78.7" width="6.05" height="0.49" transform="translate(-10.91 50.56) rotate(-11.61)"/><path class="cls-7" d="M229.1,234.86h22.07l-.92-14.15-6.37,3.21.05,5S232.89,230.63,229.1,234.86Zm35.92,0h15.12l-1.51-6.13-.58-5.54-6.51.29,0,5.55A9,9,0,0,0,265,234.86Z"/><path class="cls-9" d="M271.59,229.07l0-5.54,6.37-1.89.72,7.19ZM244,228.88l0-5,6.36-1.89.54,6.56Z"/><path class="cls-8" d="M280.29,226.79l-13.71-97.85H239.45l.93,97.46,3.5,0,6.71.1h0l1.7,0,1.55-73.83,14.93,74Z"/><g class="cls-12"><path class="cls-9" d="M253.21,175.46l-1.94-34.76,2.57,11.47Z"/></g><path class="cls-9" d="M239,150c.19.3,1,2.77-4.13,4-.54.15-2.09-.68-2.09-.68s1.31,1.55-.1,2.23c0,0-3.06-3-3.26-3.69a22.22,22.22,0,0,1,.05-5.64c.24-.87,3.79-6.9,3.79-6.9s2.92-.24,3.75.92c2.28,3.26.34,10.26.34,10.26S238.58,149.4,239,150Zm34.32-11.95a7.77,7.77,0,0,0-.05,1.5,12,12,0,0,1-.39,3.31c-.68,2.77,1.26,1.31,1.8.05a4.48,4.48,0,0,0,.29-1.32,2.46,2.46,0,0,1,.53-1.55l.1.1c.39.38,1.07,1.06,2,4.37a21.22,21.22,0,0,1,.34,2.82.18.18,0,0,0,.05.15c.15.68.34,1.84,1.07,1.89.2,0,.39-.24.39-.24a1,1,0,0,0,.88.87c.29,0,.53-1.89.53-1.89s.29.87.83.87c.14,0,.92-5.59.92-5.59l.15,1.22v1.26s.14.63.68.63c.19,0,.39-1.16.48-2.52a11.44,11.44,0,0,0-.63-5.06c-.1-.34-.19-.68-.29-.92a11.18,11.18,0,0,0-1.56-3.45,23.29,23.29,0,0,0-2-2.58l-5.1,1.65-.59,1.95C273.82,135.64,273.48,136.52,273.29,138.08Z"/><g class="cls-13"><path d="M230.32,152.06v-.65c1,0,1.21-.92,1.35-2.19.09-.72.16-1.34.57-1.6a5.26,5.26,0,0,0,2.33-3.88l.65,0a5.84,5.84,0,0,1-2.64,4.4c-.14.08-.21.68-.26,1.12C232.18,150.38,232,152,230.32,152.06Z"/></g><path class="cls-7" d="M258.32,93.74c6.66,2.34,15,11.43,17.4,16.72,3.79,8.32,6.66,23.48,6.66,23.48l-10.65,1.66-5.35-14,1.27,7.29-28.24,5.73,1.26,5.89-1.36,4.86L229,142.11l3.65-20.51s-.44-11.38.58-15.32a7.58,7.58,0,0,0,.25-1c.72-3.11,1.31-5.54,6.8-9.09l-1-3.64,11.62-3.11,1.07,4A14,14,0,0,1,258.32,93.74Z"/><g class="cls-14"><polygon class="cls-6" points="266.18 123.41 262.18 113.72 255.78 106.65 256.58 105.92 263.11 113.14 267.18 122.99 266.18 123.41"/></g><g class="cls-15"><rect class="cls-6" x="237.33" y="119.68" width="1.08" height="15.11" transform="translate(-24.94 66.4) rotate(-15.11)"/></g><path class="cls-9" d="M234.93,230.63a4.38,4.38,0,1,1-4.37-4.38,4.35,4.35,0,0,1,4.37,4.38"/><path class="cls-9" d="M241.84,191.79H221.42l-3.79-24.45V148.48a16.63,16.63,0,1,1,33.25,0v18.86l2,11.71a11.12,11.12,0,0,1-11,12.74"/><path class="cls-8" d="M242.13,231.5H198.72a3,3,0,0,1,0-6h43.41a3,3,0,0,1,0,6"/><path class="cls-9" d="M219,228h2.77V191.79H219Z"/><path class="cls-9" d="M235.71,191.79l-15.26,7-15.27-7Z"/><path class="cls-8" d="M218.6,231.5H213a3,3,0,0,1,0-6h5.64a3,3,0,1,1,0,6"/><path class="cls-9" d="M247.86,230.63a4.38,4.38,0,1,1-4.37-4.38,4.35,4.35,0,0,1,4.37,4.38"/><path class="cls-9" d="M229.25,187.76H194.1a4.11,4.11,0,0,1-4.08-4.09h0a4.11,4.11,0,0,1,4.08-4.08h35.15a4.11,4.11,0,0,1,4.08,4.08h0a4,4,0,0,1-4.08,4.09"/><path class="cls-9" d="M243.39,187.76h-20.9a4.11,4.11,0,0,1-4.08-4.09h0a4.1,4.1,0,0,1,4.08-4.08h20.9a4.11,4.11,0,0,1,4.09,4.08h0a4.08,4.08,0,0,1-4.09,4.09"/><rect class="cls-4" x="108.55" y="123.63" width="2.86" height="25.59" transform="translate(-47.75 60.08) rotate(-25.3)"/><rect class="cls-4" x="101.64" y="118.01" width="26.54" height="2.86" transform="translate(-44.13 72.8) rotate(-29.76)"/><path class="cls-8" d="M107.23,150.33h20.52a3.37,3.37,0,0,0-3.36-3.36H110.64a3.35,3.35,0,0,0-3.41,3.36"/><path class="cls-8" d="M144.18,119.89a8.66,8.66,0,0,0-17.31,0"/><path class="cls-8" d="M161.29,148.43H132.37L125.56,126h28.92Z"/><path class="cls-16" d="M153.46,127.48l5.79,19.1H133.34l-5.79-19.1Z"/><path class="cls-9" d="M153.56,133.36l.29.92H132.61l-.29-.92Z"/><path class="cls-9" d="M154.24,135.26l.29.92H134l-.29-.92Z"/><path class="cls-9" d="M154.87,137.1l.29.93H140.39l-.29-.93Z"/><path class="cls-8" d="M182.43,148.43H153.51v1.85h28.92Z"/><path class="cls-7" d="M153.51,148.43H132.37v1.85h21.14Z"/><path class="cls-7" d="M132.37,148.43h-1.8L123.76,126h1.8Z"/><path class="cls-9" d="M243.68,150.28H134.36V156H243.68Z"/><path class="cls-8" d="M142.23,150.28H99.6V156h42.68v-5.73Z"/><path class="cls-8" d="M116.91,156H110.2l-7.15,79.29h2Z"/><path class="cls-8" d="M150.94,156h-6.71l-7.15,79.29H139Z"/><path class="cls-9" d="M152.49,129.76l.29.93H131.54l-.29-.93Z"/><path class="cls-9" d="M153,131.61l.29.92h-19l-.29-.92Z"/><path class="cls-9" d="M139,126.8l-.44-.44.53-.29,3.41.44-.3.34.2.43-.29.44-3.6-.44Z"/><path class="cls-9" d="M154.29,234.86h22.6L176,219.35l-6.51,3.5,0,5.45S158.13,230.24,154.29,234.86Zm44.23-.05h16.39l-1.66-7.1-.63-6.46-7.05.34.05,6.46A10,10,0,0,0,198.52,234.81Z"/><path class="cls-8" d="M205.67,228.1l0-6.46,6.9-2.24.78,8.31Zm-36.17.24,0-5.44,6.51-2.09.53,7.19Z"/><path class="cls-9" d="M206.3,165.88H173.73a13.73,13.73,0,0,0-13.61,15.46l5.69,43.85h12.06l-.54-42.78H198l4.42,42.78h11.86l-2-42.78h8.46a11.52,11.52,0,0,0,11.57-11.47v-5.06h-26Z"/><g class="cls-17"><path class="cls-16" d="M232.21,171a11.52,11.52,0,0,1-11.57,11.48h-8.41l2,42.77H202.36l-5.1-49.43a9,9,0,0,1,9-9.87h25.91v5Z"/></g><g class="cls-18"><path class="cls-19" d="M211.07,120.38l5.39-3.69L211,117.85Z"/></g><path class="cls-16" d="M207.08,114.5a2.61,2.61,0,0,0,2.28-1.31Z"/><path class="cls-9" d="M204.6,112.46c-7.87-2-2.09-9.58-2.09-9.58Z"/><path class="cls-7" d="M222.73,129l-1-8.75s9.33-2.58,7.73-7.49c-1.26-3.79-6.47-1.7-7.05,0l-1.26-10-11-.82-6.8,6.17c-1.27,5.74,0,13.86,0,13.86,1.75.92,10,.24,10,.24l-.2,6.66"/><path class="cls-9" d="M226.72,110.61c-3.31.1-4.28,2.14-4.28,2.14-5.59-1-3.5-5.69-3.5-5.69-24.45,8.41-24.4-8.85-22.65-9.57s4.86,4.42,4.86,4.42,1-9.53,7.1-9.58c4.32,0,5.88,6.57,5.88,6.57s5.54-3.36,11.71,3.11.88,8.6.88,8.6"/><polygon class="cls-6" points="224.27 101.24 220.87 100.2 221.46 95.08 223.61 95.32 223.23 98.66 223.63 98.78 226.28 96.01 227.84 97.5 224.27 101.24"/><path class="cls-9" d="M209.27,116.83l-2.24,0,1.9-4.61Z"/><path class="cls-9" d="M211.16,112.65a1.14,1.14,0,1,1,.93,1.31,1.09,1.09,0,0,1-.93-1.31"/><path class="cls-9" d="M205.23,112.65a1.14,1.14,0,1,1,.93,1.31,1.12,1.12,0,0,1-.93-1.31"/><path class="cls-4" d="M209.59,119.33h-.09l0-.91a2.14,2.14,0,0,0,1.86-1.08l.81.44A3.12,3.12,0,0,1,209.59,119.33Z"/><path class="cls-7" d="M199.59,181.82c.15.34.39,2.92-4.81,3.07-.53,0-1.89-1.07-1.89-1.07s1,1.8-.54,2.19c0,0-2.38-3.5-2.43-4.28a22.76,22.76,0,0,1,1.17-5.54c.43-.78,5-6,5-6s2.92.34,3.45,1.6c1.61,3.65-1.7,10.11-1.7,10.11S199.35,181.1,199.59,181.82Zm35.68-3.4a11.19,11.19,0,0,1-1,3.16c-1.26,2.58,1,1.51,1.8.39a5.46,5.46,0,0,0,.54-1.21,2.28,2.28,0,0,1,.82-1.41.11.11,0,0,0,.1.09c.29.44.83,1.27,1.17,4.67a24.66,24.66,0,0,1-.25,2.87v.14c0,.68,0,1.9.64,2,.19.05.43-.14.43-.14s-.05.87.68,1c.3.05.88-1.75.88-1.75s.1.92.63,1c.15.05,2-5.3,2-5.3l-.09,1.22-.25,1.21s0,.68.54.78c.19.05.63-1.07,1-2.38a11.86,11.86,0,0,0,.39-5.06c0-.24,0-.48-.1-.73a16.84,16.84,0,0,0-1-4.47l-7.54-.34a27.46,27.46,0,0,0-1.07,2.67C235.47,177.45,235.37,177.94,235.27,178.42Z"/><g class="cls-15"><path class="cls-6" d="M191.16,182.31a2.79,2.79,0,0,1-.47-.05l.21-1.06c.76.15,1.06-.38,1.5-1.72.25-.77.46-1.43,1-1.62a4.94,4.94,0,0,0,2.91-3.18l1.05.28a6,6,0,0,1-3.62,3.93,5,5,0,0,0-.35.93C193.12,180.77,192.62,182.31,191.16,182.31Z"/></g><path class="cls-8" d="M199.16,152.56s1.84-11.23,3.59-14.87c1.36-2.87,2-5.16,6.42-7.34h0c.29-.15.63-.3,1-.49l.78-.34c.44-.19,1-.39,1.46-.58a59.29,59.29,0,0,1,12.1,0,15.55,15.55,0,0,1,1.61.24,12.2,12.2,0,0,1,3.69,1.26c6,3.65,12.45,14.2,13.76,19.89,2,8.94,1.85,24.35,1.85,24.35l-10.8-.49-2.48-14.82-.19,7.39H203.14l.05,6-2.33,4.48L191.43,172Z"/><path class="cls-9" d="M214.61,138.8l7-9.77,3.31-.14-1.65-4.43-5.84.3-2.28,3.84-2.34-3.6-1.55.1-.73,4.42,1-.05Z"/><path class="cls-8" d="M216.17,128.45l4.52,1.56-1.7-4.14Zm-5.35,1.8,3.6-1.65-2.72-2.24Z"/><circle class="cls-6" cx="232.09" cy="81.37" r="0.53"/><circle class="cls-6" cx="237.94" cy="80.16" r="0.53"/></g></svg>