<svg id="Calque_1" data-name="Calque 1" xmlns="http://www.w3.org/2000/svg" viewBox="0 0 443 285.97"><defs><style>.cls-1,.cls-16,.cls-5{fill:#86f1e6;}.cls-1,.cls-12,.cls-2,.cls-3,.cls-5,.cls-7{fill-rule:evenodd;}.cls-2{fill:#cf3e83;}.cls-3{fill:#dcfdfa;}.cls-10,.cls-11,.cls-13,.cls-14,.cls-15,.cls-17,.cls-18,.cls-19,.cls-4,.cls-6,.cls-8,.cls-9{fill:none;}.cls-10,.cls-11,.cls-13,.cls-15,.cls-18,.cls-4,.cls-6{stroke:#86f1e6;}.cls-14,.cls-4,.cls-6{stroke-width:1.14px;}.cls-5{opacity:0.65;}.cls-11,.cls-13,.cls-17,.cls-18,.cls-19,.cls-5{isolation:isolate;}.cls-6{stroke-miterlimit:10;}.cls-7{fill:#b1f8f0;}.cls-8,.cls-9{stroke:#b1f8f0;stroke-width:5.92px;}.cls-9{stroke-linejoin:round;}.cls-10{stroke-width:2.07px;}.cls-11{stroke-width:1.67px;}.cls-11,.cls-19{opacity:0.2;}.cls-12{fill:#c83820;}.cls-13{stroke-width:1.08px;}.cls-13,.cls-18{opacity:0.15;}.cls-14,.cls-17,.cls-19{stroke:#cff7f2;}.cls-15{stroke-width:1.3px;}.cls-17,.cls-18,.cls-19{stroke-width:1.15px;}.cls-17{opacity:0.2;}</style></defs><title>scene_teaching_students</title><path class="cls-1" d="M120.76,49.53c.34,12.73-9.21,23.31-21.38,23.65S77.1,63.4,76.76,50.67s8.18-22.51,20.35-22.85,23.3,9,23.65,21.71"/><path class="cls-1" d="M82.67,45.67a2.35,2.35,0,0,0,.46-4.55A18.52,18.52,0,0,0,75.28,40c-6.25.46-15.57,6-16.37,16.26C58,67.72,66.75,72.16,60.39,82.39l21,5.11s3.18-6.82-2.16-15.91c-4.89-8.3-12.39-23.88,3.41-25.92"/><path class="cls-2" d="M101.54,73.63s-4.55.23-6.48-.79l6.25,3.75Z"/><path class="cls-3" d="M111.55,71.93c-2.28,1.59-6.48,1.93-10,1.82L101,83.86,89.15,79.32S90,68.06,90.4,63.74c-2.39-2-6.37-3-6.48-6.59a3.36,3.36,0,0,1,3.3-3.53c3.64-.11,3.18,4.21,3.18,4.21,4.09,1.48,8-12.39,10.35-15.57,1.25-1.71,11.48,1.82,11.48,1.82l5.91,6.25c.11,1,.11,16.82-6.59,21.6"/><path class="cls-1" d="M110.86,57.49l2.73,6.25h-3Z"/><path class="cls-1" d="M108.14,57.83c0,1.25-.8,2.27-1.6,2.27s-1.47-1-1.47-2.27.79-2.27,1.59-2.27,1.59,1,1.48,2.27"/><path class="cls-1" d="M116.09,57.38c0,1.25-.79,2.27-1.59,2.27s-1.48-1-1.48-2.27.8-2.28,1.6-2.28,1.47,1,1.47,2.28"/><path class="cls-4" d="M110,66.7s-1.94.68-4-1.48"/><path class="cls-5" d="M101.54,73.63s-4.55.23-6.48-.79l6.25,3.75Z"/><path class="cls-1" d="M90.4,57.94s15.58.91,23.19-17.73l-18-2.61"/><path class="cls-1" d="M110.86,37.82s.35,12.85,7.74,19l.56-8.19"/><path class="cls-6" d="M368,110.92s7.05,4.66,7.84,12.73"/><path class="cls-7" d="M368.47,144.8H347.1a8.39,8.39,0,0,1-8.41-8.41V130.7a8.39,8.39,0,0,1,8.41-8.41H401a8.39,8.39,0,0,1,8.41,8.41v5.69A8.39,8.39,0,0,1,401,144.8H380.75v16.94H368.47Zm3.19-34.67a4.21,4.21,0,1,1-4.21-4.21A4.13,4.13,0,0,1,371.66,110.13Z"/><path class="cls-3" d="M368.47,161.74h12.28V144.8H368.47Z"/><path class="cls-7" d="M368.47,156.28l12.28-4.09v-7.5H368.47Z"/><path class="cls-1" d="M347.1,144.8h0a8.39,8.39,0,0,1-8.41-8.41V130.7a8.41,8.41,0,1,1,16.82,0v5.69a8.39,8.39,0,0,1-8.41,8.41"/><path class="cls-1" d="M360.29,133.54a6.48,6.48,0,1,0,6.48-6.48,6.55,6.55,0,0,0-6.48,6.48"/><path class="cls-3" d="M364.61,132.64a3,3,0,1,0,2.95-3,3,3,0,0,0-2.95,3"/><path class="cls-1" d="M391.89,133.54a6.48,6.48,0,1,0,6.48-6.48,6.47,6.47,0,0,0-6.48,6.48"/><path class="cls-3" d="M396.21,132.64a3,3,0,1,0,3-3,3,3,0,0,0-3,3"/><path class="cls-1" d="M381.09,129.11l5.8,4.43-5.8,4.44"/><path class="cls-1" d="M218.52,191c-4,0-7.16,4.66-7.16,10.34s3.18,10.35,7.16,10.35,7.17-4.66,7.17-10.35S222.5,191,218.52,191"/><path class="cls-8" d="M218.52,201.87V87.62"/><path class="cls-1" d="M168.05,143.89h56.39V85.23H168.05Z"/><path class="cls-9" d="M167.71,201.87V87.62L146.9,93.87"/><path class="cls-6" d="M193.85,169.58l49.23,63.33"/><path class="cls-6" d="M243.19,169.58,194,232.91"/><path class="cls-6" d="M189,201.3h59.11"/><path class="cls-6" d="M218.52,155.14v92.2"/><path class="cls-7" d="M218.52,151.05c-19.32,0-35,22.74-35,50.82s15.69,50.82,35,50.82,35-22.74,35-50.82-15.58-50.82-35-50.82m0,8c6.71,0,13.08,4.09,18.19,11.48a47.11,47.11,0,0,1,6.37,13.87,63.87,63.87,0,0,1,2.39,17.51,62.73,62.73,0,0,1-2.39,17.51,47.11,47.11,0,0,1-6.37,13.87c-5.11,7.39-11.59,11.48-18.19,11.48s-13.07-4.09-18.19-11.48A47.35,47.35,0,0,1,194,219.38a63.92,63.92,0,0,1-2.39-17.51A62.73,62.73,0,0,1,194,184.36a47.35,47.35,0,0,1,6.36-13.87c5.12-7.5,11.6-11.48,18.19-11.48"/><path class="cls-10" d="M167.71,155.14v92.2"/><path class="cls-8" d="M263.77,225.86V141.62"/><path class="cls-1" d="M265.13,222.67c-5.68,0-10.34,6.71-10.34,15s4.66,15,10.34,15,10.35-6.71,10.35-15-4.66-15-10.35-15m0,6.48c1.14,0,3.76,3,3.76,8.42s-2.73,8.41-3.76,8.41-3.75-3-3.75-8.41,2.62-8.42,3.75-8.42"/><path class="cls-1" d="M181.46,173.68h82.31V160.83H181.46Z"/><path class="cls-7" d="M169,173.68h44.56V160.83H169Z"/><path class="cls-7" d="M280.82,225.06l.12-7.5-9-4.89L270.59,234h31.26C296.51,227.79,280.82,225.06,280.82,225.06Zm-38.65-.23.11-8.86-9.77-.46-.91,8.87-2.28,9.78H252C249.1,225.74,242.17,224.83,242.17,224.83Z"/><path class="cls-3" d="M231.6,224.27l1-11.49,9.55,3.07-.11,8.87Zm39.56.34.68-9.89,9,2.84-.11,7.5Z"/><path class="cls-1" d="M226.48,241.09h77.76V234H226.48Z"/><path class="cls-3" d="M223.41,241.09h26V234h-26Z"/><path class="cls-7" d="M167.71,151.05c-19.33,0-35,22.74-35,50.82s15.69,50.82,35,50.82,35-22.74,35-50.82-15.69-50.82-35-50.82m0,8c6.7,0,13.07,4.09,18.19,11.48a47.35,47.35,0,0,1,6.36,13.87,63.87,63.87,0,0,1,2.39,17.51,62.73,62.73,0,0,1-2.39,17.51,47.35,47.35,0,0,1-6.36,13.87c-5.12,7.39-11.6,11.48-18.19,11.48s-13.08-4.09-18.19-11.48a47.11,47.11,0,0,1-6.37-13.87,63.92,63.92,0,0,1-2.39-17.51,62.73,62.73,0,0,1,2.39-17.51,47.11,47.11,0,0,1,6.37-13.87C154.63,163,161,159,167.71,159"/><path class="cls-8" d="M210.57,225.86l-.12-64.12"/><path class="cls-3" d="M214.2,222.67c-5.68,0-10.34,6.71-10.34,15s4.66,15,10.34,15,10.35-6.71,10.35-15-4.66-15-10.35-15m0,6.48c1.14,0,3.76,3,3.76,8.42S215.23,246,214.2,246s-3.75-3-3.75-8.41,2.62-8.42,3.75-8.42"/><path class="cls-1" d="M167.37,190.61c-4,0-7.17,4.67-7.17,10.35s3.19,10.35,7.17,10.35,7.16-4.67,7.16-10.35-3.19-10.35-7.16-10.35"/><path class="cls-10" d="M146.11,173.68l42.51,54.56"/><path class="cls-10" d="M188.28,174.7l-43,55.14"/><path class="cls-10" d="M139.17,201.3h55.48"/><path class="cls-1" d="M220.46,139H196.81v7.05a15.89,15.89,0,0,0,16,15.8h20.24l-2.73,59h16.48l6.14-59h17.17l-.8,59h16.71l7.85-60.48A18.92,18.92,0,0,0,275,139.12H220.46Z"/><path class="cls-1" d="M196.81,139h44.45a12.55,12.55,0,0,1,12.51,13.64l-7.05,68.21H230.23l2.73-59H212.73a15.89,15.89,0,0,1-16-15.8V139Z"/><path class="cls-3" d="M271.16,102.17c-3.64,7.27-16.6,31.15-25.81,27.28-6.93-2.84-15.12-26.49-15.12-26.49l13.42-8.07,6,16.26L262,97.73c-.45-2.61-.79-6.13.11-7.39,1.37-2,8.64-8.52,8.64-8.52L272,92.73l.22-.91v-.11h0l.57-2.16c-.23-.11-.34-.23-.23-.46a2.06,2.06,0,0,1,.46-.56l1.82-7.28s.57.23,1.48.68c1.36-.34,6.48,3.19,6.48,3.19h0c1,.68-1.37,11.7-3.42,13.75-1.36,1.37-5.79,2.62-8.18,3.3ZM189,151.39l.79,1.59a15.41,15.41,0,0,1,1.48,3.53c.8,2.27.45,3.64,2.16,7.16,1.93,4-1.48,2.39-2.73.57-.91-1.36-.79-3.18-2-4-.45.68-1.36,1.59-1.93,7.39a34.07,34.07,0,0,0,.34,4.43c0,1,.12,3.07-1,3.41-.23.12-.68-.22-.68-.22s.11,1.36-1,1.59c-.45.11-1.36-2.73-1.36-2.73s-.11,1.48-1,1.59c-.23,0-3.19-8.18-3.19-8.18l.23,1.82.34,1.93s0,1-.79,1.25c-.34.11-.91-1.59-1.48-3.64a17,17,0,0,1-.57-7.73,23,23,0,0,1,1.48-7.16,6.64,6.64,0,0,1,.57-1.37c-.69-5.91-2.62-23.3-2.39-28.64.34-6.48,7-20.81,7-20.81L197,110.92l-7.62,14L189,151.39Zm33.08-64.23c-8-.45-11.37-5.46-12.17-6.82,5.12-.34,5.57-.34,12.4.46a47.94,47.94,0,0,1,6.48,1.36C229.21,83.52,229.78,87.62,222.05,87.16Z"/><path class="cls-7" d="M196.58,139.46h44.34l1.59-27.52,7.73-4.54-5.46-12.62h0c-.22-.46-.45-.91-.79-1.48-3.41-6.14-9.21-9.55-15.35-11.25h-.11a1.11,1.11,0,0,1,.23.79,4.45,4.45,0,0,1-.46,2.39,4.3,4.3,0,0,1-2.16,1.48,5.14,5.14,0,0,1-1.14.22c-.22,0-1.7.12-1.93.12a21.51,21.51,0,0,1-4.43-.57,9.74,9.74,0,0,1-1.48-.46c-.11,0-.23-.11-.34-.11a19.32,19.32,0,0,1-2.28-1,8,8,0,0,1-2.38-1.82l-.23-.23a9.46,9.46,0,0,1-1.48-1.7,4.53,4.53,0,0,0-.34-.46.11.11,0,0,0-.11-.11.41.41,0,0,1-.12-.34v-.12h-.11A31.73,31.73,0,0,0,199.65,83c-11.25,5.34-18,18.64-18,18.64l14,10.57Z"/><path class="cls-11" d="M195.9,112.29l3.52,2.38,8.53-10"/><path class="cls-7" d="M277.07,94.66l-.57,3.07h-10l4.77-24.21h10c-.23,1.36-.91,4.43-1.82,9.44l-1.93-.91-.57-.23h-.46l-.22.11v.57l2.16,3.07-1.6.68-2.5,1.37-.68.45-.23.23-.22.23-.12.22-.11.12v.45l.11.12.8.34,1.93-.57h1.82l-2.5.57-1.59,1-.57.57-.34.34v.34l.57.23,3.52-.46-1.14.68-.79.46-.68.34-.57.68v.34l.22.23.46.23h2.27Z"/><path class="cls-1" d="M266.38,97.73h-1.7l4.77-24.21h1.71Z"/><path class="cls-1" d="M272.86,76.25c-.11.68-.56,1.25-.9,1.13s-.57-.68-.46-1.36.57-1.25.91-1.14.57.69.45,1.37"/><path class="cls-7" d="M387.57,176.52h-3.86V162.88a3.67,3.67,0,0,0-3.64-3.64H368.13a3.67,3.67,0,0,0-3.64,3.64v13.3h-3.41a2.16,2.16,0,0,0-2.16,2.16v44.33a2.16,2.16,0,0,0,2.16,2.16H368a2.16,2.16,0,0,0,2.16-2.16,2.24,2.24,0,0,0-2.16-2.16h-4.66v-9.66c1.25-1.93,2.95-3.18,4.66-3.18,4.21,0,7.62,6.7,7.62,15s-3.41,15-7.62,15c-3.87,0-7-5.57-7.5-12.85a2.07,2.07,0,0,1-1.48-2v-24.9c-4,5.57-6.48,14.55-6.48,24.9,0,16.82,6.93,30.58,15.57,30.58h12.62c8.64,0,15.58-13.64,15.58-30.58,0-10.23-2.5-19.22-6.48-24.79V178.79A2.29,2.29,0,0,0,387.57,176.52Zm-3.86,6.93v-2.61h1.7v12.73a9.07,9.07,0,0,0-4.77-1.48H368a8.86,8.86,0,0,0-4.66,1.37V180.38h1.25v3a3.67,3.67,0,0,0,3.64,3.64h11.93A3.41,3.41,0,0,0,383.71,183.45Z"/><path class="cls-1" d="M360.4,224.61a1.5,1.5,0,0,0,.68.11H368a2.16,2.16,0,0,0,2.16-2.16A2.23,2.23,0,0,0,368,220.4h-4.66v-9.55c1.25-2,2.95-3.18,4.77-3.18,4.21,0,7.62,6.7,7.62,15s-3.41,15-7.62,15c-4-.23-7.16-5.8-7.73-13.07Z"/><path class="cls-1" d="M364.38,173.22h19.21v-6.59H364.38Z"/><path class="cls-1" d="M385.53,193.57c-.12,0-.12-.11-.23-.11V181h-1.71v-4.32h4a2.16,2.16,0,0,1,2.16,2.16v18.87c-.11-.11-.22-.34-.34-.45s-.23-.23-.23-.34l-.11-.12c4.43,5.46,7.28,15,7.28,25.92,0,16.83-6.94,30.58-15.58,30.58H368.7c8.3-.68,15-14.09,15-30.58,0-16.82-6.94-30.46-15.58-30.58h12.62a8.2,8.2,0,0,1,4.78,1.48Zm2.61,2.05.34.34c-.11,0-.23-.12-.34-.34Zm-24.9,24.78h4.67a2.16,2.16,0,0,1,2.16,2.16,2.24,2.24,0,0,1-2.16,2.16H361a2.16,2.16,0,0,1-2.16-2.16V178.22a2.16,2.16,0,0,1,2.16-2.16h6.94a2.16,2.16,0,0,1,0,4.32h-4.67Z"/><path class="cls-3" d="M147.13,169.47V170a8.79,8.79,0,0,1-8.64,9H70.85c-10.46,0-18.42-10-17.06-21.26l7.62-62.41c.68-5.23,4.78-9,9.55-9H91c4.77,0,8.87,3.86,9.55,9l7.62,62.41a5.68,5.68,0,0,1,.11,1.36h0s1.36,10.24,14.55,10.24h24.33Z"/><path class="cls-7" d="M75.17,249.5a5.8,5.8,0,1,1-5.8-5.79,5.68,5.68,0,0,1,5.8,5.79"/><path id="Fill-6" class="cls-3" d="M127.8,250.64H70.85a4,4,0,0,1,0-8h57a4,4,0,1,1,0,8"/><polygon class="cls-7" points="96.43 248.71 102.22 248.71 102.22 178.91 96.43 178.91 96.43 248.71"/><polygon class="cls-7" points="119.39 178.91 99.27 188 79.26 178.91 119.39 178.91"/><path class="cls-7" d="M99.72,250.64H92.33a4,4,0,0,1,0-8h7.39a4,4,0,0,1,4,4,4,4,0,0,1-4,4"/><path class="cls-7" d="M95,249.5a5.8,5.8,0,1,1-5.8-5.79A5.75,5.75,0,0,1,95,249.5"/><path class="cls-7" d="M135.42,249.5a5.8,5.8,0,1,1-5.8-5.79,5.74,5.74,0,0,1,5.8,5.79"/><path class="cls-12" d="M82.22,137.75H79.71v-.11a19.17,19.17,0,0,1,2.51.11"/><path class="cls-12" d="M90.74,137.86V138s-3.64,0-8.64-.23Z"/><path id="Stroke-4" class="cls-13" d="M129.17,168.45s1,3.86,4.55,5.11c1.25.46.9,5.34,4,4.78"/><polyline id="Stroke-22" class="cls-14" points="79.26 106.83 71.76 119.33 90.52 126.84"/><path class="cls-1" d="M211,23.5A5.8,5.8,0,1,1,204.2,19,5.68,5.68,0,0,1,211,23.5"/><path class="cls-3" d="M224.78,81l-.23-9.55s11.59.91,14-.34c0,0,3.07-15.57-.57-24.21l-.11-.34-24.33-2.85L212,57.49c-.79-2.39-7.39-5-9.2-1.48-3.87,7.51,9.89,12.62,9.89,12.62l-1.37,12.51"/><path class="cls-5" d="M224.44,71.59l-7.85-1.71,7.73,5.23Z"/><path class="cls-7" d="M230.92,56l2.72,6.6h-3.18Z"/><path class="cls-1" d="M227.85,57.94a1.67,1.67,0,1,1-3.3.57,1.75,1.75,0,0,1,1.36-1.93,1.77,1.77,0,0,1,1.94,1.36"/><path class="cls-1" d="M236.26,57.94a1.67,1.67,0,1,1-3.3.57,1.66,1.66,0,0,1,1.37-1.93,1.69,1.69,0,0,1,1.93,1.36"/><path class="cls-1" d="M227.5,64.54a4,4,0,0,0,3.42,1.7Z"/><path class="cls-15" d="M227.5,64.54a4,4,0,0,0,3.42,1.7"/><path class="cls-7" d="M209.43,55.78l.23-5.45,11.48-2A13.14,13.14,0,0,1,213,58.85,10.66,10.66,0,0,0,209.43,55.78Z"/><path class="cls-7" d="M201,48.51s-3.87-14,7.27-21.71c13.87-9.55,30,15.57,30,15.57"/><path class="cls-1" d="M198.17,50.1l.46,3.64a2.65,2.65,0,0,0,3.18,2.16l38-6.37a2.71,2.71,0,0,0,2.16-3.41l-1.59-4.89a2.86,2.86,0,0,0-3.18-1.93l-36.95,7.62a2.89,2.89,0,0,0-2.05,3.18"/><path class="cls-1" d="M200.45,42.37l6.48-8.87,9.77,5,5.69-8.41,10.12,4.66"/><path class="cls-1" d="M142.7,233.81l-.8,7.28s15.46,4.09,21.26,10H134.4l1-20.69Zm33.08-33.53,3.3,6.48s15.12-5.12,23.3-3.3l-23.76,15.8-10.8-17.73Z"/><path class="cls-3" d="M135.08,232.34l7.62,3.07-.12,6-7.84-.34Zm33.54-29.45,8.07-1.7L180,206.3l-6.7,4.1Z"/><path class="cls-1" d="M133.49,130.7,80.17,146.5,79,156.62c-.68,9.89,9,18.53,18.87,18.53h0l34.91-.22-.8,62.3h18.3l4-42.86,11.6,16.94L181.46,201l-28.3-58C146.79,131.5,143.26,128.54,133.49,130.7Z"/><path class="cls-7" d="M137.92,150.14h0L97.9,175l34.91-.23-.8,62.3h18.3l6.26-68.1c1.59-12.39-6.14-18.87-18.65-18.87"/><polygon class="cls-16" points="79.72 137.52 80.06 146.5 107.45 139.34 103.59 133.66 79.72 137.52"/><path class="cls-12" d="M83,140.14H80.4V140a18.15,18.15,0,0,1,2.61.12"/><path class="cls-1" d="M136.9,168.79l-8.76,1.13L114.05,148l-.57-7.27-21.37-.34-9.1-.12h0c-.79,0-1.7-.11-2.61-.11-11.49-.8-27.51-3.07-28.54-9.21-1.93-11.25,13.08-33,14.78-35.58a.37.37,0,0,0,.11-.23c2.51-3.64,5-6.37,7.39-7.84a23.27,23.27,0,0,1,13-3.53l1.14-8L105,78.07,104,84.66c4.89.46,8.3,1.48,11.37,4.32,10,9.21,10.8,43.77,10.8,43.77Z"/><path class="cls-17" d="M113.25,140.48c1.25-15.58,9.78-18.87,3.64-36.38"/><path class="cls-3" d="M127.8,159.81l-31.94-3.64A1.77,1.77,0,0,1,94.38,154L107,109.44a1.73,1.73,0,0,1,1.82-1.25l31.94,3.64a1.76,1.76,0,0,1,1.48,2.16l-12.62,44.57a1.72,1.72,0,0,1-1.82,1.25"/><path class="cls-7" d="M97.68,156.28l31.94,3.64a1.73,1.73,0,0,0,1.82-1.25l12.62-44.45a1.7,1.7,0,0,0-1.48-2.16l-31.94-3.64a1.73,1.73,0,0,0-1.82,1.25l-6.48,23a32.48,32.48,0,0,0,5.11,1.7,40.81,40.81,0,0,0,4.32.34H112c1,.12,2.84.34,3,1.48a.79.79,0,0,1-.34.57A1.49,1.49,0,0,1,116,138c0,.45-2.84.91-2.84.91s1.36.34,1.36,1.25c0,.23-8.41,1.82-8.41,1.82l1.82.11,1.93-.11s1,.22,1,1c0,.34-1.7.68-3.75.91a17.81,17.81,0,0,1-7.61-.57h-.23l-3.07,11A1.66,1.66,0,0,0,97.68,156.28Z"/><path class="cls-3" d="M136.78,168.79a66.08,66.08,0,0,1,4.78,6,46,46,0,0,1,1.7,8.41c0,1.14-3.63,6.48-3.63,6.48-2.16-.56-.8-3.29-.8-3.29s-1.93,1.7-2.84,1.59c-7.73-.23-7.28-4.21-7.16-4.66.45-1.14,2.5.11,2.5.11s-4-8.07-3.07-13.75Zm-23.64-30s1.36.35,1.36,1.25c0,.23-8.41,1.82-8.41,1.82l1.82.12,1.93-.12s1,.23,1,1c0,.34-1.7.68-3.75.91a17.81,17.81,0,0,1-7.61-.57c-.23,0-.34-.12-.57-.12a20,20,0,0,1-6.26-2.27,29.63,29.63,0,0,1-4-2.84l2.16-7.85,3-1a16.89,16.89,0,0,1,3.64-.91c1.48-.23,2.84-.11,4.32-.34l-.8,3.07c-.11.11-.22.34-.34.34.12,0,.12.11.23.23.57.57,1.71,1.48,6.71,2.73,1,.22,4.32.34,4.32.34,1,.11,3.07.34,3.18,1.48a.76.76,0,0,1-.34.56s1.25.12,1.36,1.25C116.09,138.32,113.14,138.77,113.14,138.77Z"/><path class="cls-18" d="M133,172.77s1.14,4.09,4.78,5.34c1.25.45,1,5.68,4.2,5.11"/><path class="cls-3" d="M112.12,112.51c-.23.8-.8,1.37-1.26,1.25s-.56-.91-.34-1.7.8-1.37,1.25-1.25.57.91.35,1.7"/><path class="cls-19" d="M79.94,107.17l-8.07,13.3,20,8"/></svg>